<svg width="23" height="30" viewBox="0 0 23 30" fill="none" xmlns="http://www.w3.org/2000/svg">
<path d="M0 1.5C0 0.671573 0.671573 0 1.5 0H15.1287C15.5265 0 15.908 0.158035 16.1893 0.43934L22.0607 6.31066C22.342 6.59197 22.5 6.9735 22.5 7.37132V28.5C22.5 29.3284 21.8284 30 21 30H1.5C0.671573 30 0 29.3284 0 28.5V1.5Z" fill="#371CE9" fill-opacity="0.5"/>
<path d="M22.5 6.75H17.1338C16.3575 6.75 15.75 6.14552 15.75 5.37313V0" fill="#371CE9"/>
<path d="M6.3 13.5H7.515C7.865 13.5 8.17 13.575 8.44 13.725C8.71 13.875 8.915 14.08 9.06 14.345C9.205 14.61 9.28 14.91 9.28 15.25C9.28 15.59 9.205 15.895 9.06 16.16C8.915 16.425 8.71 16.63 8.44 16.78C8.17 16.93 7.865 17 7.515 17H6.3V13.5ZM7.515 16.375C7.83 16.375 8.075 16.275 8.25 16.07C8.425 15.865 8.515 15.59 8.515 15.25C8.515 14.91 8.425 14.64 8.25 14.435C8.075 14.23 7.83 14.125 7.515 14.125H7.05V16.375H7.515ZM12.8524 16.165C12.7024 16.435 12.4974 16.65 12.2374 16.8C11.9724 16.955 11.6724 17.03 11.3374 17.03C10.9974 17.03 10.6974 16.955 10.4374 16.8C10.1724 16.65 9.96738 16.435 9.82238 16.165C9.67238 15.895 9.60238 15.59 9.60238 15.25C9.60238 14.915 9.67238 14.61 9.82238 14.34C9.96738 14.07 10.1724 13.855 10.4374 13.7C10.6974 13.55 10.9974 13.47 11.3374 13.47C11.6724 13.47 11.9724 13.55 12.2374 13.7C12.4974 13.855 12.7024 14.07 12.8524 14.34C12.9974 14.61 13.0724 14.915 13.0724 15.25C13.0724 15.59 12.9974 15.895 12.8524 16.165ZM10.4874 15.84C10.5674 16.015 10.6774 16.15 10.8274 16.25C10.9724 16.35 11.1424 16.395 11.3374 16.395C11.5274 16.395 11.6924 16.35 11.8424 16.25C11.9874 16.15 12.1024 16.015 12.1824 15.84C12.2624 15.67 12.3024 15.47 12.3024 15.25C12.3024 15.03 12.2624 14.835 12.1824 14.66C12.1024 14.49 11.9874 14.355 11.8424 14.255C11.6924 14.155 11.5274 14.105 11.3374 14.105C11.1424 14.105 10.9724 14.155 10.8274 14.255C10.6774 14.355 10.5674 14.49 10.4874 14.66C10.4074 14.835 10.3674 15.03 10.3674 15.25C10.3674 15.47 10.4074 15.67 10.4874 15.84ZM13.5916 14.315C13.7316 14.045 13.9266 13.84 14.1866 13.69C14.4466 13.545 14.7516 13.47 15.1016 13.47C15.3716 13.47 15.6166 13.525 15.8366 13.63C16.0516 13.74 16.2266 13.89 16.3616 14.08C16.4916 14.275 16.5716 14.5 16.6016 14.75H15.8516C15.8066 14.55 15.7166 14.395 15.5766 14.28C15.4366 14.165 15.2666 14.105 15.0616 14.105C14.7816 14.105 14.5566 14.21 14.3966 14.42C14.2316 14.63 14.1516 14.91 14.1516 15.25C14.1516 15.59 14.2316 15.87 14.3966 16.08C14.5566 16.29 14.7816 16.395 15.0616 16.395C15.2666 16.395 15.4366 16.34 15.5766 16.225C15.7166 16.11 15.8066 15.95 15.8516 15.75H16.6016C16.5716 16.005 16.4916 16.23 16.3616 16.42C16.2266 16.615 16.0516 16.765 15.8366 16.87C15.6166 16.98 15.3716 17.03 15.1016 17.03C14.7516 17.03 14.4466 16.96 14.1866 16.81C13.9266 16.665 13.7316 16.46 13.5916 16.19C13.4516 15.92 13.3866 15.61 13.3866 15.25C13.3866 14.895 13.4516 14.585 13.5916 14.315Z" fill="white"/>
</svg>
