<svg width="23" height="30" viewBox="0 0 23 30" fill="none" xmlns="http://www.w3.org/2000/svg">
<path d="M0 1.5C0 0.671573 0.671573 0 1.5 0H15.1287C15.5265 0 15.908 0.158035 16.1893 0.43934L22.0607 6.31066C22.342 6.59197 22.5 6.9735 22.5 7.37132V28.5C22.5 29.3284 21.8284 30 21 30H1.5C0.671573 30 0 29.3284 0 28.5V1.5Z" fill="#98A3B9" fill-opacity="0.15"/>
<path d="M5.98627 13.5V16.07C5.98627 16.365 5.90127 16.595 5.74127 16.755C5.58127 16.92 5.35127 17 5.05627 17H4.41127V16.35H4.82627C4.97127 16.35 5.07627 16.32 5.14127 16.25C5.20127 16.18 5.23627 16.075 5.23627 15.925V13.5H5.98627ZM7.18357 15.86C7.19357 16.035 7.26357 16.175 7.39357 16.28C7.52357 16.385 7.69357 16.435 7.90857 16.435C8.08357 16.435 8.22857 16.4 8.33857 16.325C8.44857 16.25 8.50857 16.145 8.50857 16.01C8.50857 15.92 8.47357 15.845 8.41357 15.79C8.35357 15.735 8.26357 15.69 8.15357 15.66C8.04357 15.63 7.86857 15.59 7.63857 15.54C7.40857 15.5 7.21357 15.445 7.05857 15.375C6.89857 15.305 6.77357 15.205 6.67357 15.07C6.57357 14.935 6.52857 14.755 6.52857 14.53C6.52857 14.33 6.58357 14.145 6.69357 13.985C6.80357 13.825 6.95857 13.7 7.15857 13.61C7.35857 13.52 7.58357 13.47 7.83357 13.47C8.08857 13.47 8.31857 13.52 8.52357 13.615C8.72857 13.71 8.88857 13.84 9.00857 14.005C9.12857 14.175 9.18857 14.36 9.19357 14.57H8.45857C8.43857 14.42 8.37857 14.3 8.26857 14.21C8.15857 14.12 8.01357 14.07 7.83357 14.07C7.66357 14.07 7.53357 14.105 7.43357 14.175C7.33357 14.245 7.28357 14.345 7.28357 14.475C7.28357 14.57 7.31357 14.645 7.37357 14.695C7.43357 14.745 7.51857 14.79 7.62857 14.82C7.73857 14.85 7.90857 14.89 8.13857 14.93C8.36857 14.975 8.56857 15.03 8.72857 15.095C8.88857 15.16 9.01357 15.26 9.11357 15.39C9.21357 15.52 9.26357 15.695 9.26357 15.915C9.26357 16.13 9.20357 16.32 9.08857 16.49C8.96857 16.66 8.80857 16.79 8.59857 16.885C8.38857 16.985 8.15857 17.03 7.89857 17.03C7.61857 17.03 7.36857 16.98 7.14857 16.88C6.92857 16.78 6.75857 16.635 6.63857 16.455C6.51357 16.275 6.44857 16.075 6.44857 15.85L7.18357 15.86ZM12.8236 16.165C12.6736 16.435 12.4686 16.65 12.2086 16.8C11.9436 16.955 11.6436 17.03 11.3086 17.03C10.9686 17.03 10.6686 16.955 10.4086 16.8C10.1436 16.65 9.93857 16.435 9.79357 16.165C9.64357 15.895 9.57357 15.59 9.57357 15.25C9.57357 14.915 9.64357 14.61 9.79357 14.34C9.93857 14.07 10.1436 13.855 10.4086 13.7C10.6686 13.55 10.9686 13.47 11.3086 13.47C11.6436 13.47 11.9436 13.55 12.2086 13.7C12.4686 13.855 12.6736 14.07 12.8236 14.34C12.9686 14.61 13.0436 14.915 13.0436 15.25C13.0436 15.59 12.9686 15.895 12.8236 16.165ZM10.4586 15.84C10.5386 16.015 10.6486 16.15 10.7986 16.25C10.9436 16.35 11.1136 16.395 11.3086 16.395C11.4986 16.395 11.6636 16.35 11.8136 16.25C11.9586 16.15 12.0736 16.015 12.1536 15.84C12.2336 15.67 12.2736 15.47 12.2736 15.25C12.2736 15.03 12.2336 14.835 12.1536 14.66C12.0736 14.49 11.9586 14.355 11.8136 14.255C11.6636 14.155 11.4986 14.105 11.3086 14.105C11.1136 14.105 10.9436 14.155 10.7986 14.255C10.6486 14.355 10.5386 14.49 10.4586 14.66C10.3786 14.835 10.3386 15.03 10.3386 15.25C10.3386 15.47 10.3786 15.67 10.4586 15.84ZM13.4978 17V13.5H14.1778L15.6628 15.705V13.5H16.4028V17H15.7178L14.2328 14.795V17H13.4978Z" fill="white"/>
</svg>
