<svg width="60" height="80"  viewBox="0 8 40 40" fill="none" xmlns="http://www.w3.org/2000/svg">
<path d="M0 1.5C0 0.671573 0.671573 0 1.5 0H15.1287C15.5265 0 15.908 0.158035 16.1893 0.43934L22.0607 6.31066C22.342 6.59197 22.5 6.9735 22.5 7.37132V28.5C22.5 29.3284 21.8284 30 21 30H1.5C0.671573 30 0 29.3284 0 28.5V1.5Z" fill="#FD3549" fill-opacity="0.2"/>
<path d="M22.5 6.75H17.1338C16.3575 6.75 15.75 6.14552 15.75 5.37313V0" fill="#FD3549"/>
<path d="M8.225 13.5C8.475 13.5 8.695 13.55 8.885 13.645C9.075 13.74 9.225 13.875 9.33 14.05C9.435 14.23 9.49 14.435 9.49 14.665C9.49 14.9 9.435 15.105 9.33 15.28C9.225 15.455 9.075 15.59 8.885 15.685C8.695 15.78 8.475 15.825 8.225 15.825H7.55V17H6.8V13.5H8.225ZM7.55 15.2H8.155C8.33 15.2 8.47 15.155 8.575 15.055C8.675 14.96 8.73 14.83 8.73 14.665C8.73 14.5 8.675 14.37 8.575 14.27C8.47 14.175 8.33 14.125 8.155 14.125H7.55V15.2ZM9.91035 13.5H11.1254C11.4754 13.5 11.7804 13.575 12.0504 13.725C12.3204 13.875 12.5254 14.08 12.6704 14.345C12.8154 14.61 12.8904 14.91 12.8904 15.25C12.8904 15.59 12.8154 15.895 12.6704 16.16C12.5254 16.425 12.3204 16.63 12.0504 16.78C11.7804 16.93 11.4754 17 11.1254 17H9.91035V13.5ZM11.1254 16.375C11.4404 16.375 11.6854 16.275 11.8604 16.07C12.0354 15.865 12.1254 15.59 12.1254 15.25C12.1254 14.91 12.0354 14.64 11.8604 14.435C11.6854 14.23 11.4404 14.125 11.1254 14.125H10.6604V16.375H11.1254ZM13.3527 13.5H15.6627V14.145H14.1027V14.965H15.3827V15.58H14.1027V17H13.3527V13.5Z" fill="white"/>
</svg>
