<svg width="23" height="30" viewBox="0 0 23 30" fill="none" xmlns="http://www.w3.org/2000/svg">
<path d="M0 1.5C0 0.671573 0.671573 0 1.5 0H15.1287C15.5265 0 15.908 0.158035 16.1893 0.43934L22.0607 6.31066C22.342 6.59197 22.5 6.9735 22.5 7.37132V28.5C22.5 29.3284 21.8284 30 21 30H1.5C0.671573 30 0 29.3284 0 28.5V1.5Z" fill="#61CD82" fill-opacity="0.2"/>
<path d="M22.5 6.75H17.1338C16.3575 6.75 15.75 6.14552 15.75 5.37313V0" fill="#00D98B"/>
<path d="M7.72 15.215L6.63 13.5H7.54L8.23 14.6L8.935 13.5H9.755L8.665 15.215L9.81 17H8.895L8.15 15.825L7.39 17H6.575L7.72 15.215ZM10.1838 17V13.5H10.9338V16.355H12.3238V17H10.1838ZM13.23 15.86C13.24 16.035 13.31 16.175 13.44 16.28C13.57 16.385 13.74 16.435 13.955 16.435C14.13 16.435 14.275 16.4 14.385 16.325C14.495 16.25 14.555 16.145 14.555 16.01C14.555 15.92 14.52 15.845 14.46 15.79C14.4 15.735 14.31 15.69 14.2 15.66C14.09 15.63 13.915 15.59 13.685 15.54C13.455 15.5 13.26 15.445 13.105 15.375C12.945 15.305 12.82 15.205 12.72 15.07C12.62 14.935 12.575 14.755 12.575 14.53C12.575 14.33 12.63 14.145 12.74 13.985C12.85 13.825 13.005 13.7 13.205 13.61C13.405 13.52 13.63 13.47 13.88 13.47C14.135 13.47 14.365 13.52 14.57 13.615C14.775 13.71 14.935 13.84 15.055 14.005C15.175 14.175 15.235 14.36 15.24 14.57H14.505C14.485 14.42 14.425 14.3 14.315 14.21C14.205 14.12 14.06 14.07 13.88 14.07C13.71 14.07 13.58 14.105 13.48 14.175C13.38 14.245 13.33 14.345 13.33 14.475C13.33 14.57 13.36 14.645 13.42 14.695C13.48 14.745 13.565 14.79 13.675 14.82C13.785 14.85 13.955 14.89 14.185 14.93C14.415 14.975 14.615 15.03 14.775 15.095C14.935 15.16 15.06 15.26 15.16 15.39C15.26 15.52 15.31 15.695 15.31 15.915C15.31 16.13 15.25 16.32 15.135 16.49C15.015 16.66 14.855 16.79 14.645 16.885C14.435 16.985 14.205 17.03 13.945 17.03C13.665 17.03 13.415 16.98 13.195 16.88C12.975 16.78 12.805 16.635 12.685 16.455C12.56 16.275 12.495 16.075 12.495 15.85L13.23 15.86Z" fill="white"/>
</svg>
