<svg width="24" height="16" viewBox="0 0 24 16" fill="none" xmlns="http://www.w3.org/2000/svg">
<path d="M22.6641 0.811336C22.4823 0.6706 22.2703 0.573909 22.0449 0.528852C21.8194 0.483795 21.5866 0.491598 21.3647 0.551649L21.0384 0.639774C19.2759 1.11509 15.9947 2.00009 12 2.00009C8.00531 2.00009 4.72406 1.11509 2.96156 0.639774L2.63531 0.551649C2.4133 0.492638 2.1807 0.48541 1.95545 0.53052C1.7302 0.575631 1.51832 0.671875 1.33615 0.81183C1.15398 0.951785 1.00639 1.13171 0.904765 1.33773C0.803138 1.54375 0.750188 1.77036 0.75 2.00009V14.0001C0.75 14.3979 0.908035 14.7794 1.18934 15.0607C1.47064 15.3421 1.85218 15.5001 2.25 15.5001C2.38231 15.5 2.51405 15.4827 2.64188 15.4485L2.94 15.3679C4.69969 14.8898 7.98469 14.0001 12 14.0001C16.0153 14.0001 19.3003 14.8898 21.0647 15.3679L21.3628 15.4485C21.5849 15.5079 21.8178 15.5154 22.0432 15.4704C22.2687 15.4255 22.4809 15.3293 22.6633 15.1893C22.8457 15.0493 22.9935 14.8692 23.0952 14.663C23.1969 14.4568 23.2499 14.23 23.25 14.0001V2.00009C23.2506 1.77017 23.1981 1.54323 23.0964 1.33701C22.9948 1.13079 22.8468 0.950874 22.6641 0.811336ZM19.125 5.00009C19.3475 5.00009 19.565 5.06607 19.75 5.18968C19.935 5.3133 20.0792 5.489 20.1644 5.69457C20.2495 5.90013 20.2718 6.12633 20.2284 6.34456C20.185 6.56279 20.0778 6.76325 19.9205 6.92058C19.7632 7.07792 19.5627 7.18506 19.3445 7.22847C19.1262 7.27188 18.9 7.2496 18.6945 7.16445C18.4889 7.0793 18.3132 6.93511 18.1896 6.7501C18.066 6.5651 18 6.34759 18 6.12509C18 5.82672 18.1185 5.54057 18.3295 5.32959C18.5405 5.11861 18.8266 5.00009 19.125 5.00009ZM12 12.5001C7.78125 12.5001 4.245 13.4591 2.54344 13.9195L2.25 14.0001V10.3157L6.59437 5.9704C6.66403 5.90067 6.74675 5.84535 6.83779 5.8076C6.92884 5.76986 7.02644 5.75043 7.125 5.75043C7.22356 5.75043 7.32116 5.76986 7.41221 5.8076C7.50325 5.84535 7.58597 5.90067 7.65563 5.9704L14.2762 12.5938C13.5459 12.5329 12.7847 12.5001 12 12.5001ZM21.4566 13.9195C19.8845 13.4769 18.2881 13.1264 16.6753 12.8695L13.3697 9.56384L14.7188 8.21946C14.8594 8.07891 15.0501 7.99996 15.2489 7.99996C15.4477 7.99996 15.6384 8.07891 15.7791 8.21946L21.4875 13.927L21.4566 13.9195Z" fill="white"/>
</svg>
