<svg width="22" height="20" viewBox="0 0 22 20" fill="none" xmlns="http://www.w3.org/2000/svg">
<path d="M21.2188 6.26281C20.9723 5.98366 20.6693 5.76013 20.3299 5.60706C19.9905 5.45399 19.6224 5.37489 19.25 5.375H14.375V4.25C14.3738 3.15636 13.9388 2.10787 13.1654 1.33455C12.3921 0.561236 11.3436 0.126241 10.25 0.125C10.0412 0.125024 9.83644 0.183181 9.65878 0.292958C9.48112 0.402735 9.33752 0.559798 9.24406 0.746562L5.80438 7.625H2C1.50272 7.625 1.02581 7.82254 0.674175 8.17418C0.322544 8.52581 0.125 9.00272 0.125 9.5V17.75C0.125 18.2473 0.322544 18.7242 0.674175 19.0758C1.02581 19.4275 1.50272 19.625 2 19.625H18.125C18.7648 19.6249 19.3825 19.3912 19.8621 18.9677C20.3417 18.5442 20.6501 17.9602 20.7294 17.3253L21.8544 8.32531C21.9007 7.95612 21.8679 7.5813 21.7583 7.22572C21.6487 6.87013 21.4648 6.54191 21.2188 6.26281ZM2.375 9.875H5.375V17.375H2.375V9.875ZM19.625 8.04688L18.5 17.0469C18.4885 17.138 18.444 17.2217 18.3749 17.2822C18.3058 17.3427 18.2168 17.3757 18.125 17.375H7.625V9.01531L10.8894 2.4875C11.2514 2.61882 11.5642 2.85844 11.7853 3.17378C12.0064 3.48912 12.125 3.86489 12.125 4.25V6.5C12.125 6.79837 12.2435 7.08452 12.4545 7.2955C12.6655 7.50647 12.9516 7.625 13.25 7.625H19.25C19.3035 7.62458 19.3564 7.63559 19.4052 7.6573C19.4541 7.679 19.4977 7.7109 19.5332 7.75085C19.5687 7.7908 19.5953 7.83788 19.6111 7.88894C19.627 7.93999 19.6317 7.99384 19.625 8.04688Z" fill="white"/>
</svg>
