<svg width="128" height="128" viewBox="0 0 128 128" fill="none" xmlns="http://www.w3.org/2000/svg">
<path d="M50 49.8158C50 46.6038 52.5812 44 55.7652 44H86.9652C88.089 44 89 44.919 89 46.0526V93.9474C89 95.081 88.089 96 86.9652 96H55.7652C52.5812 96 50 93.3962 50 90.1842V49.8158Z" fill="#71717A"/>
<path d="M72.1653 81.9737C72.1415 81.8918 72.1059 81.7972 72.0893 81.7703C72.078 81.7518 72.0221 81.668 72.0221 81.6558L72.2069 81.8183C72.2288 81.8061 72.2176 81.8061 72.2176 81.794C72.2122 81.7703 72.1504 81.6494 72.1338 81.6194C72.0388 81.439 71.8879 81.2881 71.7364 81.1557L71.7423 81.1435C71.8261 81.1493 71.9045 81.0892 71.9829 81.1314C71.9378 81.0169 71.8261 80.9325 71.7251 80.8666L71.731 80.8481C71.759 80.8666 71.9271 80.8724 71.9378 80.8545C71.9437 80.8481 71.9437 80.8365 71.9378 80.8244C71.9324 80.8059 71.8207 80.7221 71.7922 80.6978C71.6859 80.589 71.5908 80.4688 71.5071 80.3364L71.6188 80.4023C71.6419 80.4106 71.7138 80.4509 71.7518 80.4509C71.7691 80.4509 71.7792 80.4432 71.7756 80.4208C71.7756 80.4023 71.5802 80.1976 71.5629 80.1497C71.6021 80.1497 71.636 80.1919 71.6752 80.2034C71.6918 80.2098 71.7364 80.2098 71.731 80.1855C71.5629 79.9687 71.5071 79.6917 71.3954 79.4449C71.4008 79.4327 71.412 79.4449 71.412 79.4506C71.4512 79.4749 71.4845 79.505 71.5237 79.4986C71.535 79.4928 71.4958 79.4084 71.4905 79.3963C71.4566 79.2639 71.4738 79.1372 71.4566 79.0049C71.4513 78.9684 71.4287 78.9262 71.4287 78.8846C71.44 78.8725 71.4792 78.9147 71.4905 78.9262C71.5184 78.9447 71.5516 78.9684 71.5802 78.9684C71.5912 78.9727 71.5968 78.9707 71.5968 78.9626L71.4792 78.5712L71.5071 78.5648C71.5124 78.529 71.4679 78.348 71.4566 78.3001C71.4513 78.2822 71.412 78.2035 71.412 78.1856L71.5017 78.2937L71.5237 78.2457C71.5237 78.1255 71.5017 78.0046 71.4513 77.8965C71.4346 77.86 71.4008 77.8178 71.4008 77.7878C71.4233 77.8178 71.5071 77.86 71.4958 77.7942C71.4905 77.7756 71.4174 77.6854 71.4008 77.6554C71.2944 77.4565 71.2944 77.2032 71.1881 76.9986C71.1768 76.9807 71.1156 76.8962 71.1097 76.8841C71.1097 76.8802 71.1117 76.8783 71.1156 76.8783C71.1435 76.902 71.317 76.9205 71.317 76.8719C71.2612 76.8176 71.1994 76.7818 71.1435 76.7338C71.0146 76.6129 70.8245 76.3718 70.7628 76.2036C70.6398 75.896 70.5952 75.2513 70.6677 74.9264C70.7295 74.6552 70.8299 74.5043 70.7515 74.2094C70.7016 74.0163 70.6232 73.7873 70.4271 73.7336C70.3879 73.7272 70.3095 73.7272 70.2816 73.7093C70.2537 73.6793 70.164 73.4682 70.136 73.4202C70.041 73.2514 69.8901 73.0704 69.7499 72.9444C69.7368 72.9297 69.703 72.9118 69.6893 72.899C69.6828 72.8939 69.6792 72.8862 69.6757 72.8785C69.6644 72.8523 69.659 72.8011 69.6495 72.7756C69.6169 72.6956 69.5503 72.6777 69.5123 72.6534C69.4974 72.6444 69.4879 72.6278 69.4844 72.6099C69.4838 72.6042 69.4826 72.5984 69.4814 72.592C69.4761 72.5715 69.4612 72.5549 69.4428 72.5485C69.403 72.5344 69.3341 72.5223 69.3026 72.5223C68.9949 72.498 68.8268 72.7154 68.765 73.0103C68.7204 73.2149 68.765 73.3537 68.7709 73.5469C68.7709 73.8359 68.7204 74.1672 68.6587 74.4499C68.6254 74.5951 68.5915 74.6853 68.4911 74.7934C68.2559 75.0588 67.9708 74.9744 67.8252 75.3843C67.7581 75.5711 67.7076 75.8179 67.6126 75.9925C67.5959 76.0168 67.4949 76.1428 67.5175 76.1614C67.5229 76.1614 67.5733 76.1492 67.5674 76.1735C67.5621 76.1914 67.5454 76.2157 67.5341 76.2458C67.5229 76.2816 67.4724 76.4441 67.4724 76.4684C67.4724 76.4863 67.4836 76.4984 67.4836 76.5285C67.4783 76.5649 67.4225 76.6852 67.4557 76.6916L67.4836 76.6852C67.4949 76.7037 67.4332 76.9084 67.4225 76.9442C67.3999 77.0529 67.3886 77.1553 67.344 77.2576C67.3268 77.2876 67.249 77.3842 67.271 77.4143C67.3102 77.4386 67.3494 77.42 67.3833 77.4085C67.3999 77.4021 67.3999 77.39 67.3999 77.4085C67.2377 77.6132 67.1367 77.86 67.0025 78.0769C66.9858 78.1012 66.8961 78.2156 66.8961 78.2399C66.9074 78.2457 66.9579 78.2278 66.9466 78.2515C66.9407 78.27 66.8456 78.3423 66.8403 78.3544C66.8344 78.3723 66.8403 78.3781 66.8456 78.3902H66.8736C66.8908 78.4081 66.8682 78.4024 66.8629 78.4145C66.6781 78.6013 66.51 78.8603 66.3532 79.0714C66.3253 79.1129 66.2641 79.1673 66.2415 79.2038C66.2362 79.2159 66.2249 79.2274 66.2302 79.246L66.2641 79.2696V79.2882C66.2415 79.2818 66.2023 79.3304 66.2136 79.3419H66.3366C66.3811 79.3419 66.4767 79.3841 66.5266 79.3963C66.7001 79.4327 66.8344 79.4142 67.0025 79.4263C67.1367 79.4327 67.2597 79.4749 67.3833 79.4986C67.366 79.5408 67.344 79.583 67.3268 79.6252C67.3161 79.6553 67.271 79.8062 67.2769 79.8241C67.2989 79.8964 67.3833 79.7039 67.4225 79.7218C67.3886 79.7576 67.3048 80.0166 67.3048 80.0473C67.3102 80.0652 67.3328 80.0588 67.344 80.0473C67.372 80.0288 67.3999 79.9265 67.4444 79.9022C67.4391 79.9386 67.4165 79.9751 67.3999 80.0109C67.3886 80.0473 67.3833 80.0889 67.366 80.1254C67.3547 80.1554 67.2876 80.2341 67.372 80.2098C67.3999 80.2034 67.4225 80.1797 67.4444 80.1676C67.4504 80.1733 67.4225 80.2578 67.4165 80.2763C67.3999 80.3179 67.3607 80.3543 67.372 80.4023C67.271 80.4931 67.1367 80.5468 67.053 80.6613C67.0417 80.6735 66.9858 80.7643 66.9971 80.7822C67.0138 80.7822 67.0696 80.74 67.0696 80.7822C67.0138 80.7943 66.9579 80.8666 66.9241 80.9203C66.8516 81.0291 66.7952 81.1557 66.7114 81.258C66.6835 81.2823 66.5831 81.336 66.6609 81.3546L66.734 81.3603C66.5807 81.5311 66.5397 81.7767 66.4227 81.9737H61.9086C61.3395 81.9737 60.9979 81.2932 61.3092 80.7809L68.8992 68.2961C69.182 67.8311 69.8147 67.8311 70.0974 68.2961L77.6905 80.7803C78.0023 81.2932 77.6608 81.9737 77.0917 81.9737H72.1653Z" fill="#D9D9D9"/>
<path d="M56.1043 52.0395C56.1043 51.1892 56.7876 50.5 57.6304 50.5H81.3696C82.2124 50.5 82.8957 51.1892 82.8957 52.0395C82.8957 52.8897 82.2124 53.5789 81.3696 53.5789H57.6304C56.7876 53.5789 56.1043 52.8897 56.1043 52.0395Z" fill="#D9D9D9"/>
<path d="M56.1043 59.9079C56.1043 59.0577 56.7876 58.3684 57.6304 58.3684H69.5C70.3428 58.3684 71.0261 59.0577 71.0261 59.9079C71.0261 60.7581 70.3428 61.4474 69.5 61.4474H57.6304C56.7876 61.4474 56.1043 60.7581 56.1043 59.9079Z" fill="#D9D9D9"/>
<path d="M53.0522 89.5H85.9478V93.2632H56.7826C54.7223 93.2632 53.0522 91.5783 53.0522 89.5Z" fill="#D9D9D9"/>
<ellipse opacity="0.1" cx="64" cy="124.16" rx="64" ry="3.84" fill="#71717A"/>
<path fill-rule="evenodd" clip-rule="evenodd" d="M8.9599 28.1583C8.9599 19.6752 15.8368 12.7983 24.3199 12.7983C32.803 12.7983 39.6799 19.6752 39.6799 28.1583C39.6799 32.2604 38.0719 35.9869 35.4518 38.7419C35.2612 38.9167 35.0783 39.0996 34.9035 39.2902C32.1485 41.9102 28.422 43.5183 24.3199 43.5183C15.8368 43.5183 8.9599 36.6414 8.9599 28.1583ZM32.643 44.0323C30.156 45.3389 27.3243 46.0783 24.3199 46.0783C23.8895 46.0783 23.4627 46.0631 23.0399 46.0333V81.8817C23.0399 85.4163 25.9053 88.2817 29.4399 88.2817H32.5474V45.3458C32.5474 44.8996 32.58 44.461 32.643 44.0323ZM20.4799 45.6659C12.4282 43.908 6.3999 36.7371 6.3999 28.1583C6.3999 18.2613 14.423 10.2383 24.3199 10.2383C32.8988 10.2383 40.0696 16.2666 41.8275 24.3183H86.4913C91.4398 24.3183 95.4513 28.3298 95.4513 33.2783V36.3858H98.5588C103.507 36.3858 107.519 40.3973 107.519 45.3458V93.9492C107.519 98.8977 103.507 102.909 98.5588 102.909H41.5074C36.5589 102.909 32.5474 98.8977 32.5474 93.9492V90.8417H29.4399C24.4914 90.8417 20.4799 86.8302 20.4799 81.8817V45.6659ZM42.1949 26.8783C42.2247 27.3011 42.2399 27.7279 42.2399 28.1583C42.2399 31.1627 41.5006 33.9944 40.1939 36.4814C40.6226 36.4184 41.0612 36.3858 41.5074 36.3858H92.8913V33.2783C92.8913 29.7437 90.026 26.8783 86.4913 26.8783H42.1949ZM36.7386 41.0774C36.9086 40.9139 37.0755 40.747 37.239 40.5769C38.3715 39.5626 39.8674 38.9458 41.5074 38.9458H98.5588C102.093 38.9458 104.959 41.8112 104.959 45.3458V93.9492C104.959 97.4839 102.093 100.349 98.5588 100.349H41.5074C37.9728 100.349 35.1074 97.4839 35.1074 93.9492V45.3458C35.1074 43.7058 35.7242 42.2099 36.7386 41.0774ZM108.045 22.6983C109.908 22.6983 111.417 24.2081 111.417 26.0706C111.417 27.933 109.908 29.4428 108.045 29.4428H101.108C99.2453 29.4428 97.7355 27.933 97.7355 26.0706C97.7355 24.2081 99.2453 22.6983 101.108 22.6983H108.045ZM108.857 26.0706C108.857 25.6219 108.494 25.2583 108.045 25.2583H101.108C100.659 25.2583 100.295 25.6219 100.295 26.0706C100.295 26.5192 100.659 26.8828 101.108 26.8828H108.045C108.494 26.8828 108.857 26.5192 108.857 26.0706ZM15.3599 99.371C15.3599 101.233 16.8697 102.743 18.7322 102.743H25.6695C27.532 102.743 29.0418 101.233 29.0418 99.371C29.0418 97.5086 27.532 95.9987 25.6695 95.9987H18.7322C16.8697 95.9987 15.3599 97.5086 15.3599 99.371ZM18.7322 100.183C18.2836 100.183 17.9199 99.8196 17.9199 99.371C17.9199 98.9224 18.2836 98.5588 18.7322 98.5588L25.6695 98.5587C26.1181 98.5587 26.4818 98.9224 26.4818 99.371C26.4818 99.8196 26.1182 100.183 25.6695 100.183H18.7322ZM21.1199 19.8383C21.1199 18.071 22.5526 16.6383 24.3199 16.6383C26.0872 16.6383 27.5199 18.071 27.5199 19.8383V27.5183C27.5199 29.2856 26.0872 30.7183 24.3199 30.7183C22.5526 30.7183 21.1199 29.2856 21.1199 27.5183V19.8383ZM24.3199 19.1983C23.9664 19.1983 23.6799 19.4848 23.6799 19.8383V27.5183C23.6799 27.8717 23.9664 28.1583 24.3199 28.1583C24.6734 28.1583 24.9599 27.8717 24.9599 27.5183V19.8383C24.9599 19.4848 24.6734 19.1983 24.3199 19.1983ZM24.3199 39.6783C22.5526 39.6783 21.1199 38.2456 21.1199 36.4783C21.1199 34.711 22.5526 33.2783 24.3199 33.2783C26.0872 33.2783 27.5199 34.711 27.5199 36.4783C27.5199 38.2456 26.0872 39.6783 24.3199 39.6783ZM23.6799 36.4783C23.6799 36.8317 23.9664 37.1183 24.3199 37.1183C24.6734 37.1183 24.9599 36.8317 24.9599 36.4783C24.9599 36.1248 24.6734 35.8383 24.3199 35.8383C23.9664 35.8383 23.6799 36.1248 23.6799 36.4783Z" fill="#71717A"/>
</svg>
