<svg width="126" height="109" viewBox="0 0 126 109" fill="none" xmlns="http://www.w3.org/2000/svg">
<g clip-path="url(#clip0_31_408)">
<path fill-rule="evenodd" clip-rule="evenodd" d="M108.468 22.248C108.566 24.057 108.708 25.8312 108.894 27.5703C108.859 32.4834 108.576 37.3799 108.042 42.2598C107.74 42.6887 107.597 43.1854 107.616 43.75C107.256 46.1942 106.76 48.6069 106.126 50.9883C105.824 51.4173 105.681 51.9139 105.7 52.4785C105.149 53.7648 104.829 55.113 104.742 56.5234C108.085 61.8174 112.236 66.3945 117.196 70.2549C119.523 71.6663 121.935 72.9081 124.435 73.9805C122.978 75.4509 121.346 76.6571 119.538 77.5996C119.068 77.8434 118.569 78.0563 118.048 78.2383C118.674 78.4946 119.312 78.7075 119.964 78.877C121.184 79.2114 122.318 79.7083 123.37 80.3672C122.478 81.0825 121.554 81.7567 120.603 82.3896C114.978 85.3295 109.37 88.3099 103.784 91.3311C101.308 92.1907 98.8962 93.1487 96.5459 94.2051C96.1457 94.1474 95.8625 94.2894 95.6943 94.6309C92.0496 96.0634 88.4305 97.5536 84.8369 99.1016C84.3111 99.1558 83.8853 99.3687 83.5596 99.7402C81.0113 100.942 78.3842 101.935 75.6826 102.721C72.1273 103.545 68.5785 103.545 65.0381 102.721C64.6975 102.778 64.4143 102.707 64.1865 102.508C63.6011 102.2 62.9624 101.987 62.2705 101.869C61.5382 101.808 60.8292 101.666 60.1416 101.443C59.0537 101.071 57.9169 100.787 56.7354 100.592C55.1962 100.217 53.6357 99.9331 52.0518 99.7402C52.0283 99.6089 51.9581 99.5024 51.8389 99.4209C51.2747 99.3151 50.7084 99.2795 50.1357 99.3145C50.0655 99.3145 49.9931 99.3145 49.9229 99.3145C48.8882 99.082 47.8237 98.8691 46.7295 98.6758C45.8673 98.5796 45.0157 98.4376 44.1748 98.25C43.8108 97.9864 43.385 97.8444 42.8975 97.8242C41.0049 97.349 39.0888 96.8877 37.1494 96.4404C29.249 93.5379 21.4794 90.309 13.8379 86.7539C12.9882 86.6125 12.1722 86.3641 11.3896 86.0088C8.95588 84.6846 6.54319 83.3008 4.15137 81.8574C3.86758 81.7154 3.86758 81.5736 4.15137 81.4316C4.67806 81.2571 5.17473 81.0442 5.6416 80.793C5.96456 80.7906 6.213 80.6488 6.38672 80.3672C6.49912 80.087 6.39268 79.945 6.06738 79.9414C4.51264 79.1639 3.02241 78.277 1.59668 77.2803C1.014 76.6273 0.517111 75.9176 0.106445 75.1514C4.83304 73.4387 8.84263 70.6355 12.1348 66.7422C14.7288 63.6506 16.8931 60.2799 18.6279 56.6299C17.1496 54.0656 15.9432 51.4045 15.0088 48.6465C14.9613 47.8669 14.7484 47.1573 14.3701 46.5176C13.9258 44.8483 13.5709 43.1452 13.3057 41.4082C13.335 40.3621 13.1933 39.3685 12.8799 38.4277C12.8799 38.144 12.8799 37.86 12.8799 37.5762C12.7424 34.1007 12.6715 30.6234 12.667 27.1445C12.6996 25.7937 12.7705 24.4455 12.8799 23.0996C13.11 22.4339 13.2518 21.7243 13.3057 20.9707C13.8781 16.513 14.9781 12.1843 16.6055 7.98438C17.3387 6.18828 18.3322 4.55613 19.5859 3.08789C20.2493 2.45835 20.9944 1.96159 21.8213 1.59766C22.6256 1.82228 23.3352 2.21257 23.9502 2.76855C32.4871 10.5239 40.5046 18.7558 48.0068 27.4639C48.29 27.6059 48.5753 27.6059 48.8584 27.4639C51.8069 25.8668 54.8577 24.5185 58.0127 23.4189C61.5403 22.4305 65.0892 21.508 68.6572 20.6514C69.9814 20.2726 71.1885 19.6695 72.2764 18.8418C72.3466 18.9482 72.419 19.0547 72.4893 19.1611C72.1273 20.4966 71.7016 21.8093 71.2119 23.0996C71.0203 23.2505 70.9479 23.4634 70.999 23.7383C71.6377 23.7383 72.2764 23.7383 72.915 23.7383C73.1982 23.7383 73.4835 23.7383 73.7666 23.7383C74.3563 23.9846 74.995 24.1266 75.6826 24.1641C76.2148 24.2884 76.7471 24.4304 77.2793 24.5898C82.0289 18.3651 86.7827 12.1204 91.543 5.85547C93.0162 4.01588 94.6129 2.27729 96.333 0.639648C96.7481 0.292083 97.2101 0.0437037 97.7168 -0.105469C98.7749 0.318396 99.6967 0.957068 100.484 1.81055C104.851 7.92455 107.512 14.7371 108.468 22.248Z" fill="#0D0D0C"/>
<path fill-rule="evenodd" clip-rule="evenodd" d="M22.8857 4.57534C23.5244 5.71075 24.1631 6.84624 24.8018 7.98159C28.1931 14.3447 30.8904 21.0152 32.8916 27.9933C32.8213 28.2771 32.749 28.5611 32.6787 28.8449C31.659 27.8615 30.4519 27.5422 29.0596 27.8869C30.3369 28.8093 31.6143 29.732 32.8916 30.6544C33.9518 31.5339 34.8034 32.563 35.4463 33.7414C35.3718 34.2412 35.0886 34.5252 34.5947 34.5929C34.4755 34.3183 34.2626 34.1409 33.9561 34.0607C31.5121 33.2457 29.0638 32.4297 26.6113 31.6124C26.4346 31.648 26.2558 31.6833 26.0791 31.7189C26.2664 31.8696 26.4091 32.0472 26.5049 32.2511C27.8354 34.4196 28.7594 36.7614 29.2725 39.2765C29.7131 41.253 29.5364 43.169 28.7402 45.0246C28.6593 44.9062 28.5529 44.8353 28.4209 44.8117C25.8811 42.9712 23.3258 41.1261 20.7568 39.2765C20.6859 39.383 20.6148 39.4894 20.5439 39.5958C21.6955 42.2099 22.4761 44.9422 22.8857 47.7921C23.2323 48.9741 23.4456 50.1803 23.5244 51.4113C23.0561 50.29 22.6303 49.1546 22.2471 48.005C21.9516 46.4428 21.6322 44.8817 21.2891 43.3214C20.6244 41.6551 20.0922 39.952 19.6924 38.2121C22.8353 39.7498 25.7449 41.6658 28.4209 43.9601C28.6934 42.5344 28.6572 41.115 28.3145 39.7023C27.4671 36.7748 26.4368 33.9008 25.2275 31.0802C25.2978 30.9738 25.3702 30.8673 25.4404 30.7609C28.2697 31.2991 31.0373 32.0795 33.7432 33.1027C33.8134 33.0318 33.8858 32.9607 33.9561 32.8898C32.485 31.3125 30.8542 29.9287 29.0596 28.7384C28.4762 28.3369 28.1207 27.8047 27.9951 27.1417C29.0596 27.1417 30.124 27.1417 31.1885 27.1417C30.7222 25.2843 30.19 23.4391 29.5918 21.6066C27.746 16.4267 25.6171 11.3885 23.2051 6.49135C22.7437 5.99527 22.3889 5.42758 22.1406 4.78823C21.9669 4.50662 21.7185 4.3647 21.3955 4.36245C22.0293 3.72418 22.526 3.79514 22.8857 4.57534Z" fill="#131110"/>
<path fill-rule="evenodd" clip-rule="evenodd" d="M21.3956 4.36328C21.7185 4.36554 21.967 4.50745 22.1407 4.78906C22.3889 5.42842 22.7438 5.99611 23.2051 6.49219C25.6172 11.3893 27.7461 16.4276 29.5919 21.6074C30.1901 23.44 30.7223 25.2851 31.1885 27.1426C30.1241 27.1426 29.0596 27.1426 27.9952 27.1426C28.1208 27.8055 28.4763 28.3377 29.0596 28.7393C30.8543 29.9295 32.4851 31.3133 33.9561 32.8906C33.8859 32.9615 33.8135 33.0326 33.7432 33.1035C31.0374 32.0804 28.2698 31.2999 25.4405 30.7617C25.3702 30.8682 25.2979 30.9746 25.2276 31.0811C26.4368 33.9016 27.4672 36.7757 28.3145 39.7031C28.6573 41.1159 28.6935 42.5352 28.421 43.9609C25.7449 41.6666 22.8354 39.7506 19.6925 38.2129C20.0923 39.9528 20.6245 41.656 21.2891 43.3223C21.6323 44.8825 21.9516 46.4437 22.2471 48.0059C22.2101 48.5085 22.1392 49.0052 22.0343 49.4961C21.7219 49.3275 21.4382 49.3275 21.1827 49.4961C21.4254 49.832 21.5318 50.1867 21.502 50.5605C21.0765 50.1363 20.7571 49.6394 20.544 49.0703C20.3616 48.8734 20.1487 48.7314 19.9053 48.6445C19.6541 48.3222 19.4412 47.9673 19.2667 47.5801C19.0678 47.9196 19.0678 48.2743 19.2667 48.6445C19.302 49.5698 19.2665 50.4922 19.1602 51.4121C19.0893 51.3412 19.0182 51.2701 18.9473 51.1992C18.8882 51.3942 18.7817 51.536 18.628 51.625C16.6134 47.021 15.4072 42.1956 15.0089 37.1484C14.8379 33.1059 14.767 29.0609 14.796 25.0137C14.796 24.8717 14.796 24.7299 14.796 24.5879C15.1268 23.7221 15.2686 22.7996 15.2218 21.8203C15.8055 16.0037 17.4733 10.5395 20.2247 5.42773C20.5874 5.02891 20.9777 4.67408 21.3956 4.36328Z" fill="#8B8171"/>
<path fill-rule="evenodd" clip-rule="evenodd" d="M96.5457 6.49219C96.5649 7.05677 96.4222 7.55345 96.1199 7.98242C96.1008 7.41784 96.2434 6.92116 96.5457 6.49219Z" fill="#7E7468"/>
<path fill-rule="evenodd" clip-rule="evenodd" d="M24.8018 7.98438C25.1019 8.30179 25.4213 8.44379 25.7598 8.41016C29.1171 14.5429 33.0896 20.2909 37.6816 25.6543C39.7531 27.9403 42.1311 29.8208 44.8135 31.2959C45.0881 31.4002 45.3734 31.4358 45.665 31.4023C45.4607 31.5861 45.4607 31.7281 45.665 31.8281C49.0968 29.6153 52.716 27.7349 56.5225 26.1865C60.4609 25.0752 64.3994 23.9752 68.3379 22.8867C68.6806 22.9876 68.7147 23.1296 68.4443 23.3125C66.7029 24.3423 64.8593 25.1227 62.9092 25.6543C62.658 25.6077 62.4451 25.6786 62.2705 25.8672C65.8875 26.0445 69.5067 26.151 73.1279 26.1865C72.0252 26.2236 70.9607 26.33 69.9346 26.5059C68.1697 26.5836 66.4666 26.8673 64.8252 27.3574C64.4143 27.3002 64.0588 27.4066 63.7607 27.6768C67.3799 27.7832 70.999 27.8188 74.6182 27.7832C75.3505 27.7408 76.0594 27.8473 76.7471 28.1025C77.0387 28.3669 77.2516 28.6863 77.3857 29.0605C77.6391 29.2583 77.9222 29.3292 78.2373 29.2734C78.8696 29.1904 79.4359 29.3324 79.9404 29.6992C80.4301 29.5008 80.9261 29.3235 81.4307 29.167C83.2083 29.0923 84.9817 29.0923 86.7529 29.167C87.8855 28.5911 89.0926 28.3073 90.3721 28.3154C90.8191 28.1585 91.1725 27.9103 91.4365 27.5703C91.8431 27.6308 92.1987 27.5599 92.501 27.3574C93.1439 27.3223 93.7826 27.3578 94.417 27.4639C93.8486 27.8896 93.2823 28.3154 92.7139 28.7412C93.4654 28.7561 94.104 28.4723 94.6299 27.8896C95.0046 27.7198 95.3601 27.7553 95.6943 27.9961C94.5447 29.5992 93.7634 31.3734 93.3525 33.3184C93.6123 33.5555 93.8975 33.5911 94.2041 33.4248C95.1238 33.0124 96.0456 32.6222 96.9717 32.2539C96.2606 33.4254 95.3026 34.3479 94.0977 35.0215C93.6165 35.7091 93.1567 36.3831 92.7139 37.0439C92.7777 37.4459 92.8842 37.8363 93.0332 38.2148C94.1637 39.9776 95.1217 41.8227 95.9072 43.75C95.6709 46.6685 94.3936 49.0459 92.0752 50.8818C87.9515 52.9069 83.6937 54.61 79.3018 55.9912C77.439 56.3995 76.4107 55.6544 76.2148 53.7559C76.1616 52.3914 76.1254 51.0432 76.1084 49.7109C74.235 54.2455 75.1568 58.1129 78.876 61.3135C79.4103 61.6875 79.9788 62.0069 80.5791 62.2715C77.9563 62.2306 75.3313 62.3017 72.7021 62.4844C72.8639 62.3209 73.0768 62.2144 73.3408 62.165C72.4893 62.023 71.6377 62.023 70.7861 62.165C69.017 62.6 67.2436 63.0613 65.4639 63.5488C63.4904 64.0385 61.8596 65.0676 60.5674 66.6357C59.3624 67.4988 58.0148 67.9599 56.5225 68.0195C54.9747 67.5725 53.2716 67.2887 51.4131 67.168C52.8331 67.2033 54.253 67.168 55.6709 67.0615C56.1286 67.0404 56.4841 66.8629 56.7354 66.5293C57.853 66.3447 58.9175 66.0254 59.9287 65.5713C60.7547 64.2635 61.3934 62.8797 61.8447 61.4199C61.998 60.3357 62.2471 59.2712 62.5898 58.2266C64.3355 56.6243 65.7555 54.7792 66.8477 52.6914C67.1457 50.7794 66.6135 49.1472 65.251 47.7949C65.1807 47.8658 65.1083 47.9369 65.0381 48.0078C66.0089 49.4244 66.3282 50.9857 65.9961 52.6914C64.5506 54.8022 62.5984 55.4053 60.1416 54.501C53.8762 52.649 47.7727 50.3781 41.833 47.6885C40.7877 47.489 39.7573 47.2408 38.7461 46.9434C36.0786 48.2316 34.7672 50.3605 34.8076 53.3301C36.2979 53.2023 37.7881 53.0603 39.2783 52.9043C39.6338 52.9752 39.9872 53.0463 40.3428 53.1172C39.0037 59.6321 41.4179 64.0672 47.5811 66.4229C48.5646 66.669 49.5588 66.8465 50.5615 66.9551C50.5615 67.026 50.5615 67.0971 50.5615 67.168C50.2699 67.1345 49.9846 67.1701 49.71 67.2744C50.1357 67.3453 50.5615 67.4164 50.9873 67.4873C49.5162 67.7651 48.026 67.9425 46.5166 68.0195C44.8944 67.6204 43.2615 67.2655 41.6201 66.9551C36.532 66.3698 31.6717 67.2214 27.0371 69.5098C26.7433 69.3957 26.7433 69.1828 27.0371 68.8711C27.6588 68.4715 28.2612 68.0457 28.8467 67.5938C28.7402 67.5229 28.6338 67.4518 28.5273 67.3809C26.2643 68.7434 23.9566 70.0207 21.6084 71.2129C20.4882 71.9493 19.3528 72.6944 18.2021 73.4482C17.1317 73.3903 16.1026 73.6388 15.1152 74.1934C14.7486 74.1697 14.7133 74.0633 15.0088 73.874C14.807 73.7712 14.5941 73.7359 14.3701 73.7676C15.0558 73.2901 15.801 73.1483 16.6055 73.3418C17.9935 72.519 19.3773 71.7028 20.7568 70.8936C19.6343 71.4064 18.428 71.7611 17.1377 71.958C16.2359 72.6131 15.2423 72.968 14.1572 73.0225C17.5207 71.3745 20.3594 69.068 22.6729 66.1035C23.0654 65.5751 23.3492 65.0073 23.5244 64.4004C23.2743 64.447 23.0614 64.3761 22.8857 64.1875C23.1695 63.7617 23.4542 63.3359 23.7373 62.9102C23.4754 62.6781 23.2987 62.3941 23.2051 62.0586C22.7193 62.9566 22.0806 63.737 21.2891 64.4004C22.553 61.9008 23.9012 59.417 25.334 56.9492C26.7902 53.6066 27.8205 50.1295 28.4209 46.5176C28.4784 46.1772 28.406 45.8934 28.208 45.666C28.2783 45.3822 28.3506 45.0982 28.4209 44.8145C28.5529 44.8381 28.6593 44.909 28.7402 45.0273C29.5364 43.1718 29.7131 41.2558 29.2725 39.2793C29.5258 40.4489 29.7387 41.6554 29.9111 42.8984C30.1985 42.752 30.4114 42.5391 30.5498 42.2598C32.5701 40.0632 33.9199 37.5085 34.5947 34.5957C35.0886 34.528 35.3718 34.244 35.4463 33.7441C34.8034 32.5658 33.9518 31.5367 32.8916 30.6572C31.6143 29.7348 30.3369 28.8121 29.0596 27.8896C30.4519 27.545 31.659 27.8643 32.6787 28.8477C32.749 28.5639 32.8213 28.2799 32.8916 27.9961C30.8904 21.018 28.1931 14.3475 24.8018 7.98438Z" fill="#807B75"/>
<path fill-rule="evenodd" clip-rule="evenodd" d="M90.585 25.6543C90.3763 26.3196 90.3061 27.0291 90.3721 27.7832C88.7435 27.9812 87.1127 28.0167 85.4756 27.8896C87.117 26.2008 88.2155 24.2492 88.7754 22.0352C88.3113 22.5697 87.7791 23.0311 87.1787 23.4189C86.0185 23.9001 84.954 24.5387 83.9854 25.335C83.8087 25.4814 83.666 25.4459 83.5596 25.2285C86.6784 19.9135 89.5162 14.4494 92.0752 8.83594C93.5399 6.76472 95.1366 4.7778 96.8652 2.875C94.1679 10.2689 92.0752 17.8621 90.585 25.6543Z" fill="#807B73"/>
<path fill-rule="evenodd" clip-rule="evenodd" d="M104.423 13.9453C105.034 15.4341 105.46 16.9954 105.7 18.6289C105.506 18.3055 105.33 17.9508 105.168 17.5645C105.098 17.6353 105.025 17.7065 104.955 17.7773C104.944 16.4866 104.766 15.2092 104.423 13.9453Z" fill="#C1BAB1"/>
<path fill-rule="evenodd" clip-rule="evenodd" d="M97.8232 2.4467C97.9808 2.41882 98.1234 2.4543 98.249 2.55315C101.119 5.9142 103.175 9.71075 104.423 13.9428C104.766 15.2067 104.944 16.4841 104.955 17.7748C105.025 17.7039 105.098 17.6328 105.168 17.5619C105.33 17.9483 105.506 18.303 105.7 18.6264C106.273 21.0018 106.626 23.4145 106.765 25.8647C106.852 28.3617 106.745 30.8455 106.445 33.3158C106.541 22.7571 103.846 13.035 98.3555 4.14983C98.017 3.63323 97.8403 3.06551 97.8232 2.4467Z" fill="#EEE5D7"/>
<path fill-rule="evenodd" clip-rule="evenodd" d="M97.8236 2.44922C97.8406 3.06803 98.0173 3.63574 98.3558 4.15234C103.846 13.0375 106.541 22.7596 106.446 33.3184C106.746 30.848 106.852 28.3642 106.765 25.8672C107.012 28.5979 107.048 31.3655 106.871 34.1699C106.584 35.711 106.335 37.2724 106.126 38.8535C105.613 39.6866 105.258 40.6092 105.062 41.6211C104.112 44.4506 103.012 47.2182 101.762 49.9238C101.553 50.1951 101.377 50.1951 101.23 49.9238C101.126 49.4301 100.913 49.0044 100.591 48.6465C100.591 48.5045 100.591 48.3627 100.591 48.2207C100.689 47.1233 100.938 46.0588 101.336 45.0273C101.443 43.823 101.479 42.6166 101.443 41.4082C101.443 41.1244 101.443 40.8404 101.443 40.5566C101.724 38.3198 101.724 36.0489 101.443 33.7441C101.313 33.7705 101.243 33.8414 101.23 33.957C100.053 35.1026 99.0222 36.3799 98.1429 37.7891C98.8774 35.5512 99.5501 33.2803 100.165 30.9766C99.9525 30.9766 99.7396 30.9766 99.5267 30.9766C98.7199 30.9382 98.0109 31.1511 97.3978 31.6152C96.3504 31.9171 95.3562 32.3429 94.4174 32.8926C94.3471 32.7506 94.2747 32.6088 94.2045 32.4668C94.7857 30.5242 95.6372 28.7502 96.7592 27.1445C96.8741 27.1318 96.9465 27.0609 96.972 26.9316C96.2269 26.8607 95.4818 26.7896 94.7367 26.7188C93.6744 26.6757 92.6461 26.8177 91.6498 27.1445C91.4603 26.9689 91.39 26.756 91.4369 26.5059C91.6434 24.9741 91.9287 23.4839 92.2884 22.0352C92.5908 21.6062 92.7334 21.1095 92.7142 20.5449C93.553 16.2665 94.6877 12.0798 96.1205 7.98438C96.4228 7.5554 96.5654 7.05873 96.5463 6.49414C96.8784 5.08581 97.3042 3.73751 97.8236 2.44922Z" fill="#D6C5AD"/>
<path fill-rule="evenodd" clip-rule="evenodd" d="M92.7137 20.543C92.7328 21.1076 92.5902 21.6042 92.2879 22.0332C92.2687 21.4686 92.4114 20.9719 92.7137 20.543Z" fill="#73675B"/>
<path fill-rule="evenodd" clip-rule="evenodd" d="M13.3055 20.9688C13.2517 21.7224 13.1099 22.4319 12.8798 23.0977C12.8072 22.3185 12.949 21.6089 13.3055 20.9688Z" fill="#9C9996"/>
<path fill-rule="evenodd" clip-rule="evenodd" d="M71.2121 23.0977C71.7145 23.4379 72.2808 23.6507 72.9152 23.7363C72.2765 23.7363 71.6378 23.7363 70.9992 23.7363C70.9481 23.4615 71.0205 23.2486 71.2121 23.0977Z" fill="#AAA9A4"/>
<path fill-rule="evenodd" clip-rule="evenodd" d="M82.7077 21.1811C82.8653 21.1532 83.0079 21.1887 83.1335 21.2875C82.0946 23.0483 80.9237 24.7159 79.6208 26.2904C79.5229 26.164 79.4867 26.022 79.5144 25.8647C80.5788 24.3035 81.6433 22.7422 82.7077 21.1811Z" fill="#817970"/>
<path fill-rule="evenodd" clip-rule="evenodd" d="M73.7666 23.7376C74.3393 23.7027 74.9056 23.7382 75.4697 23.844C75.5889 23.9256 75.6592 24.032 75.6826 24.1634C74.995 24.1259 74.3563 23.9839 73.7666 23.7376Z" fill="#A8A9A5"/>
<path fill-rule="evenodd" clip-rule="evenodd" d="M108.468 22.2461C108.638 22.5552 108.745 22.9099 108.787 23.3105C108.894 24.728 108.93 26.1473 108.894 27.5684C108.708 25.8293 108.566 24.055 108.468 22.2461Z" fill="#C5C2BE"/>
<path fill-rule="evenodd" clip-rule="evenodd" d="M15.2216 21.8203C15.2684 22.7996 15.1267 23.7221 14.7958 24.5879C14.749 23.6086 14.8908 22.6861 15.2216 21.8203Z" fill="#514B41"/>
<path fill-rule="evenodd" clip-rule="evenodd" d="M62.9092 25.6545C66.4197 25.8316 69.9686 25.9381 73.5537 25.9738C73.9965 26.0147 74.4223 26.1212 74.8311 26.2932C73.2046 26.5054 71.5738 26.5765 69.9346 26.5061C70.9607 26.3302 72.0252 26.2238 73.1279 26.1867C69.5067 26.1512 65.8875 26.0447 62.2705 25.8674C62.4451 25.6788 62.658 25.6079 62.9092 25.6545Z" fill="#575450"/>
<path fill-rule="evenodd" clip-rule="evenodd" d="M92.0752 8.83594C89.5162 14.4494 86.6784 19.9135 83.5596 25.2285C83.666 25.4459 83.8087 25.4814 83.9854 25.335C84.954 24.5387 86.0185 23.9001 87.1787 23.4189C87.7791 23.0311 88.3113 22.5697 88.7754 22.0352C88.2155 24.2492 87.117 26.2008 85.4756 27.8896C87.1127 28.0167 88.7435 27.9812 90.3721 27.7832C90.3061 27.0291 90.3763 26.3196 90.585 25.6543C90.585 26.3639 90.585 27.0736 90.585 27.7832C90.8596 27.8337 91.0725 27.7628 91.2236 27.5703C91.2939 27.5703 91.3663 27.5703 91.4365 27.5703C91.1725 27.9103 90.8191 28.1585 90.3721 28.3154C89.0926 28.3073 87.8855 28.5911 86.7529 29.167C84.9817 29.0923 83.2083 29.0923 81.4307 29.167C80.9261 29.3235 80.4301 29.5008 79.9404 29.6992C79.4359 29.3324 78.8696 29.1904 78.2373 29.2734C78.7121 28.7003 78.7844 28.0617 78.4502 27.3574C78.7355 26.7924 79.0889 26.2957 79.5146 25.8672C79.487 26.0245 79.5232 26.1665 79.6211 26.293C80.924 24.7184 82.0949 23.0509 83.1338 21.29C83.0082 21.1913 82.8655 21.1557 82.708 21.1836C85.7545 17.0022 88.8776 12.8864 92.0752 8.83594Z" fill="#5D5852"/>
<path fill-rule="evenodd" clip-rule="evenodd" d="M22.8857 4.57812C26.6965 7.85643 30.3518 11.3336 33.8496 15.0098C37.6859 19.3425 41.5882 23.6003 45.5586 27.7832C46.1696 28.4757 46.7018 29.2209 47.1553 30.0186C46.7401 30.5787 46.242 31.04 45.665 31.4023C45.3734 31.4358 45.0881 31.4002 44.8135 31.2959C42.1311 29.8208 39.7531 27.9403 37.6816 25.6543C33.0896 20.2909 29.1171 14.5429 25.7598 8.41016C25.4213 8.44379 25.1019 8.30179 24.8018 7.98438C24.1631 6.84903 23.5244 5.71353 22.8857 4.57812Z" fill="#918C84"/>
<path fill-rule="evenodd" clip-rule="evenodd" d="M91.4365 26.5039C91.3896 26.7541 91.4599 26.9669 91.6493 27.1426C92.6457 26.8158 93.6739 26.6738 94.7363 26.7168C95.4814 26.7877 96.2265 26.8588 96.9716 26.9297C96.9461 27.0589 96.8737 27.1298 96.7587 27.1426C95.2174 26.8437 93.6569 26.8792 92.0751 27.249C92.2007 27.3478 92.3434 27.3834 92.5009 27.3555C92.1986 27.5579 91.8431 27.6288 91.4365 27.5684C91.3662 27.5684 91.2938 27.5684 91.2236 27.5684C91.164 27.1607 91.2342 26.806 91.4365 26.5039Z" fill="#46413A"/>
<path fill-rule="evenodd" clip-rule="evenodd" d="M64.8252 27.3568C68.0888 27.4988 71.3546 27.6406 74.6182 27.7826C70.999 27.8182 67.3799 27.7826 63.7607 27.6762C64.0588 27.406 64.4143 27.2996 64.8252 27.3568Z" fill="#494642"/>
<path fill-rule="evenodd" clip-rule="evenodd" d="M14.7955 25.0156C14.7665 29.0629 14.8374 33.1078 15.0084 37.1504C14.6835 34.8175 14.5415 32.4402 14.5826 30.0186C14.5826 28.3139 14.6537 26.6462 14.7955 25.0156Z" fill="#6A6158"/>
<path fill-rule="evenodd" clip-rule="evenodd" d="M12.6669 27.1445C12.6713 30.6234 12.7422 34.1007 12.8798 37.5762C12.4521 34.1044 12.381 30.627 12.6669 27.1445Z" fill="#6B6A66"/>
<path fill-rule="evenodd" clip-rule="evenodd" d="M99.5264 30.977C99.5775 31.2519 99.5051 31.4648 99.3135 31.6157C98.826 31.4397 98.3278 31.5105 97.8232 31.8286C97.7509 31.6502 97.6082 31.5791 97.3975 31.6157C98.0106 31.1516 98.7195 30.9387 99.5264 30.977Z" fill="#645C51"/>
<path fill-rule="evenodd" clip-rule="evenodd" d="M96.7588 27.1437C95.6369 28.7493 94.7853 30.5234 94.2041 32.466C94.2744 32.608 94.3467 32.7498 94.417 32.8918C95.3558 32.3421 96.35 31.9163 97.3975 31.6144C97.6082 31.5778 97.7509 31.6489 97.8232 31.8273C97.4911 31.8769 97.2059 32.0189 96.9717 32.2531C96.0456 32.6214 95.1238 33.0116 94.2041 33.424C93.8975 33.5903 93.6123 33.5547 93.3525 33.3176C93.7634 31.3726 94.5447 29.5984 95.6943 27.9953C95.3601 27.7545 95.0046 27.719 94.6299 27.8888C94.104 28.4715 93.4654 28.7553 92.7139 28.7404C93.2823 28.3146 93.8486 27.8888 94.417 27.4631C93.7826 27.357 93.1439 27.3215 92.501 27.3566C92.3434 27.3845 92.2008 27.3489 92.0752 27.2502C93.657 26.8804 95.2175 26.8448 96.7588 27.1437Z" fill="#1D1B19"/>
<path fill-rule="evenodd" clip-rule="evenodd" d="M99.3135 31.6156C98.5194 33.2992 98.0234 35.0732 97.8232 36.9379C97.6551 37.174 97.5486 37.4578 97.5039 37.7894C97.3975 38.9938 97.3613 40.2002 97.3975 41.4086C97.3975 41.6215 97.3975 41.8344 97.3975 42.0473C97.3975 42.331 97.3975 42.615 97.3975 42.8988C97.6104 44.4161 97.3272 44.629 96.5459 43.5375C96.35 43.671 96.1371 43.7421 95.9072 43.7504C95.1217 41.8231 94.1637 39.978 93.0332 38.2152C92.8842 37.8367 92.7777 37.4463 92.7139 37.0443C93.1567 36.3835 93.6165 35.7095 94.0977 35.0219C95.3026 34.3483 96.2606 33.4258 96.9717 32.2543C97.2059 32.0201 97.4911 31.8781 97.8232 31.8285C98.3278 31.5104 98.826 31.4396 99.3135 31.6156Z" fill="#D1C1AA"/>
<path fill-rule="evenodd" clip-rule="evenodd" d="M26.5049 32.2539C29.3832 32.6712 30.9096 34.3034 31.082 37.1504C31.3758 36.6959 31.5887 36.1992 31.7207 35.6602C31.791 35.731 31.8633 35.8022 31.9336 35.873C31.7995 36.7089 31.6568 37.5604 31.5078 38.4277C30.6626 39.6161 30.3433 40.8934 30.5498 42.2598C30.4114 42.5391 30.1985 42.752 29.9111 42.8984C29.7387 41.6554 29.5258 40.4489 29.2725 39.2793C28.7594 36.7642 27.8354 34.4224 26.5049 32.2539Z" fill="#8D8374"/>
<path fill-rule="evenodd" clip-rule="evenodd" d="M34.5947 34.5938C33.9199 37.5065 32.5701 40.0612 30.5498 42.2578C30.3433 40.8915 30.6626 39.6141 31.5078 38.4258C31.6568 37.5585 31.7995 36.7069 31.9336 35.8711C31.8633 35.8002 31.791 35.7291 31.7207 35.6582C31.5887 36.1972 31.3758 36.6939 31.082 37.1484C30.9096 34.3015 29.3832 32.6692 26.5049 32.252C26.4091 32.048 26.2664 31.8705 26.0791 31.7197C26.2558 31.6842 26.4346 31.6488 26.6113 31.6133C29.0638 32.4306 31.5121 33.2466 33.9561 34.0615C34.2626 34.1418 34.4755 34.3191 34.5947 34.5938Z" fill="#CDBEA9"/>
<path fill-rule="evenodd" clip-rule="evenodd" d="M100.591 35.4453C100.802 36.9671 100.872 38.5282 100.804 40.1289C100.804 40.6967 100.804 41.2643 100.804 41.832C100.627 43.1419 100.521 44.4904 100.484 45.877C100.474 46.3547 100.297 46.7096 99.9521 46.9414C99.669 46.019 99.3837 45.0965 99.1006 44.1738C99.0729 43.9873 99.1432 43.8453 99.3135 43.748C100.086 44.0195 100.159 43.8777 99.5264 43.3223C98.9579 42.6836 98.3917 42.0449 97.8232 41.4062C98.017 40.2381 98.3001 39.1028 98.6748 38C99.1559 37.0228 99.7946 36.1713 100.591 35.4453Z" fill="#D2C2AB"/>
<path fill-rule="evenodd" clip-rule="evenodd" d="M101.229 33.9551C101.242 33.8395 101.313 33.7686 101.442 33.7422C101.723 36.0469 101.723 38.3178 101.442 40.5547C101.513 38.3164 101.44 36.1166 101.229 33.9551Z" fill="#695F56"/>
<path fill-rule="evenodd" clip-rule="evenodd" d="M100.591 35.4473C100.604 35.3317 100.674 35.2608 100.804 35.2344C101.085 36.8998 101.085 38.5321 100.804 40.1309C100.872 38.5301 100.802 36.969 100.591 35.4473Z" fill="#867C70"/>
<path fill-rule="evenodd" clip-rule="evenodd" d="M97.8232 36.9375C97.7955 37.659 97.7593 38.3688 97.7167 39.0664C97.9403 38.6155 98.2596 38.2608 98.6747 38.002C98.3001 39.1047 98.0169 40.2401 97.8232 41.4082C97.6805 41.4082 97.54 41.4082 97.3974 41.4082C97.3612 40.1998 97.3974 38.9934 97.5038 37.7891C97.5485 37.4574 97.655 37.1736 97.8232 36.9375Z" fill="#7F7568"/>
<path fill-rule="evenodd" clip-rule="evenodd" d="M99.5264 30.9766C99.7393 30.9766 99.9521 30.9766 100.165 30.9766C99.5498 33.2803 98.8771 35.5512 98.1426 37.7891C99.0218 36.3799 100.052 35.1026 101.229 33.957C101.44 36.1185 101.513 38.3183 101.442 40.5566C101.442 40.8404 101.442 41.1244 101.442 41.4082C101.3 42.4505 101.123 43.515 100.91 44.6016C100.804 43.6817 100.768 42.7592 100.804 41.834C100.804 41.2662 100.804 40.6986 100.804 40.1309C101.085 38.5321 101.085 36.8998 100.804 35.2344C100.674 35.2608 100.604 35.3317 100.591 35.4473C99.7946 36.1732 99.1559 37.0248 98.6748 38.002C98.2597 38.2608 97.9403 38.6155 97.7168 39.0664C97.7594 38.3688 97.7956 37.659 97.8232 36.9375C98.0234 35.0728 98.5194 33.2988 99.3135 31.6152C99.5051 31.4643 99.5775 31.2514 99.5264 30.9766Z" fill="#1C1A17"/>
<path fill-rule="evenodd" clip-rule="evenodd" d="M12.88 38.4258C13.1934 39.3665 13.3352 40.3601 13.3058 41.4062C12.9924 40.4655 12.8506 39.4719 12.88 38.4258Z" fill="#A3A09C"/>
<path fill-rule="evenodd" clip-rule="evenodd" d="M28.4209 44.8125C28.3506 45.0963 28.2783 45.3803 28.208 45.6641C27.7035 46.4588 27.2777 47.3103 26.9307 48.2188C26.7582 47.7651 26.6518 47.2684 26.6113 46.7285C26.3963 46.5503 26.1472 46.4794 25.8662 46.5156C25.9322 47.0317 25.8598 47.5283 25.6533 48.0059C25.4873 47.7425 25.2744 47.5296 25.0146 47.3672C24.6463 47.8677 24.5037 48.4355 24.5889 49.0703C24.046 49.0573 23.7267 48.7735 23.6309 48.2188C23.5436 48.316 23.4371 48.3871 23.3115 48.4316C23.1676 48.197 23.0258 47.9841 22.8857 47.793C22.4761 44.943 21.6955 42.2108 20.5439 39.5967C20.6148 39.4902 20.6859 39.3838 20.7568 39.2773C23.3258 41.1269 25.8811 42.9721 28.4209 44.8125Z" fill="#898071"/>
<path fill-rule="evenodd" clip-rule="evenodd" d="M106.126 38.8516C106.394 39.3712 106.394 39.8679 106.126 40.3418C105.881 40.827 105.668 41.3236 105.487 41.832C105.506 41.3641 105.364 41.2932 105.062 41.6191C105.257 40.6073 105.613 39.6846 106.126 38.8516Z" fill="#463F38"/>
<path fill-rule="evenodd" clip-rule="evenodd" d="M97.3975 41.4062C97.5401 41.4062 97.6806 41.4062 97.8232 41.4062C98.3917 42.0449 98.9579 42.6836 99.5264 43.3223C99.4412 43.5405 99.3007 43.576 99.1006 43.4287C98.6216 42.8416 98.0532 42.3802 97.3975 42.0449C97.3975 41.832 97.3975 41.6191 97.3975 41.4062Z" fill="#1B1A17"/>
<path fill-rule="evenodd" clip-rule="evenodd" d="M108.042 42.2578C108.061 42.8224 107.918 43.3191 107.616 43.748C107.597 43.1835 107.739 42.6868 108.042 42.2578Z" fill="#85837F"/>
<path fill-rule="evenodd" clip-rule="evenodd" d="M97.3975 42.0469C98.0532 42.3822 98.6216 42.8435 99.1006 43.4307C99.3007 43.578 99.4412 43.5424 99.5264 43.3242C100.159 43.8797 100.086 44.0214 99.3135 43.75C99.1432 43.8473 99.0729 43.9893 99.1006 44.1758C98.8153 44.0023 98.6024 43.7538 98.4619 43.4307C98.2852 43.2842 98.1426 43.3197 98.0361 43.5371C98.2937 44.3082 98.5066 45.0889 98.6748 45.8789C98.6897 45.9722 98.6535 46.0433 98.5684 46.0918C98.3746 45.9155 98.232 45.7026 98.1426 45.4531C98.0574 45.5017 98.0212 45.5728 98.0361 45.666C97.8616 44.8545 97.7551 44.0029 97.7168 43.1113C97.6359 42.993 97.5295 42.9221 97.3975 42.8984C97.3975 42.6147 97.3975 42.3307 97.3975 42.0469Z" fill="#645D54"/>
<path fill-rule="evenodd" clip-rule="evenodd" d="M105.487 41.8316C104.589 45.1201 103.276 48.2424 101.549 51.1988C101.368 50.9708 101.189 50.7579 101.017 50.5601C100.966 50.2853 101.038 50.0724 101.23 49.9215C101.377 50.1927 101.553 50.1927 101.762 49.9215C103.012 47.2158 104.112 44.4483 105.062 41.6187C105.364 41.2928 105.507 41.3637 105.487 41.8316Z" fill="#1B1917"/>
<path fill-rule="evenodd" clip-rule="evenodd" d="M101.442 41.4062C101.479 42.6146 101.442 43.8211 101.336 45.0254C100.938 46.0568 100.689 47.1213 100.591 48.2188C100.38 47.8087 100.167 47.3829 99.9521 46.9414C100.297 46.7096 100.474 46.3547 100.484 45.877C100.521 44.4904 100.627 43.1419 100.804 41.832C100.768 42.7573 100.804 43.6797 100.91 44.5996C101.123 43.513 101.3 42.4486 101.442 41.4062Z" fill="#A59685"/>
<path fill-rule="evenodd" clip-rule="evenodd" d="M99.1006 44.1731C99.3837 45.0958 99.669 46.0182 99.9521 46.9407C100.167 47.3822 100.38 47.808 100.591 48.218C100.591 48.36 100.591 48.5018 100.591 48.6438C100.618 48.8012 100.582 48.9432 100.484 49.0696C100.342 48.7858 100.201 48.7858 100.059 49.0696C99.3667 48.0888 98.9047 47.0244 98.6748 45.8763C98.5066 45.0862 98.2937 44.3055 98.0361 43.5345C98.1426 43.3171 98.2852 43.2815 98.4619 43.428C98.6024 43.7512 98.8153 43.9996 99.1006 44.1731Z" fill="#151512"/>
<path fill-rule="evenodd" clip-rule="evenodd" d="M97.3975 42.8984C97.5295 42.9221 97.6359 42.993 97.7168 43.1113C97.7551 44.0029 97.8616 44.8545 98.0361 45.666C98.0723 46.1687 98.1447 46.6653 98.249 47.1562C98.0957 47.2165 97.919 47.2874 97.7168 47.3691C97.6721 46.7043 97.5316 46.0656 97.291 45.4531C97.1377 45.6556 96.961 45.6909 96.7588 45.5596C96.6417 45.1598 96.4288 44.8404 96.1201 44.6016C96.0499 44.3178 95.9775 44.0338 95.9072 43.75C96.1371 43.7417 96.35 43.6706 96.5459 43.5371C97.3272 44.6286 97.6104 44.4157 97.3975 42.8984Z" fill="#908A7E"/>
<path fill-rule="evenodd" clip-rule="evenodd" d="M14.3701 46.5156C14.7484 47.1554 14.9613 47.8649 15.0088 48.6445C14.6305 48.0048 14.4176 47.2952 14.3701 46.5156Z" fill="#93928E"/>
<path fill-rule="evenodd" clip-rule="evenodd" d="M61.8449 61.418C61.6661 61.3452 61.5958 61.2034 61.632 60.9922C61.6682 59.9961 61.632 59.0027 61.5256 58.0117C61.3105 57.8335 61.0615 57.7626 60.7804 57.7988C60.7804 58.5795 60.7804 59.36 60.7804 60.1406C60.1141 63.3593 58.1278 64.9204 54.8195 64.8242C54.5364 64.6822 54.2511 64.5404 53.9679 64.3984C53.8679 64.0991 53.655 63.9571 53.3293 63.9727C52.1541 63.0421 51.409 61.8357 51.0939 60.3535C50.9875 59.0781 50.9513 57.8007 50.9875 56.5215C51.3664 56.2043 51.5091 55.7785 51.4133 55.2441C49.3802 54.8871 47.3939 54.3549 45.4523 53.6475C44.4539 53.4469 43.4597 53.3049 42.4719 53.2217C41.5032 55.0251 41.2179 56.9055 41.6203 58.8633C42.3484 62.8567 44.6902 65.1985 48.6457 65.8887C48.882 66.0569 49.1651 66.1633 49.4972 66.208C51.7667 66.3145 54.0382 66.35 56.3097 66.3145C56.5205 66.2778 56.6631 66.3489 56.7355 66.5273C54.7046 66.9152 52.6459 67.0572 50.5617 66.9531C49.559 66.8445 48.5648 66.667 47.5812 66.4209C41.418 64.0653 39.0039 59.6301 40.3429 53.1152C39.9874 53.0443 39.634 52.9732 39.2785 52.9023C37.7883 53.0584 36.298 53.2004 34.8078 53.3281C34.7673 50.3585 36.0787 48.2296 38.7463 46.9414C39.7575 47.2388 40.7879 47.487 41.8332 47.6865C47.7728 50.3762 53.8764 52.6471 60.1418 54.499C62.5985 55.4034 64.5507 54.8003 65.9963 52.6895C66.3284 50.9838 66.009 49.4224 65.0383 48.0059C65.1085 47.935 65.1809 47.8639 65.2512 47.793C66.6137 49.1452 67.1459 50.7775 66.8478 52.6895C65.7557 54.7773 64.3357 56.6224 62.59 58.2246C62.2473 59.2693 61.9982 60.3337 61.8449 61.418Z" fill="#0C0B0A"/>
<path fill-rule="evenodd" clip-rule="evenodd" d="M28.2078 45.6641C28.4058 45.8914 28.4782 46.1752 28.4207 46.5156C27.2562 48.5602 26.0853 50.6182 24.908 52.6895C24.8377 52.7603 24.7654 52.8315 24.6951 52.9023C24.5525 52.6895 24.5525 52.4766 24.6951 52.2637C25.5531 50.9723 26.2982 49.624 26.9305 48.2188C27.2775 47.3103 27.7033 46.4588 28.2078 45.6641Z" fill="#312D27"/>
<path fill-rule="evenodd" clip-rule="evenodd" d="M22.2468 48.0078C22.6301 49.1574 23.0558 50.2928 23.5242 51.4141C23.5583 51.8456 23.5242 52.2714 23.4177 52.6914C22.4821 51.8156 22.021 50.7511 22.034 49.498C22.1389 49.0071 22.2098 48.5104 22.2468 48.0078Z" fill="#3C3833"/>
<path fill-rule="evenodd" clip-rule="evenodd" d="M69.2955 50.3477C69.5723 50.7515 69.7149 51.2484 69.7213 51.8379C69.7447 52.4476 69.6383 53.0152 69.402 53.541C69.2955 52.4789 69.2593 51.4145 69.2955 50.3477Z" fill="#554F4A"/>
<path fill-rule="evenodd" clip-rule="evenodd" d="M19.9055 48.6465C20.0994 49.6041 20.4188 50.5267 20.8635 51.4141C21.0055 51.769 21.0055 52.1236 20.8635 52.4785C20.1816 51.245 19.6494 49.9677 19.2668 48.6465C19.068 48.2763 19.068 47.9216 19.2668 47.582C19.4414 47.9693 19.6543 48.3242 19.9055 48.6465Z" fill="#181714"/>
<path fill-rule="evenodd" clip-rule="evenodd" d="M106.126 50.9883C106.145 51.5529 106.003 52.0495 105.7 52.4785C105.681 51.9139 105.824 51.4173 106.126 50.9883Z" fill="#9D9995"/>
<path fill-rule="evenodd" clip-rule="evenodd" d="M50.9872 56.5225C50.9872 56.3096 50.9872 56.0967 50.9872 55.8838C47.9472 55.4774 44.8964 55.1934 41.8329 55.0322C41.7116 56.3062 41.6392 57.5835 41.62 58.8643C41.2177 56.9065 41.503 55.0261 42.4716 53.2227C43.4594 53.3059 44.4536 53.4479 45.4521 53.6484C47.3936 54.3559 49.3799 54.8881 51.413 55.2451C51.5088 55.7795 51.3662 56.2053 50.9872 56.5225Z" fill="#A6A6A6"/>
<path fill-rule="evenodd" clip-rule="evenodd" d="M50.9873 56.5215C50.9511 57.8007 50.9873 59.0781 51.0938 60.3535C51.4088 61.8357 52.1539 63.0421 53.3291 63.9727C53.4292 64.272 53.6421 64.414 53.9678 64.3984C54.2509 64.5404 54.5362 64.6822 54.8193 64.8242C55.5602 64.9994 56.3394 65.1059 57.1611 65.1436C56.7354 65.2144 56.3096 65.2856 55.8838 65.3564C56.2585 65.3994 56.6119 65.5059 56.9482 65.6758C56.7141 65.8197 56.5012 65.9615 56.3096 66.1016C53.7506 66.1318 51.1959 66.0609 48.6455 65.8887C44.69 65.1985 42.3482 62.8567 41.6201 58.8633C41.6393 57.5825 41.7117 56.3052 41.833 55.0312C44.8965 55.1924 47.9472 55.4764 50.9873 55.8828C50.9873 56.0957 50.9873 56.3086 50.9873 56.5215Z" fill="#F9FAFA"/>
<path fill-rule="evenodd" clip-rule="evenodd" d="M99.7393 52.0521C102.211 56.6573 105.121 60.9862 108.468 65.0384C108.325 65.0384 108.255 65.1093 108.255 65.2513C107.676 64.7399 107.144 64.1723 106.658 63.5481C104.238 60.2775 101.823 57.0133 99.4199 53.7552C99.1134 53.2123 98.8643 52.6447 98.6748 52.0521C99.0027 51.5347 99.3561 51.5347 99.7393 52.0521Z" fill="#938E87"/>
<path fill-rule="evenodd" clip-rule="evenodd" d="M59.9293 59.7157C59.6036 59.7002 59.3907 59.8422 59.2906 60.1415C59.0543 60.1536 58.8414 60.2245 58.6519 60.3544C57.1702 60.4849 56.4953 59.8462 56.6295 58.4384C57.5236 57.5412 58.5519 57.3637 59.7164 57.9061C59.9931 58.0773 60.1358 58.3257 60.1422 58.6513C60.0251 58.9993 59.9548 59.354 59.9293 59.7157Z" fill="#EEECEC"/>
<path fill-rule="evenodd" clip-rule="evenodd" d="M106.126 40.3438C105.455 45.3629 104.284 50.2593 102.613 55.0332C102.368 55.2372 102.156 55.1663 101.975 54.8203C101.229 53.3305 100.378 51.9112 99.4199 50.5625C99.3837 50.7045 99.3497 50.8463 99.3135 50.9883C99.4604 51.3453 99.6009 51.7002 99.7393 52.0527C99.3561 51.5354 99.0027 51.5354 98.6748 52.0527C98.8643 52.6454 99.1134 53.213 99.4199 53.7559C101.823 57.0139 104.238 60.2782 106.658 63.5488C107.144 64.173 107.676 64.7406 108.255 65.252C108.93 66.4614 109.711 67.5967 110.597 68.6582C108.355 67.8807 106.013 67.1356 103.571 66.4229C102.081 66.352 100.591 66.3873 99.1006 66.5293C96.0839 66.3115 93.0332 66.3115 89.9463 66.5293C89.9463 66.7422 89.9463 66.9551 89.9463 67.168C89.2565 67.1494 88.6179 67.2914 88.0303 67.5938C87.3064 67.0668 86.5251 66.854 85.6885 66.9551C85.697 66.2353 85.6267 65.5257 85.4756 64.8262C89.4928 64.7448 92.7224 63.1126 95.1621 59.9297C96.101 57.6071 95.7816 55.4781 94.2041 53.543C94.2488 53.4182 94.3191 53.3118 94.417 53.2236C95.7838 53.1004 96.9546 52.5681 97.9297 51.627C98.1149 51.3347 98.2213 51.0153 98.249 50.6689C97.6763 48.5722 96.9674 46.5497 96.1201 44.6016C96.4288 44.8404 96.6417 45.1598 96.7588 45.5596C96.961 45.6909 97.1377 45.6556 97.291 45.4531C97.5316 46.0656 97.6721 46.7043 97.7168 47.3691C97.919 47.2874 98.0957 47.2165 98.249 47.1562C99.2155 49.0156 100.244 50.8608 101.336 52.6914C101.295 52.0346 101.119 51.396 100.804 50.7754C100.829 50.6462 100.902 50.5753 101.017 50.5625C101.189 50.7603 101.368 50.9732 101.549 51.2012C103.275 48.2448 104.589 45.1225 105.487 41.834C105.668 41.3256 105.881 40.8289 106.126 40.3438Z" fill="#807B73"/>
<path fill-rule="evenodd" clip-rule="evenodd" d="M98.6747 45.8789C98.9046 47.027 99.3665 48.0915 100.058 49.0723C100.201 48.7885 100.342 48.7885 100.484 49.0723C100.582 48.9458 100.618 48.8038 100.591 48.6465C100.912 49.0044 101.125 49.4301 101.229 49.9238C101.038 50.0748 100.965 50.2877 101.016 50.5625C100.901 50.5753 100.829 50.6462 100.804 50.7754C101.119 51.396 101.295 52.0346 101.336 52.6914C100.244 50.8608 99.2154 49.0156 98.2489 47.1562C98.1446 46.6653 98.0722 46.1687 98.036 45.666C98.0211 45.5728 98.0573 45.5017 98.1424 45.4531C98.2318 45.7026 98.3745 45.9155 98.5682 46.0918C98.6534 46.0433 98.6896 45.9722 98.6747 45.8789Z" fill="#2D2925"/>
<path fill-rule="evenodd" clip-rule="evenodd" d="M61.6318 60.9916C61.4892 61.0625 61.3487 61.1336 61.2061 61.2045C61.2955 60.7189 61.155 60.364 60.7803 60.14C60.7803 59.3594 60.7803 58.5789 60.7803 57.7982C61.0613 57.762 61.3104 57.8329 61.5254 58.0111C61.6318 59.0021 61.668 59.9955 61.6318 60.9916Z" fill="#A7A7A9"/>
<path fill-rule="evenodd" clip-rule="evenodd" d="M52.4771 59.7168C52.1194 59.8622 51.9789 60.1462 52.0513 60.5684C51.7746 59.9606 51.7746 59.3219 52.0513 58.6523C52.36 58.9397 52.5026 59.2944 52.4771 59.7168Z" fill="#9C1E15"/>
<path fill-rule="evenodd" clip-rule="evenodd" d="M59.9287 59.716C59.7903 60.6636 59.5412 61.586 59.1836 62.4836C58.9388 62.7254 58.6918 62.9383 58.4385 63.1222C58.1553 63.1931 57.8701 63.2642 57.5869 63.3351C58.0148 62.9587 58.4747 62.6041 58.9707 62.2707C59.1687 61.7095 59.3475 61.1417 59.5029 60.5676C59.4944 60.3725 59.422 60.2306 59.29 60.1418C59.3901 59.8425 59.603 59.7005 59.9287 59.716Z" fill="#941E17"/>
<path fill-rule="evenodd" clip-rule="evenodd" d="M60.7803 60.1406C61.155 60.3646 61.2955 60.7195 61.2061 61.2051C61.1188 62.5337 60.693 63.7402 59.9287 64.8242C58.8451 65.5879 57.638 66.0136 56.3096 66.1016C56.5012 65.9615 56.7141 65.8197 56.9482 65.6758C56.6119 65.5059 56.2585 65.3994 55.8838 65.3564C56.3096 65.2856 56.7354 65.2144 57.1611 65.1436C56.3394 65.1059 55.5602 64.9994 54.8193 64.8242C58.1277 64.9204 60.1139 63.3593 60.7803 60.1406Z" fill="#ECECEB"/>
<path fill-rule="evenodd" clip-rule="evenodd" d="M26.9307 48.2182C26.2984 49.6234 25.5533 50.9717 24.6953 52.2631C24.5527 52.476 24.5527 52.6889 24.6953 52.9018C24.7656 52.8309 24.8379 52.7598 24.9082 52.6889C26.0855 50.6176 27.2564 48.5596 28.4209 46.515C27.8205 50.1269 26.7902 53.6041 25.334 56.9467C23.9012 59.4145 22.553 61.8983 21.2891 64.3978C22.0806 63.7345 22.7193 62.954 23.2051 62.056C23.2987 62.3916 23.4754 62.6756 23.7373 62.9076C23.4542 63.3334 23.1695 63.7592 22.8857 64.185C23.0614 64.3736 23.2743 64.4445 23.5244 64.3978C23.3492 65.0048 23.0654 65.5726 22.6729 66.101C20.3594 69.0655 17.5207 71.3719 14.1572 73.0199C15.2423 72.9654 16.2359 72.6105 17.1377 71.9555C18.428 71.7585 19.6343 71.4039 20.7568 70.891C19.3773 71.7002 17.9935 72.5164 16.6055 73.3393C15.801 73.1457 15.0558 73.2875 14.3701 73.765C11.1676 74.6432 7.97424 75.5657 4.79004 76.5326C4.86732 76.678 4.93821 76.82 5.00293 76.9584C4.45601 76.7534 3.95934 76.4696 3.5127 76.1068C7.0437 74.4586 10.1306 72.1877 12.7734 69.2943C15.6453 65.926 18.2711 62.3779 20.6504 58.6498C21.0904 57.7686 21.2324 56.846 21.0762 55.8822C20.0937 54.5555 19.2777 53.1361 18.6279 51.6244C18.7816 51.5354 18.8881 51.3936 18.9473 51.1986C19.0182 51.2695 19.0893 51.3406 19.1602 51.4115C19.2664 50.4916 19.3019 49.5692 19.2666 48.6439C19.6492 49.9651 20.1814 51.2425 20.8633 52.476C21.0053 52.1211 21.0053 51.7664 20.8633 51.4115C20.4186 50.5242 20.0992 49.6015 19.9053 48.6439C20.1486 48.7308 20.3615 48.8728 20.5439 49.0697C20.757 49.6388 21.0764 50.1357 21.502 50.56C21.5318 50.1861 21.4253 49.8314 21.1826 49.4955C21.4381 49.3269 21.7219 49.3269 22.0342 49.4955C22.0212 50.7486 22.4823 51.813 23.418 52.6889C23.5244 52.2688 23.5585 51.843 23.5244 51.4115C23.4456 50.1806 23.2323 48.9743 22.8857 47.7924C23.0258 47.9836 23.1676 48.1964 23.3115 48.431C23.4371 48.3866 23.5436 48.3154 23.6309 48.2182C23.7267 48.773 24.046 49.0567 24.5889 49.0697C24.5037 48.4349 24.6463 47.8671 25.0146 47.3666C25.2744 47.529 25.4873 47.7419 25.6533 48.0053C25.8598 47.5278 25.9322 47.0311 25.8662 46.515C26.1472 46.4788 26.3963 46.5497 26.6113 46.7279C26.6518 47.2678 26.7582 47.7645 26.9307 48.2182Z" fill="#5E5851"/>
<path fill-rule="evenodd" clip-rule="evenodd" d="M95.907 43.75C95.9773 44.0338 96.0497 44.3178 96.1199 44.6016C96.9672 46.5497 97.6761 48.5722 98.2488 50.6689C98.2211 51.0153 98.1147 51.3347 97.9295 51.627C96.9544 52.5681 95.7835 53.1004 94.4168 53.2236C94.3188 53.3118 94.2486 53.4182 94.2039 53.543C95.7814 55.4781 96.1007 57.6071 95.1619 59.9297C92.7222 63.1126 89.4926 64.7448 85.4754 64.8262C85.6265 65.5257 85.6968 66.2353 85.6883 66.9551C85.5329 67.3834 85.3562 67.8092 85.156 68.2324C82.6844 70.9004 79.8104 72.9584 76.534 74.4062C76.3211 74.4062 76.1082 74.4062 75.8953 74.4062C72.6892 72.9652 69.8875 70.9783 67.4861 68.4453C66.7133 67.1944 66.4302 65.8461 66.6346 64.4004C68.3994 63.03 70.4219 62.3913 72.7019 62.4844C75.3311 62.3017 77.9561 62.2306 80.5789 62.2715C79.9785 62.0069 79.4101 61.6875 78.8758 61.3135C75.1566 58.1129 74.2347 54.2455 76.1082 49.7109C76.1252 51.0432 76.1614 52.3914 76.2146 53.7559C76.4105 55.6544 77.4388 56.3995 79.3015 55.9912C83.6935 54.61 87.9513 52.9069 92.075 50.8818C94.3934 49.0459 95.6707 46.6685 95.907 43.75Z" fill="#0A0909"/>
<path fill-rule="evenodd" clip-rule="evenodd" d="M82.9207 62.0586C82.4885 62.1591 82.133 62.372 81.8562 62.6973C81.6646 62.5463 81.5922 62.3334 81.6433 62.0586C82.0691 62.0586 82.4949 62.0586 82.9207 62.0586Z" fill="#584E4C"/>
<path fill-rule="evenodd" clip-rule="evenodd" d="M85.0498 59.0781C85.1201 59.0781 85.1924 59.0781 85.2627 59.0781C85.2968 59.4398 85.2606 59.7947 85.1562 60.1426C84.5602 60.5243 84.0279 60.9856 83.5596 61.5264C82.5909 61.9785 81.6691 61.9432 80.792 61.4199C81.4754 61.4859 82.114 61.415 82.708 61.207C83.3403 60.8905 83.979 60.5711 84.624 60.249C84.9519 60.0127 85.0924 59.6934 85.0498 59.291C85.0498 59.2201 85.0498 59.149 85.0498 59.0781Z" fill="#480C0D"/>
<path fill-rule="evenodd" clip-rule="evenodd" d="M84.1982 59.2891C84.4814 59.2891 84.7667 59.2891 85.0498 59.2891C85.0924 59.6914 84.9519 60.0108 84.624 60.2471C83.979 60.5692 83.3403 60.8885 82.708 61.2051C81.8352 61.2617 80.9836 61.1553 80.1533 60.8857C80.7622 60.8468 81.3306 60.7403 81.8564 60.5664C82.4909 60.3925 83.1295 60.2149 83.7725 60.0342C84.0535 59.8605 84.1961 59.612 84.1982 59.2891Z" fill="#CF2017"/>
<path fill-rule="evenodd" clip-rule="evenodd" d="M81.8564 60.5684C81.3306 60.7423 80.7622 60.8487 80.1533 60.8877C80.9836 61.1572 81.8352 61.2637 82.708 61.207C82.114 61.415 81.4754 61.4859 80.792 61.4199C79.7701 61.1065 78.9186 60.539 78.2373 59.7168C78.3076 59.6459 78.3799 59.5748 78.4502 59.5039C79.3954 60.4383 80.5301 60.7932 81.8564 60.5684Z" fill="#9D2718"/>
<path fill-rule="evenodd" clip-rule="evenodd" d="M83.347 58.4375C83.364 58.7036 83.5045 58.881 83.7728 58.9697C84.1922 59.0751 84.618 59.1107 85.0501 59.0762C85.0501 59.1471 85.0501 59.2182 85.0501 59.2891C84.767 59.2891 84.4817 59.2891 84.1986 59.2891C83.4215 59.3468 83.1384 59.0628 83.347 58.4375Z" fill="#AC938E"/>
<path fill-rule="evenodd" clip-rule="evenodd" d="M85.0498 57.7987C85.3606 57.7844 85.6438 57.8553 85.9014 58.0116C85.9503 58.5295 85.7374 58.8842 85.2627 59.076C85.1924 59.076 85.1201 59.076 85.0498 59.076C84.6176 59.1105 84.1919 59.0749 83.7725 58.9696C83.5042 58.8808 83.3637 58.7035 83.3467 58.4373C83.8108 57.9935 84.3792 57.7806 85.0498 57.7987Z" fill="#EFE7E6"/>
<path fill-rule="evenodd" clip-rule="evenodd" d="M85.9014 58.0116C85.6438 57.8554 85.3606 57.7845 85.0498 57.7987C85.0903 57.2852 85.3755 57.0724 85.9014 57.1601C85.9014 57.4438 85.9014 57.7278 85.9014 58.0116Z" fill="#7C4740"/>
<path fill-rule="evenodd" clip-rule="evenodd" d="M93.3525 55.4574C94.9897 57.7347 94.7044 59.7572 92.501 61.5248C90.206 63.1696 87.6513 63.9501 84.8369 63.8666C84.2834 63.7836 83.7852 63.606 83.3467 63.3344C83.021 62.9629 82.5952 62.75 82.0693 62.6957C81.9991 62.6957 81.9267 62.6957 81.8564 62.6957C82.1332 62.3704 82.4887 62.1575 82.9209 62.057C84.7326 61.7007 85.9035 60.6362 86.4336 58.8637C86.5038 58.1541 86.5762 57.4443 86.6465 56.7348C87.1361 56.4438 87.6684 56.3018 88.2432 56.309C89.8909 55.7287 91.5941 55.4449 93.3525 55.4574Z" fill="#F7F7F7"/>
<path fill-rule="evenodd" clip-rule="evenodd" d="M93.3525 55.457C91.5941 55.4445 89.8909 55.7283 88.2432 56.3086C88.2666 56.1772 88.3368 56.0708 88.4561 55.9893C89.7951 55.5669 91.1087 55.1055 92.3945 54.6055C92.9395 54.6306 93.2589 54.9144 93.3525 55.457Z" fill="#9F9FA0"/>
<path fill-rule="evenodd" clip-rule="evenodd" d="M52.4775 59.7148C53.1545 61.4727 54.4318 62.2531 56.3095 62.0566C56.7672 62.0839 57.193 61.9774 57.5869 61.7373C58.2617 61.3115 58.828 60.7793 59.29 60.1406C59.422 60.2294 59.4944 60.3714 59.5029 60.5664C59.3475 61.1406 59.1686 61.7084 58.9707 62.2695C58.4746 62.6029 58.0148 62.9576 57.5869 63.334C57.4357 63.5264 57.2228 63.5973 56.9482 63.5469C55.8816 63.5822 54.8172 63.5467 53.7548 63.4404C53.3503 63.0721 52.9948 62.6819 52.6904 62.2695C52.1624 61.8431 51.9495 61.2755 52.0517 60.5664C51.9793 60.1442 52.1198 59.8602 52.4775 59.7148Z" fill="#EB1E0E"/>
<path fill-rule="evenodd" clip-rule="evenodd" d="M59.29 60.1406C58.8281 60.7793 58.2618 61.3115 57.5869 61.7373C57.1931 61.9774 56.7673 62.0839 56.3096 62.0566C57.2058 61.6598 57.985 61.0922 58.6514 60.3535C58.8408 60.2237 59.0537 60.1528 59.29 60.1406Z" fill="#B82417"/>
<path fill-rule="evenodd" clip-rule="evenodd" d="M82.0693 62.6953C82.5952 62.7496 83.021 62.9625 83.3467 63.334C82.8208 63.2797 82.3951 63.0668 82.0693 62.6953Z" fill="#7E7E7D"/>
<path fill-rule="evenodd" clip-rule="evenodd" d="M52.6904 62.2695C52.9949 62.6819 53.3504 63.0721 53.7549 63.4404C54.8172 63.5467 55.8817 63.5822 56.9482 63.5469C55.9966 63.7568 55.0024 63.8277 53.9678 63.7598C53.2333 63.523 52.8075 63.0264 52.6904 62.2695Z" fill="#900E0C"/>
<path fill-rule="evenodd" clip-rule="evenodd" d="M58.4385 63.1211C58.1106 63.553 57.6848 63.8724 57.1611 64.0791C56.2393 64.2211 55.3154 64.2211 54.3936 64.0791C54.1977 64.0199 54.0572 63.9135 53.9678 63.7598C55.0024 63.8277 55.9966 63.7568 56.9482 63.5469C57.2229 63.5973 57.4358 63.5264 57.5869 63.334C57.8701 63.2631 58.1553 63.192 58.4385 63.1211Z" fill="#350A0A"/>
<path fill-rule="evenodd" clip-rule="evenodd" d="M78.6631 63.9734C76.0296 64.0005 73.4026 64.1425 70.7861 64.3992C71.7186 64.0505 72.7107 63.8732 73.7666 63.867C75.4357 63.692 77.0685 63.7273 78.6631 63.9734Z" fill="#454441"/>
<path fill-rule="evenodd" clip-rule="evenodd" d="M53.3291 63.9738C53.6548 63.9583 53.8677 64.1003 53.9678 64.3996C53.6421 64.4151 53.4292 64.2731 53.3291 63.9738Z" fill="#666965"/>
<path fill-rule="evenodd" clip-rule="evenodd" d="M78.6631 63.9727C80.4897 63.9782 82.1928 64.4393 83.7725 65.3564C84.1003 66.0462 84.0279 66.6849 83.5596 67.2725C82.4547 67.1134 81.3902 66.7588 80.3662 66.208C78.6759 65.7492 76.9727 65.359 75.2568 65.0371C73.6623 64.8606 72.0294 64.7542 70.3604 64.7178C70.4796 64.6362 70.5498 64.5298 70.5732 64.3984C70.6435 64.3984 70.7159 64.3984 70.7861 64.3984C73.4026 64.1417 76.0296 63.9997 78.6631 63.9727Z" fill="#747370"/>
<path fill-rule="evenodd" clip-rule="evenodd" d="M70.5732 64.3984C70.5498 64.5298 70.4796 64.6362 70.3604 64.7178C72.0294 64.7542 73.6623 64.8606 75.2568 65.0371C73.3387 65.0018 71.4227 65.0371 69.5088 65.1436C69 65.2047 68.5039 65.3111 68.0186 65.4629C67.9483 65.392 67.8759 65.3209 67.8057 65.25C68.6381 64.6997 69.5599 64.4157 70.5732 64.3984Z" fill="#5D5C5A"/>
<path fill-rule="evenodd" clip-rule="evenodd" d="M72.7021 62.4844C70.4221 62.3914 68.3996 63.0301 66.6348 64.4004C66.4304 65.8462 66.7135 67.1944 67.4863 68.4454C69.8877 70.9783 72.6894 72.9652 75.8955 74.4063C75.7209 76.0594 75.4378 77.6916 75.0439 79.3028C74.516 80.9152 74.0199 82.5472 73.5537 84.1993C71.4929 84.083 69.4364 83.941 67.3799 83.7735C62.2194 82.7723 57.9978 80.2176 54.7129 76.1094C53.9295 74.8964 53.3248 73.619 52.9033 72.2774C52.8139 72.1446 52.6734 72.0737 52.4775 72.0645C51.6984 72.1435 50.9894 72.3564 50.3486 72.7032C47.7918 73.361 45.3074 74.2481 42.8975 75.3643C42.6058 75.6496 42.3227 75.9336 42.0459 76.2159C42.2269 76.5706 42.4397 76.8899 42.6846 77.1739C45.8694 83.2349 49.8441 88.7345 54.6064 93.6729C55.8519 94.6846 57.1292 95.6426 58.4385 96.5469C58.4257 96.6625 58.3554 96.7334 58.2256 96.7598C51.7452 94.946 45.4287 92.7106 39.2783 90.0538C33.1428 87.3251 27.9972 83.3156 23.8438 78.0254C23.1531 77.1219 22.5498 76.1639 22.0342 75.1514C22.065 74.9871 22.1359 74.8451 22.2471 74.7256C22.7029 74.6037 23.1287 74.4263 23.5244 74.1934C24.6889 73.7225 25.8236 73.1903 26.9307 72.5967C25.1424 72.4873 23.4026 72.7358 21.7148 73.3419C21.4871 73.3359 21.3097 73.265 21.1826 73.129C22.8274 72.2359 24.5314 71.4552 26.292 70.7872C30.0304 69.215 33.8624 67.9732 37.7881 67.0616C39.0633 66.9553 40.3406 66.9198 41.6201 66.9551C43.2615 67.2655 44.8944 67.6204 46.5166 68.0196C46.589 68.198 46.7316 68.2691 46.9424 68.2325C50.3231 69.3493 53.7996 69.5977 57.374 68.9776C57.2548 68.8961 57.1846 68.7896 57.1611 68.6583C59.1368 68.2723 60.9101 67.4563 62.4834 66.21C63.6713 65.5807 64.8763 65.0129 66.1025 64.5069C65.4639 64.436 64.8252 64.3649 64.1865 64.294C64.723 64.1692 65.1488 63.9208 65.4639 63.5489C67.2436 63.0614 69.017 62.6 70.7861 62.1651C71.6377 62.0231 72.4893 62.0231 73.3408 62.1651C73.0768 62.2145 72.8639 62.3209 72.7021 62.4844Z" fill="#D8C7AF"/>
<path fill-rule="evenodd" clip-rule="evenodd" d="M61.6318 60.9922C61.5956 61.2034 61.6659 61.3452 61.8447 61.418C61.3934 62.8778 60.7547 64.2615 59.9287 65.5693C58.9175 66.0234 57.853 66.3428 56.7354 66.5273C56.663 66.3489 56.5203 66.2778 56.3096 66.3145C56.3096 66.2436 56.3096 66.1725 56.3096 66.1016C57.638 66.0136 58.8451 65.5879 59.9287 64.8242C60.693 63.7402 61.1188 62.5337 61.2061 61.2051C61.3487 61.1342 61.4892 61.0631 61.6318 60.9922Z" fill="#282826"/>
<path fill-rule="evenodd" clip-rule="evenodd" d="M48.6455 65.8906C51.1959 66.0629 53.7506 66.1337 56.3096 66.1035C56.3096 66.1744 56.3096 66.2455 56.3096 66.3164C54.038 66.352 51.7665 66.3164 49.4971 66.21C49.165 66.1653 48.8818 66.0588 48.6455 65.8906Z" fill="#909192"/>
<path fill-rule="evenodd" clip-rule="evenodd" d="M41.6197 66.9543C40.3402 66.919 39.0629 66.9545 37.7877 67.0607C33.862 67.9723 30.0299 69.2141 26.2916 70.7863C26.315 70.655 26.3853 70.5485 26.5045 70.467C26.2213 70.325 25.9361 70.325 25.6529 70.467C24.2415 71.0718 22.823 71.604 21.3951 72.0637C21.3808 71.7531 21.4517 71.4693 21.608 71.2121C23.9562 70.0199 26.2639 68.7426 28.5269 67.3801C28.6334 67.451 28.7398 67.5221 28.8463 67.593C28.2608 68.0449 27.6583 68.4707 27.0367 68.8703C26.7429 69.182 26.7429 69.3949 27.0367 69.509C31.6713 67.2206 36.5316 66.3691 41.6197 66.9543Z" fill="#9E958B"/>
<path fill-rule="evenodd" clip-rule="evenodd" d="M56.7354 66.5273C56.4841 66.8609 56.1286 67.0385 55.6709 67.0596C54.253 67.166 52.8331 67.2014 51.4131 67.166C51.1299 67.166 50.8447 67.166 50.5615 67.166C50.5615 67.0951 50.5615 67.024 50.5615 66.9531C52.6457 67.0572 54.7044 66.9152 56.7354 66.5273Z" fill="#56524D"/>
<path fill-rule="evenodd" clip-rule="evenodd" d="M88.0303 67.5914C88.1431 67.8513 88.2836 68.0995 88.4561 68.3365C90.7276 68.8557 92.716 68.3591 94.417 66.8463C95.9775 66.7398 97.538 66.7045 99.1006 66.7398C102.535 67.3131 105.871 68.2356 109.106 69.5074C109.202 69.7113 109.345 69.8889 109.532 70.0396C110.273 70.4228 111.052 70.7066 111.874 70.8912C112.255 71.0583 112.574 71.3065 112.832 71.6363C112.732 72.4057 112.485 73.1155 112.087 73.7652C111.112 76.3386 109.656 78.6093 107.723 80.5777C100.94 87.6061 93.0268 92.9639 83.9854 96.6509C81.9033 97.4437 79.8446 98.2953 77.8115 99.2056C76.5044 99.4115 75.227 99.7308 73.9795 100.164C73.8369 100.128 73.6963 100.093 73.5537 100.057C73.7496 99.998 73.8901 99.8916 73.9795 99.7379C76.4469 98.7873 78.6482 97.4035 80.5791 95.5865C84.3558 91.9646 87.3724 87.8132 89.627 83.1324C89.6972 83.632 89.6631 84.1289 89.5205 84.6226C89.0692 85.8574 88.7498 87.1347 88.5625 88.4547C89.099 87.5188 89.4886 86.5252 89.7334 85.4742C90.1996 84.2188 90.6254 82.9414 91.0107 81.6422C91.3897 81.0024 91.6026 80.2929 91.6494 79.5132C91.692 78.8707 91.7644 78.2321 91.8623 77.5972C92.0731 77.3215 92.286 77.0378 92.501 76.7457C93.0779 76.613 93.6463 76.613 94.2041 76.7457C93.5505 76.0934 92.9821 75.3838 92.501 74.6168C92.1561 73.9132 91.8027 73.2034 91.4365 72.4879C91.3663 72.5943 91.2939 72.7007 91.2236 72.8072C92.154 74.274 92.2966 75.7998 91.6494 77.3843C90.123 78.978 88.3496 80.2554 86.3271 81.2164C84.0301 82.3719 81.618 83.2235 79.0889 83.7711C78.3799 83.7104 77.7413 83.8524 77.1729 84.1968C76.8173 84.1968 76.4639 84.1968 76.1084 84.1968C75.3846 84.265 74.6756 84.1941 73.9795 83.9839C74.3478 82.6106 74.7736 81.2624 75.2568 79.939C75.8125 78.1209 76.2383 76.2758 76.5342 74.4039C79.8106 72.956 82.6846 70.898 85.1562 68.23C85.3564 67.8068 85.5331 67.381 85.6885 66.9527C86.5251 66.8516 87.3064 67.0645 88.0303 67.5914Z" fill="#D8C7AF"/>
<path fill-rule="evenodd" clip-rule="evenodd" d="M65.4639 63.5469C65.1488 63.9188 64.723 64.1672 64.1865 64.292C64.8252 64.3629 65.4639 64.434 66.1025 64.5049C64.8763 65.0109 63.6713 65.5787 62.4834 66.208C60.9101 67.4543 59.1368 68.2703 57.1611 68.6562C54.3467 68.5913 51.5451 68.3784 48.752 68.0176C48.1516 68.1306 47.5491 68.2015 46.9424 68.2305C46.7316 68.2671 46.589 68.196 46.5166 68.0176C48.026 67.9405 49.5162 67.7632 50.9873 67.4854C50.5615 67.4145 50.1357 67.3434 49.71 67.2725C49.9846 67.1681 50.2699 67.1326 50.5615 67.166C50.8447 67.166 51.1299 67.166 51.4131 67.166C53.2716 67.2867 54.9747 67.5705 56.5225 68.0176C58.0148 67.958 59.3624 67.4968 60.5674 66.6338C61.8596 65.0656 63.4904 64.0365 65.4639 63.5469Z" fill="#90897E"/>
<path fill-rule="evenodd" clip-rule="evenodd" d="M110.597 68.6575C111.129 69.0131 111.555 69.4742 111.874 70.0413C110.982 69.8212 110.06 69.6439 109.106 69.5091C105.871 68.2373 102.535 67.3148 99.1006 66.7415C99.1006 66.6706 99.1006 66.5995 99.1006 66.5286C100.591 66.3866 102.081 66.3513 103.571 66.4222C106.013 67.1349 108.355 67.8801 110.597 68.6575Z" fill="#928B81"/>
<path fill-rule="evenodd" clip-rule="evenodd" d="M99.1006 66.5286C99.1006 66.5995 99.1006 66.6706 99.1006 66.7415C97.538 66.7061 95.9775 66.7415 94.417 66.8479C92.716 68.3607 90.7276 68.8574 88.4561 68.3381C88.2836 68.1012 88.1431 67.853 88.0303 67.593C88.6179 67.2907 89.2565 67.1487 89.9463 67.1672C89.9463 66.9544 89.9463 66.7415 89.9463 66.5286C93.0332 66.3108 96.0839 66.3108 99.1006 66.5286Z" fill="#AEA293"/>
<path fill-rule="evenodd" clip-rule="evenodd" d="M57.1611 68.6582C57.1846 68.7896 57.2548 68.896 57.374 68.9775C53.7996 69.5977 50.3231 69.3492 46.9424 68.2324C47.5491 68.2035 48.1516 68.1326 48.752 68.0195C51.5451 68.3804 54.3467 68.5933 57.1611 68.6582Z" fill="#A89E8F"/>
<path fill-rule="evenodd" clip-rule="evenodd" d="M108.468 65.0391C111.216 68.427 114.48 71.1946 118.261 73.3418C118.508 73.7043 118.365 73.8461 117.835 73.7676C117.673 73.6041 117.46 73.4976 117.196 73.4482C115.563 73.3371 113.931 73.2307 112.3 73.1289C112.351 73.4037 112.279 73.6166 112.087 73.7676C112.485 73.1178 112.732 72.4081 112.832 71.6387C112.574 71.3089 112.255 71.0607 111.874 70.8936C111.052 70.709 110.273 70.4252 109.532 70.042C109.345 69.8913 109.202 69.7137 109.106 69.5098C110.06 69.6445 110.982 69.8219 111.874 70.042C111.555 69.4749 111.129 69.0137 110.597 68.6582C109.711 67.5967 108.93 66.4614 108.255 65.252C108.255 65.11 108.325 65.0391 108.468 65.0391Z" fill="#C2B6A6"/>
<path fill-rule="evenodd" clip-rule="evenodd" d="M52.9033 72.2754C52.0624 72.4629 51.2108 72.6049 50.3486 72.7012C50.9894 72.3544 51.6984 72.1415 52.4775 72.0625C52.6734 72.0717 52.8139 72.1425 52.9033 72.2754Z" fill="#46413A"/>
<path fill-rule="evenodd" clip-rule="evenodd" d="M23.5244 74.1923C23.4733 74.0652 23.3679 73.9943 23.2051 73.9794C22.5707 74.3514 21.8964 74.4578 21.1826 74.2988C22.8136 73.744 22.8136 73.5311 21.1826 73.6601C20.2742 73.9301 19.6355 74.4978 19.2666 75.3632C18.9162 75.6615 18.5613 75.697 18.2021 75.4697C18.3625 74.99 18.6462 74.5996 19.0537 74.2988C19.6734 73.7406 20.383 73.3503 21.1826 73.1279C21.3097 73.2639 21.4871 73.3348 21.7148 73.3408C23.4026 72.7347 25.1424 72.4862 26.9307 72.5957C25.8236 73.1892 24.6889 73.7214 23.5244 74.1923Z" fill="#9E9486"/>
<path fill-rule="evenodd" clip-rule="evenodd" d="M26.292 70.7852C24.5314 71.4533 22.8274 72.2339 21.1826 73.127C20.383 73.3495 19.6734 73.7397 19.0537 74.2979C18.6462 74.5987 18.3625 74.9892 18.2021 75.4688C18.5613 75.6962 18.9162 75.6606 19.2666 75.3624C19.6355 74.497 20.2742 73.9292 21.1826 73.6592C22.8136 73.5302 22.8136 73.7431 21.1826 74.2979C21.8964 74.4569 22.5707 74.3505 23.2051 73.9786C23.3679 73.9935 23.4733 74.0644 23.5244 74.1915C23.1287 74.4244 22.7029 74.6017 22.2471 74.7237C22.1359 74.8431 22.065 74.9851 22.0342 75.1495C22.5498 76.162 23.1531 77.12 23.8438 78.0235C27.9972 83.3136 33.1428 87.3232 39.2783 90.0518C45.4287 92.7087 51.7452 94.944 58.2256 96.7579C58.3554 96.7315 58.4257 96.6606 58.4385 96.545C63.1327 99.8682 68.3123 100.933 73.9795 99.7383C73.8901 99.892 73.7496 99.9985 73.5537 100.058C73.6963 100.093 73.8369 100.129 73.9795 100.164C75.227 99.7313 76.5044 99.412 77.8115 99.2061C79.8446 98.2958 81.9033 97.4442 83.9854 96.6514C93.0268 92.9644 100.94 87.6065 107.723 80.5782C109.656 78.6098 111.112 76.3391 112.087 73.7657C112.279 73.6147 112.351 73.4018 112.3 73.127C113.931 73.2288 115.563 73.3352 117.196 73.4463C117.46 73.4957 117.673 73.6022 117.835 73.7657C118.033 73.9392 118.246 74.1165 118.474 74.2979C112.987 74.1172 112.917 74.4009 118.261 75.1495C117.743 75.3809 117.814 75.4873 118.474 75.4688C116.274 76.2493 114.216 77.3137 112.3 78.6622C114.356 79.7556 116.555 80.3942 118.899 80.5782C118.899 80.7911 118.899 81.004 118.899 81.2169C113.185 84.0036 107.578 87.0194 102.081 90.2647C100.159 91.1886 98.2426 92.1113 96.333 93.0323C89.9782 95.4339 83.6639 97.9175 77.3857 100.483C75.6166 101.014 73.8432 101.511 72.0635 101.974C69.7494 102.216 67.4778 102.003 65.251 101.335C57.3932 99.1989 49.446 97.4957 41.4072 96.2256C39.1485 95.75 36.9493 95.1114 34.8076 94.3096C25.7938 90.4425 16.8526 86.4331 7.9834 82.2813C7.91251 82.2104 7.8414 82.1393 7.77051 82.0684C9.14046 81.3752 10.5596 80.8077 12.0283 80.3653C9.54793 79.4703 7.20613 78.3347 5.00293 76.959C4.93821 76.8207 4.86732 76.6787 4.79004 76.5333C7.97424 75.5663 11.1676 74.6439 14.3701 73.7657C14.5941 73.734 14.807 73.7693 15.0088 73.8721C14.7133 74.0614 14.7486 74.1678 15.1152 74.1915C16.1026 73.6369 17.1317 73.3884 18.2021 73.4463C19.3528 72.6925 20.4882 71.9474 21.6084 71.211C21.4521 71.4682 21.3812 71.7519 21.3955 72.0626C22.8234 71.6029 24.2419 71.0707 25.6533 70.4659C25.9365 70.3239 26.2217 70.3239 26.5049 70.4659C26.3857 70.5474 26.3154 70.6539 26.292 70.7852Z" fill="#8C8272"/>
<path fill-rule="evenodd" clip-rule="evenodd" d="M118.26 73.3398C118.971 73.801 119.751 74.0847 120.602 74.1914C120.602 74.4043 120.602 74.6172 120.602 74.8301C119.863 74.958 119.155 75.1709 118.473 75.4688C117.813 75.4873 117.743 75.3808 118.26 75.1494C112.917 74.4009 112.987 74.1171 118.473 74.2979C118.245 74.1165 118.033 73.9391 117.835 73.7656C118.365 73.8442 118.507 73.7024 118.26 73.3398Z" fill="#A19A8F"/>
<path fill-rule="evenodd" clip-rule="evenodd" d="M92.5011 74.6172C92.9822 75.3842 93.5507 76.0938 94.2042 76.7461C93.6465 76.6135 93.078 76.6135 92.5011 76.7461C92.218 76.0365 92.218 75.3268 92.5011 74.6172Z" fill="#191715"/>
<path fill-rule="evenodd" clip-rule="evenodd" d="M43.1102 76.9586C46.3163 82.2642 50.2207 87.0543 54.8191 91.3287C55.9858 91.6365 57.1205 91.4945 58.2254 90.9029C63.8755 90.435 69.1254 91.6414 73.9793 94.5221C74.6456 94.7384 75.1417 94.561 75.4695 93.9898C75.6611 93.8389 75.7335 93.626 75.6824 93.3512C76.1082 93.3512 76.534 93.3512 76.9598 93.3512C77.6219 93.8836 77.9774 94.5932 78.0242 95.4801C79.0972 94.6202 80.019 93.6266 80.7918 92.4996C80.3596 92.0602 79.8636 91.7762 79.3016 91.648C79.2739 91.4907 79.3101 91.3487 79.408 91.2223C79.6975 91.4096 80.0169 91.4807 80.366 91.4351C80.6364 91.6436 80.9195 91.8565 81.2176 92.0738C81.72 91.7494 82.1096 91.3236 82.3885 90.7965C83.4359 89.1287 84.2513 87.3545 84.8367 85.4742C84.5834 85.2764 84.3002 85.2055 83.9852 85.2613C83.6232 85.2954 83.2677 85.26 82.9207 85.1549C83.0399 85.0733 83.1102 84.9669 83.1336 84.8355C84.3258 84.1392 85.3902 83.2876 86.327 82.2808C86.4419 82.2681 86.5143 82.1972 86.5398 82.068C86.3525 81.9081 86.1396 81.8016 85.9012 81.7486C86.1694 81.6598 86.3099 81.4825 86.327 81.2164C88.3494 80.2554 90.1228 78.9781 91.6492 77.3844C91.7919 77.3844 91.8621 77.4553 91.8621 77.5973C91.7642 78.2321 91.6918 78.8708 91.6492 79.5133C91.2703 80.153 91.0574 80.8626 91.0106 81.6422C90.6252 82.9414 90.1994 84.2188 89.7332 85.4742C89.5352 85.2468 89.4628 84.9631 89.5203 84.6226C89.663 84.1289 89.697 83.6321 89.6268 83.1324C87.3723 87.8132 84.3556 91.9646 80.5789 95.5865C78.648 97.4035 76.4467 98.7873 73.9793 99.7379C68.3122 100.932 63.1325 99.8677 58.4383 96.5445C57.129 95.6402 55.8517 94.6821 54.6063 93.6705C49.8439 88.7321 45.8692 83.2325 42.6844 77.1715C42.6652 76.7035 42.8079 76.6326 43.1102 76.9586Z" fill="#0D0C0B"/>
<path fill-rule="evenodd" clip-rule="evenodd" d="M92.501 74.6172C92.2178 75.3268 92.2178 76.0365 92.501 76.7461C92.286 77.0382 92.0731 77.322 91.8623 77.5977C91.8623 77.4557 91.7921 77.3848 91.6494 77.3848C92.2966 75.8002 92.154 74.2744 91.2236 72.8076C91.2939 72.7012 91.3663 72.5947 91.4365 72.4883C91.8027 73.2038 92.1561 73.9136 92.501 74.6172Z" fill="#463E35"/>
<path fill-rule="evenodd" clip-rule="evenodd" d="M75.8953 74.4062C76.1082 74.4062 76.3211 74.4062 76.534 74.4062C76.238 76.2782 75.8123 78.1233 75.2566 79.9414C75.065 79.7905 74.9926 79.5776 75.0437 79.3027C75.4376 77.6916 75.7207 76.0593 75.8953 74.4062Z" fill="#5B5146"/>
<path fill-rule="evenodd" clip-rule="evenodd" d="M119.538 77.5977C119.402 77.8067 119.259 78.0196 119.112 78.2363C119.47 78.3747 119.755 78.5876 119.964 78.875C119.312 78.7055 118.674 78.4926 118.048 78.2363C118.569 78.0543 119.068 77.8414 119.538 77.5977Z" fill="#BFBDB7"/>
<path fill-rule="evenodd" clip-rule="evenodd" d="M6.06738 79.9414C6.39268 79.945 6.49912 80.087 6.38672 80.3672C6.213 80.6488 5.96456 80.7906 5.6416 80.793C5.87578 80.5577 6.01778 80.2739 6.06738 79.9414Z" fill="#565450"/>
<path fill-rule="evenodd" clip-rule="evenodd" d="M91.6494 79.5156C91.6026 80.2952 91.3897 81.0048 91.0107 81.6445C91.0576 80.8649 91.2705 80.1554 91.6494 79.5156Z" fill="#83796C"/>
<path fill-rule="evenodd" clip-rule="evenodd" d="M113.364 80.5777C114.218 80.5423 115.07 80.5779 115.919 80.6841C116.017 80.7723 116.087 80.8787 116.132 81.0035C115.027 81.644 113.856 82.1409 112.619 82.4937C112.513 82.4228 112.406 82.3517 112.3 82.2808C112.459 82.0177 112.53 81.7337 112.513 81.4292C112.066 81.4929 111.64 81.422 111.235 81.2163C111.957 80.9573 112.666 80.7444 113.364 80.5777Z" fill="#686258"/>
<path fill-rule="evenodd" clip-rule="evenodd" d="M86.3277 82.2832C85.3909 83.29 84.3265 84.1415 83.1343 84.8379C82.8001 84.2141 82.9406 83.6819 83.5601 83.2412C84.4351 82.9104 85.2866 82.5202 86.1148 82.0703C86.2446 82.0967 86.3149 82.1676 86.3277 82.2832Z" fill="#D1CFCE"/>
<path fill-rule="evenodd" clip-rule="evenodd" d="M75.0439 79.3008C74.9929 79.5756 75.0652 79.7885 75.2568 79.9395C74.7736 81.2628 74.3478 82.611 73.9795 83.9844C74.6756 84.1945 75.3846 84.2654 76.1084 84.1973C74.0881 84.4438 72.0294 84.4793 69.9346 84.3037C69.0319 84.2324 68.1804 84.0551 67.3799 83.7715C69.4364 83.939 71.4929 84.081 73.5537 84.1973C74.0199 82.5452 74.516 80.9132 75.0439 79.3008Z" fill="#AC9E8D"/>
<path fill-rule="evenodd" clip-rule="evenodd" d="M83.9851 85.2606C84.3002 85.2048 84.5833 85.2757 84.8366 85.4735C84.2512 87.3537 83.4358 89.128 82.3884 90.7958C82.1095 91.3229 81.7199 91.7487 81.2175 92.0731C80.9194 91.8557 80.6363 91.6429 80.3659 91.4344C80.0019 91.1709 79.5761 91.0289 79.0886 91.0087C79.0545 90.7164 79.0907 90.4324 79.195 90.1571C80.6406 88.9941 81.7774 87.5747 82.6013 85.8993C83.0377 85.5957 83.4976 85.3828 83.9851 85.2606Z" fill="#454040"/>
<path fill-rule="evenodd" clip-rule="evenodd" d="M52.9033 72.2773C53.3248 73.619 53.9295 74.8963 54.7129 76.1094C57.9978 80.2175 62.2194 82.7722 67.3799 83.7734C68.1804 84.057 69.0319 84.2343 69.9346 84.3057C72.0294 84.4813 74.0881 84.4457 76.1084 84.1992C76.4639 84.1992 76.8173 84.1992 77.1729 84.1992C77.8711 84.2162 78.5098 84.0743 79.0889 83.7734C81.618 83.2259 84.0301 82.3743 86.3271 81.2188C86.3101 81.4849 86.1696 81.6622 85.9014 81.751C86.1398 81.804 86.3527 81.9104 86.54 82.0703C86.5145 82.1995 86.4421 82.2704 86.3271 82.2832C86.3144 82.1676 86.2441 82.0967 86.1143 82.0703C85.2861 82.5202 84.4346 82.9104 83.5596 83.2412C82.9401 83.6819 82.7996 84.2141 83.1338 84.8379C83.1104 84.9692 83.0401 85.0757 82.9209 85.1572C83.2679 85.2624 83.6234 85.2977 83.9854 85.2637C83.4978 85.3859 83.038 85.5988 82.6016 85.9023C81.7777 87.5778 80.6408 88.9971 79.1953 90.1602C79.091 90.4354 79.0548 90.7194 79.0889 91.0117C79.5764 91.0319 80.0022 91.1739 80.3662 91.4375C80.0171 91.4831 79.6977 91.412 79.4082 91.2246C79.3103 91.3511 79.2741 91.4931 79.3018 91.6504C78.3161 92.249 77.2516 92.6748 76.1084 92.9277C76.4171 93.0708 76.7002 93.2128 76.96 93.3535C76.5342 93.3535 76.1084 93.3535 75.6826 93.3535C75.7337 93.6284 75.6613 93.8412 75.4697 93.9922C75.5059 93.7107 75.4357 93.4623 75.2568 93.2471C73.7794 92.7925 72.502 92.0121 71.4248 90.9053C70.503 90.8344 69.579 90.7633 68.6572 90.6924C67.3501 90.2313 66.0004 89.8766 64.6123 89.6279C63.2328 88.9201 61.8128 88.3169 60.3545 87.8184C59.0686 88.1134 57.7913 88.0779 56.5225 87.7119C55.5219 87.2267 54.5298 86.7656 53.542 86.3281C53.6655 87.3924 53.7017 88.4568 53.6484 89.5215C53.0587 88.3253 52.7756 87.0479 52.7969 85.6895C52.452 85.0614 52.0262 84.4939 51.5195 83.9863C51.0576 82.4037 50.5615 80.8426 50.0293 79.3027C49.6546 77.4619 49.6184 75.617 49.9229 73.7676C47.7237 74.3232 45.5948 75.0683 43.5361 76.0029C43.2083 76.2392 43.0678 76.5586 43.1104 76.9609C42.808 76.635 42.6654 76.7059 42.6846 77.1738C42.4397 76.8898 42.2269 76.5705 42.0459 76.2158C42.3227 75.9335 42.6058 75.6495 42.8975 75.3643C45.3074 74.2481 47.7918 73.361 50.3486 72.7031C51.2108 72.6069 52.0624 72.4649 52.9033 72.2773Z" fill="#151414"/>
<path fill-rule="evenodd" clip-rule="evenodd" d="M79.0889 83.7734C78.5098 84.0742 77.8711 84.2162 77.1729 84.1992C77.7413 83.8547 78.3799 83.7127 79.0889 83.7734Z" fill="#6D665C"/>
<path fill-rule="evenodd" clip-rule="evenodd" d="M52.0515 81.6445C54.2911 83.8126 56.7756 85.6575 59.5027 87.1797C56.799 87.5478 54.5636 86.6962 52.7967 84.625C52.356 83.8882 52.0366 83.1077 51.8386 82.2832C51.7876 82.0084 51.8599 81.7955 52.0515 81.6445Z" fill="#EAEAE9"/>
<path fill-rule="evenodd" clip-rule="evenodd" d="M52.0518 81.6426C51.8602 81.7935 51.7878 82.0064 51.8389 82.2812C51.6005 81.9006 51.5643 81.4748 51.7325 81.0039C51.9539 81.1623 52.0603 81.3752 52.0518 81.6426Z" fill="#858182"/>
<path fill-rule="evenodd" clip-rule="evenodd" d="M56.0966 79.5156C55.0215 79.588 54.0273 79.3398 53.1162 78.7705C52.5094 78.1284 51.8708 77.5251 51.2002 76.9609C51.0745 77.0054 50.9681 77.0765 50.8808 77.1738C50.7744 77.5939 50.7403 78.0196 50.7744 78.4512C50.6211 78.3622 50.5146 78.2204 50.455 78.0254C50.2592 76.6488 50.3656 75.3006 50.7744 73.9805C51.4833 74.868 52.156 75.7907 52.7968 76.748C53.8932 77.6999 54.9917 78.6223 56.0966 79.5156Z" fill="#A4A5A6"/>
<path fill-rule="evenodd" clip-rule="evenodd" d="M56.0967 79.5156C58.0063 80.6842 59.9223 81.8551 61.8447 83.0283C63.682 83.8577 65.598 84.4611 67.5928 84.8379C68.5338 85.1513 69.528 85.2931 70.5733 85.2637C72.9896 85.2754 75.4016 85.2045 77.8115 85.0508C78.3757 85.0699 78.8739 84.9282 79.3018 84.625C80.2704 84.3035 81.2625 84.0906 82.2822 83.9863C81.7649 86.9851 80.0618 88.9011 77.1729 89.7344C76.6087 89.7152 76.1105 89.857 75.6826 90.1602C74.1924 90.1602 72.7022 90.1602 71.2119 90.1602C70.0495 89.8513 68.8425 89.6384 67.5928 89.5215C67.2522 89.5785 66.969 89.5074 66.7412 89.3086C66.4006 88.9735 65.9748 88.8315 65.4639 88.8828C60.2395 87.3828 55.7326 84.6863 51.9453 80.793C51.4365 80.0581 51.0448 79.2774 50.7744 78.4512C50.7404 78.0196 50.7744 77.5939 50.8809 77.1738C50.9682 77.0765 51.0746 77.0054 51.2002 76.9609C51.8708 77.5251 52.5095 78.1284 53.1162 78.7705C54.0274 79.3398 55.0216 79.588 56.0967 79.5156Z" fill="#F7F7F8"/>
<path fill-rule="evenodd" clip-rule="evenodd" d="M79.3018 84.6228C78.8738 84.926 78.3757 85.0677 77.8115 85.0486C78.2394 84.7454 78.7376 84.6036 79.3018 84.6228Z" fill="#A3A3A3"/>
<path fill-rule="evenodd" clip-rule="evenodd" d="M67.5928 84.8378C68.6381 84.8084 69.6323 84.9502 70.5732 85.2635C69.5279 85.2929 68.5338 85.1511 67.5928 84.8378Z" fill="#6E6E70"/>
<path fill-rule="evenodd" clip-rule="evenodd" d="M89.5205 84.625C89.463 84.9654 89.5354 85.2492 89.7334 85.4766C89.4886 86.5276 89.099 87.5212 88.5625 88.457C88.7498 87.1371 89.0692 85.8598 89.5205 84.625Z" fill="#746759"/>
<path fill-rule="evenodd" clip-rule="evenodd" d="M75.4694 93.9902C75.1415 94.5614 74.6455 94.7388 73.9792 94.5225C69.1253 91.6418 63.8754 90.4354 58.2253 90.9033C57.1204 91.4949 55.9856 91.6369 54.819 91.3291C50.2206 87.0547 46.3162 82.2646 43.11 76.959C43.0674 76.5566 43.2079 76.2373 43.5358 76.001C45.5945 75.0664 47.7234 74.3213 49.9225 73.7656C49.6181 75.615 49.6543 77.4599 50.029 79.3008C50.5612 80.8406 51.0572 82.4017 51.5192 83.9844C52.0259 84.4919 52.4517 85.0595 52.7965 85.6875C52.7753 87.046 53.0584 88.3233 53.6481 89.5195C53.7013 88.4549 53.6651 87.3904 53.5417 86.3262C54.5295 86.7637 55.5215 87.2248 56.5221 87.71C57.791 88.0759 59.0683 88.1115 60.3542 87.8164C61.8125 88.315 63.2324 88.9181 64.612 89.626C66 89.8746 67.3497 90.2293 68.6569 90.6904C69.5787 90.7613 70.5027 90.8324 71.4245 90.9033C72.5017 92.0101 73.779 92.7906 75.2565 93.2451C75.4353 93.4603 75.5056 93.7088 75.4694 93.9902Z" fill="#453D3E"/>
<path fill-rule="evenodd" clip-rule="evenodd" d="M65.4639 88.8813C65.9748 88.83 66.4006 88.972 66.7412 89.3071C66.2303 89.3584 65.8045 89.2164 65.4639 88.8813Z" fill="#A0A2A1"/>
<path fill-rule="evenodd" clip-rule="evenodd" d="M67.5928 89.5195C68.8424 89.6364 70.0495 89.8493 71.2119 90.1582C69.9346 90.1938 68.7275 89.9809 67.5928 89.5195Z" fill="#6F6F70"/>
<path fill-rule="evenodd" clip-rule="evenodd" d="M77.1729 89.7322C76.7449 90.0353 76.2468 90.1771 75.6826 90.158C76.1105 89.8548 76.6087 89.713 77.1729 89.7322Z" fill="#6A6C6F"/>
<path fill-rule="evenodd" clip-rule="evenodd" d="M75.4697 90.7973C74.4755 90.9393 73.4835 91.0811 72.4893 91.2231C72.3743 91.2104 72.3019 91.1395 72.2764 91.0102C73.3323 90.7986 74.3968 90.7277 75.4697 90.7973Z" fill="#848489"/>
<path fill-rule="evenodd" clip-rule="evenodd" d="M76.1084 92.0742C75.1781 92.0812 74.2563 92.0104 73.3408 91.8613C72.9725 91.7493 72.6894 91.5365 72.4893 91.2227C73.4835 91.0807 74.4755 90.9389 75.4697 90.7969C76.3766 90.6036 77.2985 90.4616 78.2373 90.3711C78.2181 91.7347 77.5092 92.3024 76.1084 92.0742Z" fill="#EAEAEA"/>
<path fill-rule="evenodd" clip-rule="evenodd" d="M64.6123 92.2891C63.8885 92.221 63.1796 92.2919 62.4834 92.502C61.9767 93.3561 61.7638 94.2786 61.8447 95.2696C62.4515 95.2807 62.9475 95.4935 63.335 95.9083C62.0768 95.5227 60.7994 95.2034 59.5029 94.9502C58.3874 94.358 57.3932 93.6129 56.5225 92.7149C56.9589 92.3543 57.4571 92.1058 58.0127 91.9698C59.999 91.8278 61.9874 91.8278 63.9736 91.9698C64.2376 92.0192 64.4505 92.1256 64.6123 92.2891Z" fill="#51312C"/>
<path fill-rule="evenodd" clip-rule="evenodd" d="M73.3408 91.8633C74.2563 92.0123 75.1781 92.0832 76.1084 92.0762C75.7976 92.2167 75.4421 92.2876 75.0439 92.2891C74.4074 92.3142 73.8411 92.1724 73.3408 91.8633Z" fill="#747476"/>
<path fill-rule="evenodd" clip-rule="evenodd" d="M79.3018 91.6484C79.8638 91.7766 80.3598 92.0606 80.792 92.5C80.0192 93.627 79.0974 94.6206 78.0244 95.4805C77.9776 94.5936 77.6221 93.884 76.96 93.3516C76.7002 93.2108 76.4171 93.0688 76.1084 92.9258C77.2516 92.6729 78.3161 92.2471 79.3018 91.6484Z" fill="#423D3D"/>
<path fill-rule="evenodd" clip-rule="evenodd" d="M64.6119 92.2868C67.6648 92.7479 70.575 93.635 73.3404 94.9479C73.5916 95.3043 73.8748 95.6236 74.192 95.9059C73.5342 96.3129 72.8955 96.7743 72.276 97.2897C69.089 98.0669 66.1085 97.6058 63.3346 95.9059C62.9471 95.4912 62.4511 95.2783 61.8443 95.2672C61.7634 94.2762 61.9763 93.3538 62.483 92.4996C63.1792 92.2895 63.8881 92.2186 64.6119 92.2868Z" fill="#6C3228"/>
<path fill-rule="evenodd" clip-rule="evenodd" d="M96.5459 94.2039C96.3309 94.4538 96.0456 94.5956 95.6943 94.6297C95.8625 94.2882 96.1457 94.1462 96.5459 94.2039Z" fill="#7C7C7C"/>
<path fill-rule="evenodd" clip-rule="evenodd" d="M73.9793 97.8225C73.4492 97.901 73.3066 97.7592 73.5535 97.3967C74.7265 96.6552 75.5781 95.6261 76.1082 94.3098C76.4148 94.1435 76.7 94.1791 76.9598 94.4162C77.1812 94.8991 77.2174 95.3957 77.0662 95.9065C76.221 96.8436 75.1928 97.4823 73.9793 97.8225Z" fill="#A6A29E"/>
<path fill-rule="evenodd" clip-rule="evenodd" d="M67.5928 98.0371C67.9738 98.2093 68.3996 98.3158 68.8701 98.3564C68.2357 98.4625 67.597 98.498 66.9541 98.4629C64.7379 98.0301 62.6793 97.1785 60.7803 95.9082C60.8867 95.8373 60.9932 95.7662 61.0996 95.6953C62.6069 96.1741 64.0609 96.7772 65.4639 97.5049C66.1707 97.7056 66.8817 97.883 67.5928 98.0371Z" fill="#9C9A97"/>
<path fill-rule="evenodd" clip-rule="evenodd" d="M42.8975 97.8242C43.385 97.8444 43.8108 97.9864 44.1748 98.25C43.6404 98.3449 43.2147 98.2032 42.8975 97.8242Z" fill="#9F9F9F"/>
<path fill-rule="evenodd" clip-rule="evenodd" d="M73.5537 97.3984C73.3068 97.761 73.4494 97.9028 73.9795 97.8242C72.9236 98.3109 71.7888 98.5593 70.5732 98.5693C69.3278 98.7435 68.1207 98.7081 66.9541 98.4629C67.597 98.498 68.2357 98.4625 68.8701 98.3564C68.3996 98.3158 67.9738 98.2093 67.5928 98.0371C69.0851 98.0724 70.5754 98.0371 72.0635 97.9307C72.5638 97.7503 73.0619 97.573 73.5537 97.3984Z" fill="#7B7A77"/>
<path fill-rule="evenodd" clip-rule="evenodd" d="M46.7295 98.6758C47.8237 98.8691 48.8882 99.082 49.9229 99.3145C48.918 99.3132 47.9259 99.2067 46.9424 98.9951C46.8232 98.9136 46.7529 98.8071 46.7295 98.6758Z" fill="#B6B5B5"/>
<path fill-rule="evenodd" clip-rule="evenodd" d="M50.1357 99.3138C50.7084 99.2788 51.2747 99.3144 51.8389 99.4202C51.9581 99.5017 52.0283 99.6082 52.0518 99.7395C51.3641 99.7021 50.7254 99.5601 50.1357 99.3138Z" fill="#525252"/>
<path fill-rule="evenodd" clip-rule="evenodd" d="M84.8369 99.1016C84.5112 99.4731 84.0854 99.6859 83.5596 99.7402C83.8853 99.3687 84.3111 99.1558 84.8369 99.1016Z" fill="#808080"/>
<path fill-rule="evenodd" clip-rule="evenodd" d="M56.7354 100.59C57.9169 100.785 59.0537 101.069 60.1416 101.441C59.2177 101.323 58.2958 101.181 57.374 101.016C57.0483 100.986 56.8354 100.844 56.7354 100.59Z" fill="#C0C0C0"/>
<path fill-rule="evenodd" clip-rule="evenodd" d="M62.2705 101.867C62.9624 101.985 63.6011 102.198 64.1865 102.506C63.4435 102.517 62.8049 102.304 62.2705 101.867Z" fill="#929292"/>
<path fill-rule="evenodd" clip-rule="evenodd" d="M65.0381 102.719C68.5785 103.543 72.1273 103.543 75.6826 102.719C75.5932 102.872 75.4527 102.979 75.2568 103.038C72.2168 103.631 69.1639 103.702 66.1025 103.251C65.6257 103.24 65.2701 103.063 65.0381 102.719Z" fill="#ADADAD"/>
</g>
<defs>
<clipPath id="clip0_31_408">
<rect width="125.18" height="109" fill="white"/>
</clipPath>
</defs>
</svg>
