<svg width="131" height="35" viewBox="0 0 131 35" fill="none" xmlns="http://www.w3.org/2000/svg">
<path d="M28.869 35C28.8065 34.7957 28.7127 34.5595 28.669 34.4925C28.6393 34.4462 28.4924 34.2372 28.4924 34.2068L28.9784 34.6122C29.0362 34.5819 29.0065 34.5819 29.0065 34.5516C28.9925 34.4925 28.8299 34.1909 28.7862 34.1159C28.5361 33.6658 28.1392 33.2892 27.7407 32.9589L27.7563 32.9285C27.9767 32.9429 28.183 32.7929 28.3892 32.8982C28.2705 32.6125 27.9767 32.4019 27.711 32.2375L27.7267 32.1912C27.8001 32.2375 28.2424 32.2519 28.2705 32.2072C28.2861 32.1912 28.2861 32.1625 28.2705 32.1322C28.2564 32.0859 27.9626 31.8768 27.8876 31.8162C27.6079 31.5449 27.3578 31.2449 27.1375 30.9145L27.4313 31.0789C27.4922 31.0996 27.6813 31.2002 27.7813 31.2002C27.8267 31.2002 27.8532 31.181 27.8439 31.1252C27.8439 31.0789 27.3297 30.5682 27.2844 30.4485C27.3875 30.4485 27.4766 30.5538 27.5798 30.5826C27.6235 30.5985 27.7407 30.5985 27.7267 30.5379C27.2844 29.9969 27.1375 29.3058 26.8437 28.6898C26.8578 28.6595 26.8875 28.6898 26.8875 28.7042C26.9906 28.7648 27.0781 28.8398 27.1813 28.8239C27.2109 28.8095 27.1078 28.5989 27.0937 28.5685C27.0047 28.2382 27.05 27.9222 27.0047 27.5918C26.9906 27.5009 26.9312 27.3956 26.9312 27.2918C26.9609 27.2615 27.0641 27.3668 27.0937 27.3956C27.1672 27.4418 27.2547 27.5009 27.3297 27.5009C27.3589 27.5115 27.3735 27.5067 27.3735 27.4865L27.0641 26.5098L27.1375 26.4939C27.1516 26.4045 27.0344 25.9529 27.0047 25.8332C26.9906 25.7885 26.8875 25.5922 26.8875 25.5475L27.1234 25.8172L27.1813 25.6975C27.1813 25.3975 27.1234 25.0959 26.9906 24.8262C26.9468 24.7352 26.8578 24.6299 26.8578 24.5549C26.9172 24.6299 27.1375 24.7352 27.1078 24.5708C27.0937 24.5245 26.9015 24.2995 26.8578 24.2245C26.578 23.7282 26.578 23.0962 26.2983 22.5855C26.2686 22.5408 26.1077 22.3302 26.092 22.2999C26.092 22.2903 26.0972 22.2855 26.1077 22.2855C26.1811 22.3445 26.6374 22.3908 26.6374 22.2695C26.4905 22.1339 26.328 22.0445 26.1811 21.9248C25.842 21.6232 25.3419 21.0215 25.1794 20.6018C24.8559 19.8342 24.7387 18.2255 24.9294 17.4148C25.0919 16.7382 25.356 16.3615 25.1497 15.6258C25.0184 15.1439 24.8122 14.5725 24.2965 14.4385C24.1933 14.4225 23.987 14.4225 23.9136 14.3778C23.8401 14.3028 23.6042 13.7762 23.5307 13.6565C23.2807 13.2352 22.8837 12.7835 22.5149 12.4691C22.4806 12.4324 22.3915 12.3877 22.3555 12.3558C22.3384 12.3431 22.329 12.3239 22.3196 12.3048C22.2899 12.2393 22.2758 12.1117 22.2508 12.0478C22.1649 11.8483 21.9899 11.8036 21.8899 11.743C21.8508 11.7207 21.8258 11.6792 21.8164 11.6345C21.8148 11.6201 21.8117 11.6058 21.8086 11.5898C21.7945 11.5387 21.7555 11.4972 21.707 11.4813C21.6023 11.4462 21.421 11.4158 21.3382 11.4158C20.5287 11.3552 20.0865 11.8978 19.9239 12.6335C19.8067 13.1442 19.9239 13.4905 19.9396 13.9725C19.9396 14.6938 19.8067 15.5205 19.6442 16.2259C19.5567 16.5881 19.4676 16.8132 19.2035 17.0829C18.5847 17.7452 17.8346 17.5345 17.4517 18.5575C17.2751 19.0235 17.1423 19.6395 16.8922 20.0752C16.8485 20.1358 16.5828 20.4502 16.6422 20.4965C16.6563 20.4965 16.7891 20.4662 16.7735 20.5268C16.7594 20.5715 16.7156 20.6321 16.686 20.7072C16.6563 20.7965 16.5234 21.2019 16.5234 21.2625C16.5234 21.3072 16.5531 21.3375 16.5531 21.4125C16.5391 21.5035 16.3922 21.8035 16.4797 21.8195L16.5531 21.8035C16.5828 21.8498 16.4203 22.3605 16.3922 22.4499C16.3328 22.7212 16.3031 22.9765 16.1859 23.2319C16.1406 23.3069 15.9358 23.5478 15.9937 23.6229C16.0968 23.6835 16.1999 23.6372 16.289 23.6085C16.3328 23.5925 16.3328 23.5622 16.3328 23.6085C15.9062 24.1192 15.6405 24.7352 15.2873 25.2762C15.2436 25.3368 15.0076 25.6225 15.0076 25.6832C15.0373 25.6975 15.1701 25.6528 15.1404 25.7119C15.1248 25.7582 14.8747 25.9385 14.8607 25.9688C14.8451 26.0135 14.8607 26.0279 14.8747 26.0582H14.9482C14.9935 26.1029 14.9341 26.0885 14.9201 26.1188C14.4341 26.5848 13.9918 27.2312 13.5792 27.7578C13.5058 27.8616 13.3448 27.9972 13.2855 28.0882C13.2714 28.1185 13.2417 28.1472 13.2558 28.1935L13.3448 28.2526V28.2988C13.2854 28.2829 13.1823 28.4042 13.212 28.4329H13.5355C13.6527 28.4329 13.9043 28.5382 14.0356 28.5685C14.4919 28.6595 14.8451 28.6132 15.2873 28.6435C15.6405 28.6595 15.964 28.7648 16.289 28.8239C16.2437 28.9292 16.1859 29.0345 16.1406 29.1399C16.1124 29.2149 15.9937 29.5915 16.0093 29.6362C16.0671 29.8165 16.289 29.3362 16.3922 29.3808C16.3031 29.4702 16.0827 30.1166 16.0827 30.1932C16.0968 30.2378 16.1562 30.2219 16.1859 30.1932C16.2593 30.1469 16.3328 29.8915 16.45 29.8309C16.4359 29.9219 16.3765 30.0128 16.3328 30.1022C16.3031 30.1932 16.289 30.2969 16.2437 30.3879C16.214 30.4629 16.0374 30.6592 16.2593 30.5985C16.3328 30.5826 16.3922 30.5235 16.45 30.4932C16.4656 30.5076 16.3922 30.7182 16.3765 30.7645C16.3328 30.8682 16.2296 30.9592 16.2593 31.0789C15.9937 31.3055 15.6405 31.4396 15.4201 31.7252C15.3905 31.7555 15.2436 31.9822 15.2732 32.0268C15.317 32.0268 15.4639 31.9215 15.4639 32.0268C15.317 32.0572 15.1701 32.2375 15.081 32.3716C14.8904 32.6429 14.7419 32.9588 14.5216 33.2142C14.4481 33.2748 14.184 33.4089 14.3887 33.4552L14.581 33.4695C14.1778 33.8956 14.0699 34.5085 13.7621 35H1.88689C0.389789 35 -0.508782 33.302 0.31009 32.0237L20.2771 0.870162C21.021 -0.290054 22.6853 -0.290054 23.4291 0.870162L43.404 32.0221C44.2244 33.302 43.3258 35 41.8287 35H28.869Z" fill="#FF3333"/>
<path d="M54.7592 22.715C55.337 21.5997 56.1418 20.7529 57.1943 20.1332C58.2467 19.5136 59.4849 19.2038 60.8882 19.2038C61.9613 19.2038 62.9518 19.4104 63.8185 19.8234C64.6853 20.2365 65.4075 20.8355 65.9647 21.5997C66.5013 22.3638 66.8521 23.252 67.0172 24.2433H64.644C64.3964 23.3346 63.9424 22.6117 63.282 22.0747C62.601 21.5584 61.7755 21.2899 60.785 21.2899C59.877 21.2899 59.0928 21.517 58.4324 21.9714C57.7514 22.4258 57.2355 23.0454 56.8847 23.8303C56.5133 24.6151 56.3482 25.5239 56.3482 26.5566C56.3482 27.5892 56.5133 28.498 56.8847 29.2828C57.2355 30.0883 57.7514 30.7079 58.4324 31.1623C59.0928 31.6167 59.877 31.8232 60.785 31.8232C61.7755 31.8232 62.601 31.5754 63.2614 31.0384C63.9217 30.5221 64.3757 29.7992 64.6234 28.8698H66.9965C66.8314 29.9025 66.4806 30.7906 65.9441 31.5341C65.4075 32.2983 64.7059 32.8766 63.8392 33.2897C62.9724 33.7027 61.9819 33.9093 60.8882 33.9093C59.4849 33.9093 58.2467 33.6201 57.1943 33.0005C56.1418 32.4016 55.337 31.5547 54.7592 30.4394C54.1814 29.3241 53.9131 28.0436 53.9131 26.5566C53.9131 25.1108 54.1814 23.8303 54.7592 22.715Z" fill="#FF3333"/>
<path d="M78.9255 31.8439V33.7853H77.7492C77.0476 33.7853 76.5523 33.6408 76.2634 33.3516C75.9538 33.0625 75.8094 32.6494 75.8094 32.0917C75.0046 33.3103 73.8489 33.9093 72.3218 33.9093C71.1249 33.9093 70.1757 33.6408 69.474 33.0831C68.7517 32.5461 68.4009 31.7819 68.4009 30.8112C68.4009 29.7372 68.7724 28.8904 69.5566 28.3121C70.3201 27.7338 71.4345 27.424 72.9203 27.424H75.5824V26.7837C75.5824 26.2054 75.376 25.7304 74.9633 25.3999C74.5506 25.0695 73.9727 24.8836 73.2505 24.8836C72.5901 24.8836 72.0536 25.0282 71.6408 25.3173C71.2281 25.6065 70.9805 25.9782 70.8979 26.4326H68.7105C68.8137 25.3793 69.2883 24.5531 70.1137 23.9748C70.9392 23.3965 72.0123 23.0867 73.3537 23.0867C74.7569 23.0867 75.8507 23.4172 76.6348 24.0781C77.3984 24.739 77.7905 25.6891 77.7905 26.9283V31.1004C77.7905 31.5961 78.0175 31.8439 78.4921 31.8439H78.9255ZM75.5824 29.0763H72.8171C72.1155 29.0763 71.5996 29.2209 71.2281 29.4894C70.8567 29.7579 70.6709 30.1503 70.6709 30.6666C70.6709 31.121 70.836 31.4928 71.1868 31.7613C71.5377 32.0504 72.0123 32.1744 72.6314 32.1744C73.5394 32.1744 74.2617 31.9265 74.7776 31.4308C75.2935 30.9351 75.5617 30.2742 75.5824 29.4481V29.0763Z" fill="#FF3333"/>
<path d="M78.7646 23.2106H81.1584L84.0681 31.3895L86.9366 23.2106H89.2891L85.3888 33.7853H82.6648L78.7646 23.2106Z" fill="#FF3333"/>
<path d="M90.2619 25.6684C90.6953 24.8423 91.2937 24.2227 92.0779 23.7683C92.8621 23.3139 93.7495 23.0867 94.7606 23.0867C95.7718 23.0867 96.6592 23.2933 97.4434 23.7063C98.2276 24.1194 98.826 24.7184 99.28 25.4619C99.734 26.2261 99.961 27.1142 99.9816 28.1262C99.9816 28.4154 99.961 28.6839 99.9197 28.973H91.9541V29.097C91.9954 30.0264 92.2843 30.7493 92.8208 31.2862C93.3367 31.8232 94.0384 32.0917 94.9051 32.0917C95.5861 32.0917 96.1639 31.9472 96.6385 31.6167C97.0925 31.2862 97.4021 30.8319 97.5672 30.2329H99.7959C99.5895 31.3069 99.0736 32.195 98.2275 32.8766C97.3815 33.5788 96.329 33.9093 95.0702 33.9093C93.9558 33.9093 93.0066 33.7027 92.1811 33.2484C91.3556 32.794 90.7365 32.1744 90.2825 31.3482C89.8286 30.5427 89.6222 29.5926 89.6222 28.5186C89.6222 27.4447 89.8286 26.4946 90.2619 25.6684ZM97.7116 27.3414C97.6085 26.5772 97.2989 25.9782 96.783 25.5445C96.2671 25.1108 95.6274 24.8836 94.8432 24.8836C94.1003 24.8836 93.4812 25.1108 92.9446 25.5652C92.4081 26.0196 92.1192 26.5979 92.0366 27.3414H97.7116Z" fill="#FF3333"/>
<path d="M107.624 23.2106V25.2967H106.633C105.704 25.2967 105.044 25.6065 104.631 26.2054C104.219 26.8044 104.012 27.5686 104.012 28.4773V33.7853H101.783V23.2106H103.765L104.012 24.801C104.301 24.3053 104.693 23.9335 105.188 23.6444C105.663 23.3552 106.303 23.2106 107.128 23.2106H107.624Z" fill="#FF3333"/>
<path d="M117.664 24.2433C118.449 25.0282 118.861 26.2674 118.861 27.961V33.7853H116.612V28.0849C116.612 27.0935 116.385 26.3294 115.972 25.7924C115.539 25.276 114.92 25.0075 114.094 25.0075C113.207 25.0075 112.505 25.3173 112.01 25.9369C111.515 26.5566 111.267 27.3827 111.267 28.4567V33.7853H109.038V23.2106H110.978L111.226 24.5944C112.01 23.6031 113.145 23.0867 114.61 23.0867C115.848 23.0867 116.88 23.4791 117.664 24.2433Z" fill="#FF3333"/>
<path d="M131 31.8439V33.7853H129.824C129.122 33.7853 128.627 33.6408 128.338 33.3516C128.028 33.0625 127.884 32.6494 127.884 32.0917C127.079 33.3103 125.923 33.9093 124.396 33.9093C123.199 33.9093 122.25 33.6408 121.549 33.0831C120.826 32.5461 120.475 31.7819 120.475 30.8112C120.475 29.7372 120.847 28.8904 121.631 28.3121C122.395 27.7338 123.509 27.424 124.995 27.424H127.657V26.7837C127.657 26.2054 127.451 25.7304 127.038 25.3999C126.625 25.0695 126.047 24.8836 125.325 24.8836C124.665 24.8836 124.128 25.0282 123.715 25.3173C123.303 25.6065 123.055 25.9782 122.972 26.4326H120.785C120.888 25.3793 121.363 24.5531 122.188 23.9748C123.014 23.3965 124.087 23.0867 125.428 23.0867C126.831 23.0867 127.925 23.4172 128.709 24.0781C129.473 24.739 129.865 25.6891 129.865 26.9283V31.1004C129.865 31.5961 130.092 31.8439 130.567 31.8439H131ZM127.657 29.0763H124.892C124.19 29.0763 123.674 29.2209 123.303 29.4894C122.931 29.7579 122.745 30.1503 122.745 30.6666C122.745 31.121 122.911 31.4928 123.261 31.7613C123.612 32.0504 124.087 32.1744 124.706 32.1744C125.614 32.1744 126.336 31.9265 126.852 31.4308C127.368 30.9351 127.636 30.2742 127.657 29.4481V29.0763Z" fill="#FF3333"/>
<path d="M53.9131 0.000423269H56.9526L61.522 11.2499L66.0099 0.000423269H68.9882V14.2919H66.7238V3.77746L62.44 14.2919H60.4613L56.1774 3.77746V14.2919H53.9131V0.000423269Z" fill="white"/>
<path d="M73.5206 13.7611C72.7046 13.3119 72.0927 12.6994 71.6439 11.8828C71.1951 11.0661 70.9911 10.127 70.9911 9.06532C70.9911 8.02408 71.1951 7.10534 71.6439 6.28869C72.0927 5.47203 72.7046 4.83912 73.5206 4.38996C74.3366 3.9408 75.2546 3.71621 76.3153 3.71621C77.3557 3.71621 78.2736 3.9408 79.0896 4.38996C79.9056 4.83912 80.5176 5.47203 80.9663 6.28869C81.4151 7.10534 81.6395 8.02408 81.6395 9.06532C81.6395 10.127 81.4151 11.0661 80.9663 11.8828C80.5176 12.6994 79.9056 13.3119 79.0896 13.7611C78.2736 14.2103 77.3557 14.4144 76.3153 14.4144C75.2546 14.4144 74.3366 14.2103 73.5206 13.7611ZM78.5388 11.5765C79.11 10.9232 79.3956 10.0861 79.3956 9.06532C79.3956 8.0445 79.11 7.22784 78.5388 6.57451C77.9677 5.92119 77.2333 5.59453 76.3153 5.59453C75.377 5.59453 74.6426 5.92119 74.0918 6.57451C73.5206 7.22784 73.2554 8.0445 73.2554 9.06532C73.2554 10.0861 73.5206 10.9232 74.0918 11.5765C74.6426 12.2299 75.377 12.5361 76.3153 12.5361C77.2333 12.5361 77.9677 12.2299 78.5388 11.5765Z" fill="white"/>
<path d="M93.5495 0.000423269V14.2919H91.632L91.3668 12.7199C90.5304 13.8632 89.3881 14.4144 87.9601 14.4144C87.0013 14.4144 86.1446 14.2103 85.4102 13.7815C84.6554 13.3528 84.0639 12.7403 83.6559 11.9236C83.2275 11.107 83.0235 10.1678 83.0235 9.06532C83.0235 8.00366 83.2275 7.08493 83.6559 6.26827C84.0843 5.45161 84.6758 4.83912 85.4306 4.38996C86.165 3.9408 87.0217 3.71621 87.9601 3.71621C88.7149 3.71621 89.3881 3.85913 89.9592 4.14496C90.5304 4.43079 90.9792 4.79828 91.3464 5.28828V0.000423269H93.5495ZM90.5304 11.597C91.0812 10.964 91.3668 10.127 91.3668 9.10615C91.3668 8.06491 91.0812 7.22784 90.5304 6.57451C89.9592 5.92119 89.2249 5.59453 88.3273 5.59453C87.4093 5.59453 86.675 5.92119 86.1242 6.57451C85.553 7.22784 85.2878 8.0445 85.2878 9.06532C85.2878 10.1066 85.553 10.9436 86.1242 11.597C86.675 12.2503 87.4093 12.5565 88.3273 12.5565C89.2249 12.5565 89.9592 12.2503 90.5304 11.597Z" fill="white"/>
<path d="M97.8444 13.7611C97.0284 13.3119 96.4164 12.6994 95.9676 11.8828C95.5188 11.0661 95.3148 10.127 95.3148 9.06532C95.3148 8.02408 95.5188 7.10534 95.9676 6.28869C96.4164 5.47203 97.0284 4.83912 97.8444 4.38996C98.6603 3.9408 99.5783 3.71621 100.639 3.71621C101.679 3.71621 102.597 3.9408 103.413 4.38996C104.229 4.83912 104.841 5.47203 105.29 6.28869C105.739 7.10534 105.963 8.02408 105.963 9.06532C105.963 10.127 105.739 11.0661 105.29 11.8828C104.841 12.6994 104.229 13.3119 103.413 13.7611C102.597 14.2103 101.679 14.4144 100.639 14.4144C99.5783 14.4144 98.6603 14.2103 97.8444 13.7611ZM102.863 11.5765C103.434 10.9232 103.719 10.0861 103.719 9.06532C103.719 8.0445 103.434 7.22784 102.863 6.57451C102.291 5.92119 101.557 5.59453 100.639 5.59453C99.7007 5.59453 98.9663 5.92119 98.4155 6.57451C97.8444 7.22784 97.5792 8.0445 97.5792 9.06532C97.5792 10.0861 97.8444 10.9232 98.4155 11.5765C98.9663 12.2299 99.7007 12.5361 100.639 12.5361C101.557 12.5361 102.291 12.2299 102.863 11.5765Z" fill="white"/>
</svg>
