<svg width="17" height="14" viewBox="0 0 17 14" fill="none" xmlns="http://www.w3.org/2000/svg">
<path fill-rule="evenodd" clip-rule="evenodd" d="M7.42192 0.530908L0.0903012 12.7503C-0.160391 13.1681 0.140573 13.6997 0.627832 13.6997L2.53484 13.6997C2.87001 13.6997 3.14165 13.4348 3.19633 13.1041C3.41822 11.7624 4.17231 10.5986 5.25621 9.81335C5.37831 9.72862 5.5475 9.79022 5.58654 9.93362L5.91919 11.1557C5.92774 11.1871 5.93744 11.2188 5.95599 11.2455C6.07591 11.4184 6.35926 11.361 6.38256 11.1532L7.03334 7.85311C7.07852 7.62914 7.348 7.58712 7.47368 7.74528C7.50187 7.78075 7.51353 7.82587 7.52274 7.87023L8.00949 10.2136C8.07718 10.4149 8.32782 10.4146 8.43163 10.2673C8.45493 10.2342 8.46343 10.1935 8.47021 10.1537L8.81044 8.15087C8.88554 7.90273 9.26097 7.95238 9.28601 8.22531L9.46122 11.5007C9.48623 11.7984 9.91175 11.7984 9.93679 11.5254L10.2872 8.94489C10.3122 8.67195 10.7127 8.67195 10.7628 8.92007L11.6638 12.4187C11.7139 12.6668 12.0894 12.6668 12.1394 12.4187L12.3096 10.7808C12.3311 10.5743 12.5697 10.5093 12.6636 10.6944C13 11.3574 13.214 12.3203 13.309 13.1036C13.3494 13.4362 13.6242 13.6997 13.9593 13.6997L15.3951 13.6997C15.8841 13.6997 16.1848 13.1647 15.9306 12.7469L8.49497 0.527564C8.24986 0.124764 7.66452 0.126587 7.42192 0.530908Z" fill="#71717A"/>
</svg>
