<svg width="206" height="186" viewBox="0 0 206 186" fill="none" xmlns="http://www.w3.org/2000/svg">
<path d="M136.041 185.949C135.746 184.869 135.304 183.621 135.098 183.267C134.958 183.022 134.266 181.917 134.266 181.757L136.556 183.899C136.829 183.739 136.689 183.739 136.689 183.579C136.622 183.267 135.857 181.672 135.65 181.276C134.472 178.897 132.602 176.906 130.724 175.16L130.797 175C131.836 175.076 132.808 174.283 133.78 174.84C133.22 173.33 131.836 172.216 130.584 171.347L130.657 171.103C131.004 171.347 133.088 171.423 133.22 171.187C133.294 171.103 133.294 170.951 133.22 170.791C133.154 170.546 131.769 169.441 131.416 169.12C130.098 167.686 128.92 166.101 127.881 164.354L129.266 165.223C129.553 165.333 130.444 165.864 130.915 165.864C131.129 165.864 131.254 165.763 131.21 165.468C131.21 165.223 128.787 162.524 128.573 161.891C129.059 161.891 129.479 162.448 129.965 162.6C130.171 162.684 130.724 162.684 130.657 162.364C128.573 159.504 127.881 155.852 126.497 152.595C126.563 152.435 126.703 152.595 126.703 152.671C127.189 152.992 127.601 153.388 128.087 153.304C128.227 153.228 127.741 152.115 127.675 151.954C127.255 150.208 127.469 148.538 127.255 146.792C127.189 146.311 126.909 145.754 126.909 145.206C127.049 145.046 127.535 145.602 127.675 145.754C128.021 145.999 128.434 146.311 128.787 146.311C128.924 146.367 128.993 146.342 128.993 146.235L127.535 141.073L127.881 140.988C127.947 140.516 127.395 138.129 127.255 137.496C127.189 137.26 126.703 136.222 126.703 135.986L127.815 137.412L128.087 136.779C128.087 135.193 127.815 133.599 127.189 132.173C126.983 131.692 126.563 131.136 126.563 130.739C126.843 131.136 127.881 131.692 127.741 130.824C127.675 130.579 126.769 129.389 126.563 128.993C125.245 126.37 125.245 123.029 123.927 120.33C123.787 120.094 123.028 118.98 122.955 118.82C122.955 118.769 122.979 118.744 123.028 118.744C123.374 119.056 125.525 119.301 125.525 118.66C124.832 117.943 124.067 117.47 123.374 116.838C121.776 115.243 119.42 112.063 118.654 109.845C117.13 105.787 116.577 97.2842 117.476 92.999C118.242 89.4223 119.486 87.4316 118.514 83.5428C117.895 80.9953 116.923 77.9754 114.493 77.2669C114.007 77.1825 113.035 77.1825 112.689 76.9463C112.343 76.5498 111.231 73.7662 110.885 73.1335C109.707 70.9065 107.836 68.5193 106.098 66.8575C105.936 66.6635 105.516 66.4273 105.347 66.2586C105.266 66.1911 105.222 66.0899 105.178 65.9887C105.038 65.6428 104.971 64.968 104.854 64.6305C104.449 63.5761 103.624 63.3399 103.152 63.0194C102.968 62.9013 102.851 62.682 102.806 62.4458C102.799 62.3699 102.784 62.2939 102.77 62.2096C102.703 61.9396 102.519 61.7203 102.291 61.636C101.797 61.4504 100.943 61.2901 100.553 61.2901C96.7383 60.9696 94.6543 63.8376 93.8884 67.7264C93.3361 70.4257 93.8884 72.2562 93.962 74.8037C93.962 78.6165 93.3361 82.9861 92.5702 86.7146C92.1578 88.6294 91.7381 89.8188 90.4935 91.2444C87.5773 94.7451 84.0425 93.6316 82.2383 99.0388C81.4062 101.502 80.7802 104.758 79.602 107.061C79.3958 107.381 78.1439 109.043 78.4237 109.288C78.49 109.288 79.116 109.128 79.0423 109.448C78.976 109.684 78.7698 110.005 78.6299 110.401C78.49 110.874 77.8641 113.016 77.8641 113.337C77.8641 113.573 78.004 113.733 78.004 114.13C77.9377 114.611 77.2455 116.196 77.6579 116.281L78.004 116.196C78.1439 116.441 77.378 119.14 77.2455 119.613C76.9656 121.047 76.8257 122.397 76.2734 123.746C76.0598 124.143 75.0951 125.416 75.3676 125.813C75.8536 126.133 76.3397 125.889 76.7594 125.737C76.9656 125.653 76.9656 125.492 76.9656 125.737C74.9552 128.436 73.7033 131.692 72.039 134.552C71.8328 134.873 70.7209 136.382 70.7209 136.703C70.8608 136.779 71.4867 136.543 71.3468 136.855C71.2732 137.1 70.0949 138.053 70.0286 138.213C69.955 138.449 70.0286 138.525 70.0949 138.685H70.441C70.6546 138.922 70.3747 138.846 70.3085 139.006C68.0182 141.469 65.9342 144.885 63.99 147.669C63.6439 148.217 62.8854 148.934 62.6056 149.415C62.5393 149.576 62.3994 149.727 62.4657 149.972L62.8854 150.284V150.529C62.6056 150.444 62.1196 151.085 62.2595 151.237H63.7838C64.3362 151.237 65.5218 151.794 66.1404 151.954C68.2907 152.435 69.955 152.191 72.039 152.351C73.7033 152.435 75.2277 152.992 76.7594 153.304C76.5459 153.861 76.2734 154.417 76.0598 154.974C75.9273 155.371 75.3676 157.361 75.4413 157.598C75.7137 158.551 76.7594 156.012 77.2455 156.248C76.8257 156.72 75.7874 160.137 75.7874 160.542C75.8536 160.778 76.1335 160.693 76.2734 160.542C76.6195 160.297 76.9656 158.947 77.5179 158.627C77.4517 159.108 77.1718 159.588 76.9656 160.061C76.8257 160.542 76.7594 161.09 76.5459 161.571C76.406 161.967 75.5738 163.005 76.6195 162.684C76.9656 162.6 77.2455 162.288 77.5179 162.128C77.5916 162.203 77.2455 163.317 77.1718 163.562C76.9656 164.11 76.4796 164.591 76.6195 165.223C75.3676 166.421 73.7033 167.13 72.665 168.64C72.5251 168.8 71.8328 169.998 71.9728 170.234C72.1789 170.234 72.8712 169.677 72.8712 170.234C72.1789 170.394 71.4867 171.347 71.067 172.056C70.1685 173.49 69.4689 175.16 68.4306 176.51C68.0845 176.83 66.84 177.539 67.8047 177.784L68.7104 177.86C66.8105 180.112 66.3024 183.351 64.8516 185.949H8.89165C1.83682 185.949 -2.39755 176.974 1.46125 170.217L95.5527 5.54865C99.058 -0.583925 106.901 -0.583925 110.406 5.54865L204.534 170.209C208.401 176.974 204.166 185.949 197.111 185.949H136.041Z" fill="#FF3333"/>
</svg>
