<svg width="196" height="179" viewBox="0 0 196 179" fill="none" xmlns="http://www.w3.org/2000/svg">
<path d="M116.964 88C116.804 87.4864 116.563 86.8925 116.451 86.724C116.375 86.6077 115.999 86.082 115.999 86.0058L117.244 87.025C117.392 86.9487 117.316 86.9487 117.316 86.8725C117.28 86.724 116.864 85.9656 116.752 85.7771C116.111 84.6455 115.094 83.6986 114.073 82.868L114.113 82.7917C114.678 82.8278 115.206 82.4507 115.735 82.7155C115.43 81.9972 114.678 81.4676 113.997 81.0543L114.037 80.9379C114.225 81.0543 115.358 81.0904 115.43 80.9781C115.47 80.9379 115.47 80.8657 115.43 80.7895C115.394 80.6731 114.642 80.1475 114.449 79.995C113.733 79.3129 113.092 78.5585 112.528 77.7279L113.28 78.1412C113.436 78.1934 113.921 78.4461 114.177 78.4461C114.293 78.4461 114.361 78.398 114.337 78.2576C114.337 78.1412 113.02 76.8572 112.904 76.5562C113.168 76.5562 113.396 76.8211 113.661 76.8933C113.773 76.9334 114.073 76.9334 114.037 76.7809C112.904 75.4207 112.528 73.6833 111.775 72.1344C111.811 72.0582 111.887 72.1344 111.887 72.1705C112.151 72.323 112.375 72.5116 112.64 72.4715C112.716 72.4354 112.452 71.9057 112.416 71.8295C112.187 70.9989 112.303 70.2044 112.187 69.3738C112.151 69.1451 111.999 68.8802 111.999 68.6194C112.075 68.5432 112.339 68.808 112.416 68.8802C112.604 68.9966 112.828 69.1451 113.02 69.1451C113.095 69.1718 113.132 69.1598 113.132 69.109L112.339 66.6533L112.528 66.6132C112.564 66.3885 112.263 65.2529 112.187 64.952C112.151 64.8396 111.887 64.3461 111.887 64.2337L112.492 64.9119L112.64 64.6109C112.64 63.8566 112.492 63.0982 112.151 62.4201C112.039 62.1913 111.811 61.9265 111.811 61.7379C111.963 61.9265 112.528 62.1913 112.452 61.7781C112.416 61.6617 111.923 61.0959 111.811 60.9073C111.094 59.6594 111.094 58.0705 110.378 56.7865C110.302 56.6741 109.889 56.1444 109.849 56.0682C109.849 56.0441 109.862 56.0321 109.889 56.0321C110.077 56.1806 111.246 56.2969 111.246 55.992C110.87 55.6509 110.454 55.4262 110.077 55.1253C109.208 54.3669 107.927 52.8542 107.511 51.7989C106.682 49.8688 106.382 45.8242 106.87 43.7858C107.287 42.0845 107.963 41.1376 107.435 39.2878C107.098 38.076 106.57 36.6395 105.249 36.3024C104.984 36.2623 104.456 36.2623 104.268 36.15C104.08 35.9614 103.475 34.6372 103.287 34.3363C102.646 33.277 101.629 32.1414 100.684 31.351C100.596 31.2587 100.368 31.1463 100.276 31.0661C100.232 31.034 100.208 30.9858 100.184 30.9377C100.108 30.7732 100.072 30.4522 100.008 30.2917C99.7876 29.7901 99.3391 29.6777 99.0829 29.5253C98.9828 29.4691 98.9187 29.3648 98.8947 29.2524C98.8907 29.2163 98.8827 29.1802 98.8747 29.1401C98.8387 29.0117 98.7386 28.9073 98.6144 28.8672C98.3462 28.7789 97.8817 28.7027 97.6695 28.7027C95.5956 28.5502 94.4625 29.9145 94.0461 31.7643C93.7458 33.0483 94.0461 33.919 94.0862 35.1308C94.0862 36.9445 93.7458 39.0229 93.3294 40.7965C93.1052 41.7073 92.877 42.2731 92.2004 42.9512C90.6149 44.6164 88.693 44.0868 87.7121 46.6588C87.2597 47.8305 86.9194 49.3793 86.2788 50.4747C86.1666 50.6272 85.486 51.4177 85.6381 51.534C85.6742 51.534 86.0145 51.4578 85.9745 51.6103C85.9384 51.7226 85.8263 51.8751 85.7502 52.0637C85.6742 52.2884 85.3339 53.3076 85.3339 53.4601C85.3339 53.5724 85.4099 53.6487 85.4099 53.8372C85.3739 54.066 84.9975 54.8203 85.2217 54.8604L85.4099 54.8203C85.486 54.9367 85.0696 56.2207 84.9975 56.4454C84.8454 57.1275 84.7693 57.7695 84.469 58.4115C84.3529 58.6001 83.8284 59.206 83.9766 59.3946C84.2408 59.5471 84.5051 59.4307 84.7333 59.3585C84.8454 59.3184 84.8454 59.2421 84.8454 59.3585C83.7524 60.6425 83.0717 62.1913 82.1669 63.5516C82.0547 63.7041 81.4502 64.4223 81.4502 64.5748C81.5262 64.6109 81.8666 64.4986 81.7905 64.647C81.7505 64.7634 81.1098 65.2168 81.0738 65.293C81.0338 65.4054 81.0738 65.4415 81.1098 65.5177H81.298C81.4141 65.6301 81.262 65.594 81.226 65.6702C79.9808 66.8419 78.8477 68.467 77.7907 69.7911C77.6025 70.0519 77.1901 70.393 77.038 70.6217C77.002 70.6979 76.9259 70.7702 76.9619 70.8865L77.1901 71.035V71.1514C77.038 71.1112 76.7737 71.4162 76.8498 71.4884H77.6786C77.9789 71.4884 78.6235 71.7532 78.9598 71.8295C80.1289 72.0582 81.0338 71.9418 82.1669 72.0181C83.0717 72.0582 83.9005 72.323 84.7333 72.4715C84.6172 72.7363 84.469 73.0011 84.3529 73.266C84.2809 73.4545 83.9766 74.4015 84.0166 74.5139C84.1647 74.9673 84.7333 73.7595 84.9975 73.8718C84.7693 74.0965 84.2048 75.7216 84.2048 75.9142C84.2408 76.0266 84.393 75.9865 84.469 75.9142C84.6572 75.7979 84.8454 75.1559 85.1457 75.0034C85.1096 75.2321 84.9575 75.4608 84.8454 75.6855C84.7693 75.9142 84.7333 76.175 84.6172 76.4038C84.5411 76.5924 84.0887 77.0859 84.6572 76.9334C84.8454 76.8933 84.9975 76.7448 85.1457 76.6686C85.1857 76.7047 84.9975 77.2344 84.9575 77.3507C84.8454 77.6115 84.5811 77.8402 84.6572 78.1412C83.9766 78.711 83.0717 79.048 82.5072 79.7663C82.4311 79.8425 82.0547 80.4123 82.1308 80.5246C82.2429 80.5246 82.6193 80.2598 82.6193 80.5246C82.2429 80.6009 81.8666 81.0543 81.6384 81.3913C81.1499 82.0735 80.7695 82.868 80.205 83.51C80.0168 83.6624 79.3402 83.9995 79.8647 84.1159L80.3571 84.152C79.3242 85.2233 79.0479 86.7641 78.2591 88H47.8343C43.9987 88 41.6965 83.7307 43.7945 80.5166L94.951 2.18784C96.8568 -0.729279 101.121 -0.729279 103.027 2.18784L154.203 80.5126C156.305 83.7307 154.003 88 150.167 88H116.964Z" fill="#FF3333"/>
<path d="M2.15126 150.943C3.62041 148.148 5.66672 146.025 8.34268 144.472C11.0186 142.919 14.1668 142.143 17.7347 142.143C20.4632 142.143 22.9817 142.661 25.1854 143.696C27.3892 144.731 29.2256 146.232 30.6423 148.148C32.0065 150.063 32.8985 152.289 33.3182 154.774H27.2842C26.6546 152.496 25.5003 150.684 23.8212 149.338C22.0897 148.044 19.9909 147.371 17.4724 147.371C15.1637 147.371 13.1699 147.941 11.4909 149.079C9.75936 150.218 8.44762 151.771 7.55563 153.738C6.61118 155.705 6.19142 157.983 6.19142 160.571C6.19142 163.16 6.61118 165.437 7.55563 167.404C8.44762 169.423 9.75936 170.976 11.4909 172.115C13.1699 173.254 15.1637 173.772 17.4724 173.772C19.9909 173.772 22.0897 173.15 23.7688 171.805C25.4478 170.51 26.6021 168.699 27.2318 166.369H33.2658C32.846 168.957 31.954 171.183 30.5898 173.047C29.2256 174.962 27.4416 176.412 25.2379 177.447C23.0342 178.482 20.5156 179 17.7347 179C14.1668 179 11.0186 178.275 8.34268 176.722C5.66672 175.221 3.62041 173.099 2.15126 170.303C0.682105 167.508 0 164.299 0 160.571C0 156.948 0.682105 153.738 2.15126 150.943Z" fill="#FF3333"/>
<path d="M63.5961 173.823V178.689H60.6053C58.8214 178.689 57.5621 178.327 56.8275 177.602C56.0405 176.878 55.6732 175.842 55.6732 174.445C53.6269 177.499 50.6886 179 46.8058 179C43.7626 179 41.349 178.327 39.565 176.929C37.7286 175.583 36.8366 173.668 36.8366 171.235C36.8366 168.543 37.781 166.421 39.7749 164.972C41.7162 163.522 44.5496 162.746 48.3274 162.746H55.096V161.141C55.096 159.691 54.5713 158.501 53.5219 157.673C52.4725 156.844 51.0034 156.378 49.1669 156.378C47.4879 156.378 46.1237 156.741 45.0743 157.465C44.0249 158.19 43.3953 159.122 43.1854 160.261H37.6236C37.886 157.621 39.0928 155.55 41.1915 154.101C43.2903 152.651 46.0188 151.875 49.4293 151.875C52.9972 151.875 55.7781 152.703 57.772 154.36C59.7133 156.016 60.7103 158.397 60.7103 161.503V171.96C60.7103 173.202 61.2874 173.823 62.4942 173.823H63.5961ZM55.096 166.887H48.0651C46.2811 166.887 44.9694 167.249 44.0249 167.922C43.0805 168.595 42.6082 169.579 42.6082 170.873C42.6082 172.012 43.028 172.943 43.92 173.616C44.812 174.341 46.0188 174.652 47.5929 174.652C49.9015 174.652 51.738 174.03 53.0497 172.788C54.3614 171.546 55.0435 169.889 55.096 167.819V166.887Z" fill="#FF3333"/>
<path d="M63.187 152.185H69.2735L76.6717 172.685L83.965 152.185H89.9465L80.0297 178.689H73.1038L63.187 152.185Z" fill="#FF3333"/>
<path d="M92.42 158.346C93.5218 156.275 95.0435 154.722 97.0373 153.583C99.0312 152.444 101.287 151.875 103.858 151.875C106.429 151.875 108.686 152.392 110.679 153.428C112.673 154.463 114.195 155.964 115.349 157.828C116.504 159.743 117.081 161.969 117.133 164.506C117.133 165.23 117.081 165.903 116.976 166.628H96.7225V166.939C96.8274 169.268 97.562 171.08 98.9262 172.426C100.238 173.772 102.022 174.445 104.226 174.445C105.957 174.445 107.426 174.082 108.633 173.254C109.787 172.426 110.574 171.287 110.994 169.786H116.661C116.136 172.478 114.825 174.703 112.673 176.412C110.522 178.172 107.846 179 104.645 179C101.812 179 99.3984 178.482 97.2997 177.344C95.2009 176.205 93.6268 174.652 92.4724 172.581C91.3181 170.562 90.7934 168.181 90.7934 165.489C90.7934 162.797 91.3181 160.416 92.42 158.346ZM111.362 162.539C111.099 160.623 110.312 159.122 109 158.035C107.689 156.948 106.062 156.378 104.068 156.378C102.179 156.378 100.605 156.948 99.241 158.087C97.8768 159.226 97.1422 160.675 96.9324 162.539H111.362Z" fill="#FF3333"/>
<path d="M136.563 152.185V157.414H134.045C131.684 157.414 130.005 158.19 128.955 159.691C127.906 161.193 127.381 163.108 127.381 165.386V178.689H121.714V152.185H126.752L127.381 156.171C128.116 154.929 129.113 153.997 130.372 153.272C131.579 152.548 133.205 152.185 135.304 152.185H136.563Z" fill="#FF3333"/>
<path d="M162.093 154.774C164.087 156.741 165.136 159.847 165.136 164.091V178.689H159.417V164.402C159.417 161.917 158.84 160.002 157.791 158.656C156.689 157.362 155.115 156.689 153.016 156.689C150.76 156.689 148.976 157.465 147.716 159.018C146.457 160.571 145.828 162.642 145.828 165.334V178.689H140.161V152.185H145.093L145.723 155.654C147.716 153.169 150.602 151.875 154.328 151.875C157.476 151.875 160.099 152.858 162.093 154.774Z" fill="#FF3333"/>
<path d="M196 173.823V178.689H193.009C191.225 178.689 189.966 178.327 189.231 177.602C188.444 176.878 188.077 175.842 188.077 174.445C186.031 177.499 183.092 179 179.21 179C176.166 179 173.753 178.327 171.969 176.929C170.132 175.583 169.24 173.668 169.24 171.235C169.24 168.543 170.185 166.421 172.179 164.972C174.12 163.522 176.953 162.746 180.731 162.746H187.5V161.141C187.5 159.691 186.975 158.501 185.926 157.673C184.876 156.844 183.407 156.378 181.571 156.378C179.892 156.378 178.528 156.741 177.478 157.465C176.429 158.19 175.799 159.122 175.589 160.261H170.027C170.29 157.621 171.497 155.55 173.595 154.101C175.694 152.651 178.423 151.875 181.833 151.875C185.401 151.875 188.182 152.703 190.176 154.36C192.117 156.016 193.114 158.397 193.114 161.503V171.96C193.114 173.202 193.691 173.823 194.898 173.823H196ZM187.5 166.887H180.469C178.685 166.887 177.373 167.249 176.429 167.922C175.484 168.595 175.012 169.579 175.012 170.873C175.012 172.012 175.432 172.943 176.324 173.616C177.216 174.341 178.423 174.652 179.997 174.652C182.305 174.652 184.142 174.03 185.454 172.788C186.765 171.546 187.447 169.889 187.5 167.819V166.887Z" fill="#FF3333"/>
<path d="M29.7722 93H37.5957L49.3572 121.765L60.9087 93H68.5746V129.544H62.7464V102.658L51.72 129.544H46.6268L35.6004 102.658V129.544H29.7722V93Z" fill="white"/>
<path d="M80.241 128.187C78.1407 127.038 76.5655 125.472 75.4104 123.384C74.2552 121.295 73.7302 118.894 73.7302 116.179C73.7302 113.517 74.2552 111.168 75.4104 109.079C76.5655 106.991 78.1407 105.373 80.241 104.224C82.3413 103.076 84.7041 102.501 87.4344 102.501C90.1123 102.501 92.4751 103.076 94.5753 104.224C96.6756 105.373 98.2508 106.991 99.406 109.079C100.561 111.168 101.139 113.517 101.139 116.179C101.139 118.894 100.561 121.295 99.406 123.384C98.2508 125.472 96.6756 127.038 94.5753 128.187C92.4751 129.335 90.1123 129.857 87.4344 129.857C84.7041 129.857 82.3413 129.335 80.241 128.187ZM93.1576 122.601C94.6278 120.93 95.3629 118.79 95.3629 116.179C95.3629 113.569 94.6278 111.481 93.1576 109.81C91.6875 108.14 89.7972 107.304 87.4344 107.304C85.0191 107.304 83.1289 108.14 81.7112 109.81C80.241 111.481 79.5584 113.569 79.5584 116.179C79.5584 118.79 80.241 120.93 81.7112 122.601C83.1289 124.271 85.0191 125.054 87.4344 125.054C89.7972 125.054 91.6875 124.271 93.1576 122.601Z" fill="white"/>
<path d="M131.794 93V129.544H126.859L126.176 125.524C124.023 128.448 121.083 129.857 117.408 129.857C114.94 129.857 112.734 129.335 110.844 128.239C108.901 127.142 107.379 125.576 106.329 123.488C105.226 121.4 104.701 118.998 104.701 116.179C104.701 113.465 105.226 111.115 106.329 109.027C107.431 106.939 108.954 105.373 110.897 104.224C112.787 103.076 114.992 102.501 117.408 102.501C119.35 102.501 121.083 102.867 122.553 103.598C124.023 104.329 125.179 105.268 126.124 106.521V93H131.794ZM124.023 122.653C125.441 121.034 126.176 118.894 126.176 116.284C126.176 113.621 125.441 111.481 124.023 109.81C122.553 108.14 120.663 107.304 118.353 107.304C115.99 107.304 114.1 108.14 112.682 109.81C111.212 111.481 110.529 113.569 110.529 116.179C110.529 118.842 111.212 120.982 112.682 122.653C114.1 124.323 115.99 125.106 118.353 125.106C120.663 125.106 122.553 124.323 124.023 122.653Z" fill="white"/>
<path d="M142.849 128.187C140.749 127.038 139.174 125.472 138.019 123.384C136.863 121.295 136.338 118.894 136.338 116.179C136.338 113.517 136.863 111.168 138.019 109.079C139.174 106.991 140.749 105.373 142.849 104.224C144.949 103.076 147.312 102.501 150.043 102.501C152.72 102.501 155.083 103.076 157.183 104.224C159.284 105.373 160.859 106.991 162.014 109.079C163.169 111.168 163.747 113.517 163.747 116.179C163.747 118.894 163.169 121.295 162.014 123.384C160.859 125.472 159.284 127.038 157.183 128.187C155.083 129.335 152.72 129.857 150.043 129.857C147.312 129.857 144.949 129.335 142.849 128.187ZM155.766 122.601C157.236 120.93 157.971 118.79 157.971 116.179C157.971 113.569 157.236 111.481 155.766 109.81C154.296 108.14 152.405 107.304 150.043 107.304C147.627 107.304 145.737 108.14 144.319 109.81C142.849 111.481 142.167 113.569 142.167 116.179C142.167 118.79 142.849 120.93 144.319 122.601C145.737 124.271 147.627 125.054 150.043 125.054C152.405 125.054 154.296 124.271 155.766 122.601Z" fill="white"/>
</svg>
