<svg width="1512" height="982" viewBox="0 0 1512 982" fill="none" xmlns="http://www.w3.org/2000/svg">
<g clip-path="url(#clip0_82_155)">
<path d="M11 636L151.5 545.5H217V392.5L318.5 343L380.5 334V280.5H423L478 103H670L727 76.5L799.5 35.5L902.5 103L957.5 135L1071.5 119L1165.5 241.5V304L1281 403L1300.5 490L1366 502.5L1403.5 717.5H1490.5H1513.5" stroke="#71717A"/>
<path d="M-93.166 716.978L62.8879 616.459H135.639V446.521L248.375 391.541L317.239 381.545V322.122H364.444L425.533 124.973H638.788L702.098 95.5389L782.624 50L897.026 124.973L958.115 160.515L1084.74 142.744L1189.14 278.805V348.224L1317.43 458.184L1339.09 554.815L1411.84 568.699L1453.49 807.5H1550.12H1575.67" stroke="#3F3F46" stroke-width="1.1107"/>
<path d="M-163.166 696.978L-7.11213 596.459H65.639V426.521L178.375 371.541L247.239 361.545V302.122H294.444L355.533 104.973H568.788L632.098 75.5389L712.624 30L827.026 104.973L888.115 140.515L1014.74 122.744L1119.14 258.805V328.224L1247.43 438.184L1269.09 534.815L1341.84 548.699L1383.49 787.5H1480.12H1505.67" stroke="#3F3F46" stroke-width="1.1107"/>
</g>
<defs>
<clipPath id="clip0_82_155">
<rect width="1512" height="982" fill="white"/>
</clipPath>
</defs>
</svg>
