<svg width="18" height="16" viewBox="0 0 18 16" fill="none" xmlns="http://www.w3.org/2000/svg">
<path d="M17.4375 5.5C17.4381 5.41288 17.4265 5.32611 17.4031 5.24219L16.2812 1.32109C16.1872 0.995461 15.9903 0.709033 15.7199 0.504684C15.4495 0.300334 15.1202 0.189054 14.7812 0.1875H3.21875C2.87982 0.189054 2.55051 0.300334 2.28011 0.504684C2.00971 0.709033 1.81276 0.995461 1.71875 1.32109L0.598438 5.24219C0.574528 5.32604 0.562432 5.41281 0.5625 5.5V6.75C0.562418 7.25658 0.674453 7.7569 0.890569 8.21506C1.10668 8.67323 1.42152 9.07788 1.8125 9.4V14.875C1.8125 15.1236 1.91127 15.3621 2.08709 15.5379C2.2629 15.7137 2.50136 15.8125 2.75 15.8125H15.25C15.4986 15.8125 15.7371 15.7137 15.9129 15.5379C16.0887 15.3621 16.1875 15.1236 16.1875 14.875V9.4C16.5785 9.07788 16.8933 8.67323 17.1094 8.21506C17.3255 7.7569 17.4376 7.25658 17.4375 6.75V5.5ZM3.45703 2.0625H14.5469L15.2609 4.5625H2.74297L3.45703 2.0625ZM10.5664 6.4375V6.75C10.5664 7.1644 10.4018 7.56183 10.1088 7.85485C9.81573 8.14788 9.41831 8.3125 9.00391 8.3125C8.58951 8.3125 8.19208 8.14788 7.89905 7.85485C7.60603 7.56183 7.44141 7.1644 7.44141 6.75V6.4375H10.5664ZM3.14063 8.05547C2.92448 7.91312 2.74707 7.71931 2.62434 7.49145C2.50162 7.26359 2.43741 7.00881 2.4375 6.75V6.4375H5.5625V6.75C5.5625 7.1644 5.39788 7.56183 5.10485 7.85485C4.81183 8.14788 4.4144 8.3125 4 8.3125C3.75347 8.31261 3.51049 8.25368 3.29141 8.14062C3.24399 8.10747 3.1935 8.07895 3.14063 8.05547ZM14.3125 13.9375H3.6875V10.1727C3.79063 10.182 3.89453 10.1875 4 10.1875C4.46855 10.1877 4.93215 10.0917 5.36215 9.9056C5.79215 9.71949 6.17941 9.44717 6.5 9.10547C6.82067 9.44707 7.20794 9.71934 7.63793 9.90545C8.06791 10.0916 8.53147 10.1876 9 10.1876C9.46853 10.1876 9.93209 10.0916 10.3621 9.90545C10.7921 9.71934 11.1793 9.44707 11.5 9.10547C11.8206 9.44717 12.2079 9.71949 12.6379 9.9056C13.0679 10.0917 13.5315 10.1877 14 10.1875C14.1055 10.1875 14.2094 10.182 14.3125 10.1727V13.9375ZM15.5625 6.75C15.5626 7.00881 15.4984 7.26359 15.3757 7.49145C15.2529 7.71931 15.0755 7.91312 14.8594 8.05547C14.8079 8.07922 14.7587 8.10773 14.7125 8.14062C14.4743 8.26267 14.2087 8.32148 13.9413 8.31143C13.6738 8.30137 13.4134 8.22278 13.1851 8.08319C12.9567 7.9436 12.768 7.7477 12.6371 7.51425C12.5062 7.2808 12.4375 7.01764 12.4375 6.75V6.4375H15.5625V6.75Z" fill="#FF3333"/>
</svg>
