<svg width="18" height="16" viewBox="0 0 18 16" fill="none" xmlns="http://www.w3.org/2000/svg">
<path d="M15.875 0.125H2.125C1.79348 0.125 1.47554 0.256696 1.24112 0.491116C1.0067 0.725537 0.875 1.04348 0.875 1.375V11.375C0.875 11.7065 1.0067 12.0245 1.24112 12.2589C1.47554 12.4933 1.79348 12.625 2.125 12.625H6.84609L7.91484 14.4953C8.0242 14.6866 8.18216 14.8455 8.37272 14.9561C8.56329 15.0667 8.77969 15.1249 9 15.1249C9.22031 15.1249 9.43671 15.0667 9.62728 14.9561C9.81784 14.8455 9.9758 14.6866 10.0852 14.4953L11.1539 12.625H15.875C16.2065 12.625 16.5245 12.4933 16.7589 12.2589C16.9933 12.0245 17.125 11.7065 17.125 11.375V1.375C17.125 1.04348 16.9933 0.725537 16.7589 0.491116C16.5245 0.256696 16.2065 0.125 15.875 0.125ZM5.5625 7.3125C5.37708 7.3125 5.19582 7.25752 5.04165 7.1545C4.88748 7.05149 4.76732 6.90507 4.69636 6.73377C4.62541 6.56246 4.60684 6.37396 4.64301 6.1921C4.67919 6.01025 4.76848 5.8432 4.89959 5.71209C5.0307 5.58098 5.19775 5.49169 5.3796 5.45551C5.56146 5.41934 5.74996 5.43791 5.92127 5.50886C6.09257 5.57982 6.23899 5.69998 6.342 5.85415C6.44502 6.00832 6.5 6.18958 6.5 6.375C6.5 6.62364 6.40123 6.8621 6.22541 7.03791C6.0496 7.21373 5.81114 7.3125 5.5625 7.3125ZM9 7.3125C8.81458 7.3125 8.63332 7.25752 8.47915 7.1545C8.32498 7.05149 8.20482 6.90507 8.13386 6.73377C8.06291 6.56246 8.04434 6.37396 8.08051 6.1921C8.11669 6.01025 8.20598 5.8432 8.33709 5.71209C8.4682 5.58098 8.63525 5.49169 8.8171 5.45551C8.99896 5.41934 9.18746 5.43791 9.35876 5.50886C9.53007 5.57982 9.67649 5.69998 9.7795 5.85415C9.88252 6.00832 9.9375 6.18958 9.9375 6.375C9.9375 6.62364 9.83873 6.8621 9.66291 7.03791C9.4871 7.21373 9.24864 7.3125 9 7.3125ZM12.4375 7.3125C12.2521 7.3125 12.0708 7.25752 11.9167 7.1545C11.7625 7.05149 11.6423 6.90507 11.5714 6.73377C11.5004 6.56246 11.4818 6.37396 11.518 6.1921C11.5542 6.01025 11.6435 5.8432 11.7746 5.71209C11.9057 5.58098 12.0727 5.49169 12.2546 5.45551C12.4365 5.41934 12.625 5.43791 12.7963 5.50886C12.9676 5.57982 13.114 5.69998 13.217 5.85415C13.32 6.00832 13.375 6.18958 13.375 6.375C13.375 6.62364 13.2762 6.8621 13.1004 7.03791C12.9246 7.21373 12.6861 7.3125 12.4375 7.3125Z" fill="#71717A"/>
</svg>
