<svg width="16" height="17" viewBox="0 0 16 17" fill="none" xmlns="http://www.w3.org/2000/svg">
<g clip-path="url(#clip0_601_1387)">
<path d="M15.9922 8.34C15.9922 7.66913 15.9377 7.17956 15.8199 6.67188H8.15918V9.69988H12.6559C12.5652 10.4524 12.0757 11.5856 10.9877 12.3471L10.9725 12.4485L13.3947 14.3249L13.5625 14.3417C15.1037 12.9183 15.9922 10.8241 15.9922 8.34Z" fill="#4285F4"/>
<path d="M8.15918 16.3191C10.3622 16.3191 12.2116 15.5938 13.5625 14.3427L10.9877 12.3481C10.2987 12.8286 9.37399 13.1641 8.15918 13.1641C6.00149 13.1641 4.17018 11.7407 3.51737 9.77344L3.42168 9.78156L0.903055 11.7308L0.870117 11.8223C2.21187 14.4877 4.96793 16.3191 8.15918 16.3191Z" fill="#34A853"/>
<path d="M3.51756 9.77316C3.34531 9.26547 3.24562 8.72147 3.24562 8.15941C3.24562 7.59728 3.34531 7.05334 3.5085 6.54566L3.50394 6.43753L0.95375 4.45703L0.870312 4.49672C0.317313 5.60278 0 6.84484 0 8.15941C0 9.47397 0.317313 10.716 0.870312 11.822L3.51756 9.77316Z" fill="#FBBC05"/>
<path d="M8.15918 3.15494C9.69131 3.15494 10.7248 3.81675 11.3141 4.36981L13.6169 2.12144C12.2026 0.806875 10.3622 0 8.15918 0C4.96793 0 2.21187 1.83131 0.870117 4.49669L3.5083 6.54563C4.17018 4.57831 6.00149 3.15494 8.15918 3.15494Z" fill="#EB4335"/>
</g>
<defs>
<clipPath id="clip0_601_1387">
<rect width="16" height="16.375" fill="white"/>
</clipPath>
</defs>
</svg>
