<svg width="20" height="19" viewBox="0 0 20 19" fill="none" xmlns="http://www.w3.org/2000/svg">
<path d="M8.71555 14.3262H11.1198C12.3312 14.3262 13.3131 15.3081 13.3131 16.5194V18.2507H6.52539V16.5194C6.52539 15.3081 7.50729 14.3262 8.71861 14.3262H8.71555Z" stroke="#FF3333" stroke-linecap="round" stroke-linejoin="round"/>
<path d="M9.91708 14.3244C10.7483 14.3244 11.4221 13.6506 11.4221 12.8194C11.4221 11.9883 10.7483 11.3145 9.91708 11.3145C9.08591 11.3145 8.41211 11.9883 8.41211 12.8194C8.41211 13.6506 9.08591 14.3244 9.91708 14.3244Z" stroke="#FF3333" stroke-linecap="round" stroke-linejoin="round"/>
<path d="M12.2637 14.6457C12.4778 13.6638 13.3526 12.9297 14.4018 12.9297H16.8061C18.0174 12.9297 18.9993 13.9085 18.9993 15.1198V16.8542H13.3129" stroke="#FF3333" stroke-linecap="round" stroke-linejoin="round"/>
<path d="M15.6036 12.926C16.4348 12.926 17.1086 12.2522 17.1086 11.421C17.1086 10.5898 16.4348 9.91602 15.6036 9.91602C14.7724 9.91602 14.0986 10.5898 14.0986 11.421C14.0986 12.2522 14.7724 12.926 15.6036 12.926Z" stroke="#FF3333" stroke-linecap="round" stroke-linejoin="round"/>
<path d="M7.5716 14.6457C7.35748 13.6638 6.48264 12.9297 5.43344 12.9297H3.02916C1.81784 12.9297 0.835938 13.9085 0.835938 15.1198V16.8542H6.52241" stroke="#FF3333" stroke-linecap="round" stroke-linejoin="round"/>
<path d="M4.23153 12.926C5.06271 12.926 5.73651 12.2522 5.73651 11.421C5.73651 10.5898 5.06271 9.91602 4.23153 9.91602C3.40036 9.91602 2.72656 10.5898 2.72656 11.421C2.72656 12.2522 3.40036 12.926 4.23153 12.926Z" stroke="#FF3333" stroke-linecap="round" stroke-linejoin="round"/>
<path d="M3.24413 10.2914C2.97495 9.54197 2.82812 8.73443 2.82812 7.89323C2.82812 3.97786 6.00325 0.802734 9.91862 0.802734C13.834 0.802734 17.0091 3.97786 17.0091 7.89323C17.0091 8.73443 16.8623 9.54197 16.5931 10.2914" stroke="#FF3333" stroke-linecap="round" stroke-linejoin="round"/>
<path d="M4.47266 7.89404C4.47266 4.88715 6.91059 2.44922 9.91747 2.44922C12.9244 2.44922 15.3623 4.88715 15.3623 7.89404" stroke="#FF3333" stroke-linecap="round" stroke-linejoin="round"/>
<path d="M9.07324 8.43315C9.07324 8.90116 9.45254 9.2774 9.91749 9.2774C10.3855 9.2774 10.7617 8.8981 10.7617 8.43315C10.7617 7.96514 10.3824 7.5889 9.91749 7.5889C9.44949 7.5889 9.07324 7.20959 9.07324 6.74464C9.07324 6.27663 9.45254 5.90039 9.91749 5.90039C10.3855 5.90039 10.7617 6.27969 10.7617 6.74464" stroke="#FF3333" stroke-linecap="round" stroke-linejoin="round"/>
<path d="M9.91895 5.16406V5.8982" stroke="#FF3333" stroke-linecap="round" stroke-linejoin="round"/>
<path d="M9.91895 9.2793V10.0104" stroke="#FF3333" stroke-linecap="round" stroke-linejoin="round"/>
</svg>
