<svg width="18" height="16" viewBox="0 0 18 16" fill="none" xmlns="http://www.w3.org/2000/svg">
<path d="M17.2812 5.25938C17.1053 5.05994 16.8888 4.90023 16.6464 4.79086C16.4039 4.68148 16.141 4.62495 15.875 4.625H11.5V3.375C11.5 2.5462 11.1708 1.75134 10.5847 1.16529C9.99866 0.57924 9.2038 0.25 8.375 0.25C8.25889 0.249917 8.14505 0.282181 8.04625 0.343173C7.94744 0.404166 7.86758 0.491476 7.81562 0.595313L4.86406 6.5H1.5C1.16848 6.5 0.850537 6.6317 0.616116 6.86612C0.381696 7.10054 0.25 7.41848 0.25 7.75V14.625C0.25 14.9565 0.381696 15.2745 0.616116 15.5089C0.850537 15.7433 1.16848 15.875 1.5 15.875H14.9375C15.3943 15.8752 15.8354 15.7085 16.1781 15.4065C16.5208 15.1044 16.7413 14.6876 16.7984 14.2344L17.7359 6.73438C17.7692 6.47033 17.7458 6.20224 17.6674 5.94792C17.589 5.6936 17.4574 5.45888 17.2812 5.25938ZM1.5 7.75H4.625V14.625H1.5V7.75Z" fill="#71717A"/>
</svg>
