<svg width="130" height="36" viewBox="0 0 130 36" fill="none" xmlns="http://www.w3.org/2000/svg">
<path d="M28.8358 35.3133C28.7739 35.1114 28.6812 34.8779 28.6379 34.8117C28.6085 34.766 28.4632 34.5593 28.4632 34.5294L28.944 34.93C29.0012 34.9 28.9718 34.9 28.9718 34.8701C28.9579 34.8117 28.7971 34.5136 28.7538 34.4394C28.5065 33.9946 28.1139 33.6224 27.7197 33.2959L27.7351 33.2659C27.9531 33.2801 28.1571 33.1318 28.3612 33.2359C28.2437 32.9536 27.9531 32.7454 27.6903 32.5829L27.7058 32.5372C27.7784 32.5829 28.2159 32.5971 28.2437 32.553C28.2592 32.5372 28.2592 32.5088 28.2437 32.4788C28.2298 32.4331 27.9392 32.2265 27.865 32.1665C27.5883 31.8984 27.3409 31.6018 27.123 31.2753L27.4136 31.4378C27.4739 31.4583 27.6609 31.5577 27.7599 31.5577C27.8047 31.5577 27.831 31.5388 27.8217 31.4835C27.8217 31.4378 27.3131 30.9331 27.2683 30.8148C27.3703 30.8148 27.4584 30.9189 27.5604 30.9473C27.6037 30.963 27.7197 30.963 27.7058 30.9031C27.2683 30.3684 27.123 29.6854 26.8324 29.0766C26.8463 29.0466 26.8756 29.0766 26.8756 29.0908C26.9777 29.1507 27.0642 29.2248 27.1663 29.2091C27.1956 29.1949 27.0936 28.9867 27.0797 28.9567C26.9916 28.6302 27.0364 28.3179 26.9916 27.9914C26.9777 27.9015 26.9189 27.7974 26.9189 27.6948C26.9483 27.6649 27.0503 27.769 27.0797 27.7974C27.1523 27.8431 27.2389 27.9015 27.3131 27.9015C27.342 27.912 27.3564 27.9072 27.3564 27.8873L27.0503 26.9219L27.123 26.9062C27.1369 26.8178 27.021 26.3715 26.9916 26.2532C26.9777 26.209 26.8756 26.015 26.8756 25.9708L27.1091 26.2374L27.1663 26.1191C27.1663 25.8226 27.1091 25.5244 26.9777 25.2579C26.9344 25.168 26.8463 25.0639 26.8463 24.9897C26.905 25.0639 27.123 25.168 27.0936 25.0055C27.0797 24.9598 26.8896 24.7374 26.8463 24.6632C26.5696 24.1727 26.5696 23.5481 26.2929 23.0433C26.2635 22.9992 26.1043 22.7909 26.0888 22.761C26.0888 22.7515 26.094 22.7468 26.1043 22.7468C26.1769 22.8051 26.6283 22.8509 26.6283 22.731C26.483 22.5969 26.3222 22.5086 26.1769 22.3903C25.8415 22.0922 25.3468 21.4975 25.186 21.0827C24.866 20.324 24.7501 18.7341 24.9387 17.9328C25.0995 17.264 25.3607 16.8918 25.1567 16.1646C25.0268 15.6883 24.8228 15.1236 24.3126 14.9911C24.2106 14.9753 24.0066 14.9753 23.9339 14.9312C23.8613 14.857 23.6278 14.3365 23.5552 14.2182C23.3078 13.8018 22.9152 13.3554 22.5504 13.0447C22.5164 13.0084 22.4283 12.9642 22.3927 12.9327C22.3757 12.9201 22.3664 12.9012 22.3572 12.8822C22.3278 12.8176 22.3139 12.6914 22.2891 12.6283C22.2041 12.4311 22.031 12.3869 21.932 12.327C21.8934 12.3049 21.8687 12.2639 21.8594 12.2198C21.8578 12.2056 21.8548 12.1914 21.8517 12.1756C21.8378 12.1251 21.7991 12.0841 21.7512 12.0683C21.6476 12.0336 21.4683 12.0037 21.3864 12.0037C20.5856 11.9437 20.1481 12.48 19.9874 13.2072C19.8714 13.7119 19.9874 14.0542 20.0028 14.5305C20.0028 15.2435 19.8714 16.0605 19.7107 16.7577C19.6241 17.1157 19.536 17.3382 19.2747 17.6047C18.6626 18.2593 17.9206 18.0511 17.5419 19.0622C17.3672 19.5227 17.2358 20.1316 16.9885 20.5622C16.9452 20.6221 16.6824 20.9329 16.7411 20.9786C16.755 20.9786 16.8864 20.9486 16.871 21.0086C16.8571 21.0527 16.8138 21.1127 16.7844 21.1868C16.755 21.2751 16.6236 21.6758 16.6236 21.7357C16.6236 21.7799 16.653 21.8099 16.653 21.884C16.6391 21.9739 16.4938 22.2704 16.5803 22.2862L16.653 22.2704C16.6824 22.3162 16.5216 22.8209 16.4938 22.9092C16.435 23.1774 16.4057 23.4298 16.2897 23.6821C16.2449 23.7563 16.0424 23.9944 16.0996 24.0686C16.2016 24.1285 16.3036 24.0828 16.3918 24.0544C16.435 24.0386 16.435 24.0086 16.435 24.0544C16.013 24.5591 15.7502 25.168 15.4009 25.7027C15.3576 25.7626 15.1242 26.045 15.1242 26.1049C15.1535 26.1191 15.2849 26.0749 15.2556 26.1333C15.2401 26.179 14.9928 26.3573 14.9789 26.3872C14.9634 26.4314 14.9789 26.4456 14.9928 26.4756H15.0654C15.1103 26.5197 15.0515 26.5055 15.0376 26.5355C14.5568 26.9961 14.1194 27.6349 13.7113 28.1554C13.6386 28.2579 13.4794 28.392 13.4207 28.4819C13.4067 28.5119 13.3774 28.5403 13.3913 28.586L13.4794 28.6444V28.6901C13.4207 28.6743 13.3186 28.7942 13.348 28.8226H13.668C13.7839 28.8226 14.0328 28.9267 14.1627 28.9567C14.614 29.0466 14.9634 29.0008 15.4009 29.0308C15.7502 29.0466 16.0702 29.1507 16.3918 29.2091C16.3469 29.3132 16.2897 29.4173 16.2449 29.5214C16.2171 29.5955 16.0996 29.9677 16.1151 30.0119C16.1722 30.1901 16.3918 29.7154 16.4938 29.7595C16.4057 29.8479 16.1877 30.4867 16.1877 30.5624C16.2016 30.6066 16.2604 30.5908 16.2897 30.5624C16.3624 30.5167 16.435 30.2643 16.551 30.2043C16.5371 30.2942 16.4783 30.3842 16.435 30.4725C16.4057 30.5624 16.3918 30.6649 16.3469 30.7548C16.3176 30.829 16.1429 31.023 16.3624 30.963C16.435 30.9473 16.4938 30.8889 16.551 30.8589C16.5664 30.8731 16.4938 31.0813 16.4783 31.1271C16.435 31.2296 16.333 31.3195 16.3624 31.4378C16.0996 31.6618 15.7502 31.7943 15.5323 32.0766C15.5029 32.1066 15.3576 32.3306 15.387 32.3747C15.4302 32.3747 15.5756 32.2706 15.5756 32.3747C15.4302 32.4047 15.2849 32.5829 15.1968 32.7154C15.0082 32.9836 14.8614 33.2959 14.6434 33.5483C14.5708 33.6082 14.3095 33.7407 14.512 33.7864L14.7022 33.8006C14.3033 34.2218 14.1967 34.8275 13.8921 35.3133H2.1453C0.664384 35.3133 -0.224474 33.635 0.585546 32.3716L20.3367 1.58074C21.0726 0.434025 22.7189 0.434025 23.4547 1.58074L43.2136 32.37C44.0252 33.635 43.1363 35.3133 41.6554 35.3133H28.8358Z" fill="#FF3333"/>
<path d="M54.4458 23.1689C55.0174 22.0666 55.8135 21.2296 56.8546 20.6172C57.8957 20.0048 59.1205 19.6986 60.5086 19.6986C61.5701 19.6986 62.5499 19.9027 63.4073 20.311C64.2646 20.7193 64.9791 21.3113 65.5302 22.0666C66.061 22.8218 66.408 23.6996 66.5713 24.6795H64.2238C63.9788 23.7813 63.5297 23.0668 62.8765 22.5361C62.2029 22.0257 61.3863 21.7604 60.4065 21.7604C59.5083 21.7604 58.7326 21.9849 58.0794 22.434C57.4058 22.8831 56.8954 23.4955 56.5484 24.2712C56.181 25.0469 56.0177 25.9451 56.0177 26.9657C56.0177 27.9864 56.181 28.8846 56.5484 29.6603C56.8954 30.4564 57.4058 31.0688 58.0794 31.5179C58.7326 31.967 59.5083 32.1711 60.4065 32.1711C61.3863 32.1711 62.2029 31.9262 62.8561 31.3954C63.5093 30.8851 63.9584 30.1706 64.2034 29.252H66.5509C66.3876 30.2727 66.0406 31.1505 65.5098 31.8853C64.9791 32.6406 64.285 33.2122 63.4277 33.6205C62.5703 34.0287 61.5905 34.2329 60.5086 34.2329C59.1205 34.2329 57.8957 33.9471 56.8546 33.3347C55.8135 32.7427 55.0174 31.9058 54.4458 30.8034C53.8743 29.7011 53.6089 28.4355 53.6089 26.9657C53.6089 25.5368 53.8743 24.2712 54.4458 23.1689Z" fill="#FF3333"/>
<path d="M78.3509 32.1915V34.1104H77.1873C76.4933 34.1104 76.0034 33.9675 75.7176 33.6817C75.4114 33.3959 75.2685 32.9877 75.2685 32.4365C74.4724 33.6409 73.3292 34.2329 71.8187 34.2329C70.6347 34.2329 69.6957 33.9675 69.0016 33.4163C68.2872 32.8856 67.9401 32.1303 67.9401 31.1709C67.9401 30.1094 68.3076 29.2724 69.0833 28.7009C69.8386 28.1293 70.9409 27.8231 72.4106 27.8231H75.0439V27.1903C75.0439 26.6187 74.8398 26.1492 74.4316 25.8226C74.0233 25.496 73.4517 25.3123 72.7372 25.3123C72.084 25.3123 71.5533 25.4552 71.145 25.7409C70.7367 26.0267 70.4918 26.3942 70.4101 26.8433H68.2463C68.3484 25.8022 68.8179 24.9857 69.6344 24.4141C70.451 23.8425 71.5125 23.5363 72.8393 23.5363C74.2274 23.5363 75.3093 23.8629 76.085 24.5162C76.8403 25.1694 77.2282 26.1084 77.2282 27.3332V31.4567C77.2282 31.9466 77.4527 32.1915 77.9222 32.1915H78.3509ZM75.0439 29.4562H72.3086C71.6145 29.4562 71.1042 29.5991 70.7367 29.8644C70.3693 30.1298 70.1856 30.5177 70.1856 31.028C70.1856 31.4771 70.3489 31.8445 70.6959 32.1099C71.0429 32.3957 71.5125 32.5182 72.1249 32.5182C73.023 32.5182 73.7375 32.2732 74.2478 31.7833C74.7582 31.2934 75.0235 30.6401 75.0439 29.8236V29.4562Z" fill="#FF3333"/>
<path d="M78.1917 23.6588H80.5597L83.438 31.7425L86.2754 23.6588H88.6025L84.7444 34.1104H82.0499L78.1917 23.6588Z" fill="#FF3333"/>
<path d="M89.5648 26.088C89.9935 25.2714 90.5855 24.659 91.3612 24.21C92.1369 23.7609 93.0147 23.5363 94.0149 23.5363C95.0152 23.5363 95.8929 23.7404 96.6686 24.1487C97.4443 24.557 98.0363 25.149 98.4854 25.8838C98.9345 26.6391 99.1591 27.5169 99.1795 28.5172C99.1795 28.8029 99.1591 29.0683 99.1182 29.3541H91.2387V29.4766C91.2795 30.3952 91.5653 31.1096 92.0961 31.6404C92.6064 32.1711 93.3004 32.4365 94.1578 32.4365C94.8314 32.4365 95.403 32.2936 95.8725 31.967C96.3216 31.6404 96.6278 31.1913 96.7911 30.5993H98.9957C98.7916 31.6608 98.2813 32.5386 97.4443 33.2122C96.6074 33.9063 95.5663 34.2329 94.3211 34.2329C93.2188 34.2329 92.2798 34.0287 91.4632 33.5797C90.6467 33.1306 90.0343 32.5182 89.5852 31.7016C89.1361 30.9055 88.932 29.9665 88.932 28.905C88.932 27.8435 89.1361 26.9045 89.5648 26.088ZM96.934 27.7414C96.8319 26.9862 96.5257 26.3942 96.0154 25.9655C95.5051 25.5368 94.8723 25.3123 94.0966 25.3123C93.3617 25.3123 92.7493 25.5368 92.2185 25.9859C91.6878 26.435 91.402 27.0066 91.3204 27.7414H96.934Z" fill="#FF3333"/>
<path d="M106.739 23.6588V25.7205H105.759C104.84 25.7205 104.187 26.0267 103.779 26.6187C103.371 27.2107 103.166 27.966 103.166 28.8642V34.1104H100.962V23.6588H102.921L103.166 25.2306C103.452 24.7407 103.84 24.3733 104.33 24.0875C104.799 23.8017 105.432 23.6588 106.249 23.6588H106.739Z" fill="#FF3333"/>
<path d="M116.671 24.6795C117.447 25.4552 117.855 26.68 117.855 28.3538V34.1104H115.63V28.4763C115.63 27.4965 115.405 26.7412 114.997 26.2104C114.569 25.7001 113.956 25.4347 113.14 25.4347C112.262 25.4347 111.568 25.7409 111.078 26.3533C110.588 26.9657 110.343 27.7823 110.343 28.8438V34.1104H108.138V23.6588H110.057L110.302 25.0265C111.078 24.0466 112.201 23.5363 113.65 23.5363C114.875 23.5363 115.895 23.9242 116.671 24.6795Z" fill="#FF3333"/>
<path d="M129.863 32.1915V34.1104H128.699C128.005 34.1104 127.515 33.9675 127.229 33.6817C126.923 33.3959 126.78 32.9877 126.78 32.4365C125.984 33.6409 124.841 34.2329 123.33 34.2329C122.146 34.2329 121.207 33.9675 120.513 33.4163C119.799 32.8856 119.452 32.1303 119.452 31.1709C119.452 30.1094 119.819 29.2724 120.595 28.7009C121.35 28.1293 122.453 27.8231 123.922 27.8231H126.556V27.1903C126.556 26.6187 126.351 26.1492 125.943 25.8226C125.535 25.496 124.963 25.3123 124.249 25.3123C123.596 25.3123 123.065 25.4552 122.657 25.7409C122.248 26.0267 122.003 26.3942 121.922 26.8433H119.758C119.86 25.8022 120.33 24.9857 121.146 24.4141C121.963 23.8425 123.024 23.5363 124.351 23.5363C125.739 23.5363 126.821 23.8629 127.597 24.5162C128.352 25.1694 128.74 26.1084 128.74 27.3332V31.4567C128.74 31.9466 128.964 32.1915 129.434 32.1915H129.863ZM126.556 29.4562H123.82C123.126 29.4562 122.616 29.5991 122.248 29.8644C121.881 30.1298 121.697 30.5177 121.697 31.028C121.697 31.4771 121.861 31.8445 122.208 32.1099C122.555 32.3957 123.024 32.5182 123.636 32.5182C124.535 32.5182 125.249 32.2732 125.759 31.7833C126.27 31.2934 126.535 30.6401 126.556 29.8236V29.4562Z" fill="#FF3333"/>
<path d="M53.6089 0.71875H56.6155L61.1356 11.8373L65.5749 0.71875H68.521V14.8439H66.2812V4.45182L62.0436 14.8439H60.0863L55.8487 4.45182V14.8439H53.6089V0.71875Z" fill="white"/>
<path d="M73.0045 14.3192C72.1973 13.8753 71.592 13.2699 71.148 12.4628C70.7041 11.6556 70.5023 10.7274 70.5023 9.67812C70.5023 8.64901 70.7041 7.74096 71.148 6.93381C71.592 6.12666 72.1973 5.50112 73.0045 5.05719C73.8116 4.61325 74.7197 4.39129 75.769 4.39129C76.7981 4.39129 77.7061 4.61325 78.5133 5.05719C79.3204 5.50112 79.9258 6.12666 80.3697 6.93381C80.8137 7.74096 81.0356 8.64901 81.0356 9.67812C81.0356 10.7274 80.8137 11.6556 80.3697 12.4628C79.9258 13.2699 79.3204 13.8753 78.5133 14.3192C77.7061 14.7632 76.7981 14.965 75.769 14.965C74.7197 14.965 73.8116 14.7632 73.0045 14.3192ZM77.9684 12.1601C78.5335 11.5144 78.816 10.6871 78.816 9.67812C78.816 8.66919 78.5335 7.86203 77.9684 7.21631C77.4034 6.57059 76.677 6.24773 75.769 6.24773C74.8407 6.24773 74.1143 6.57059 73.5695 7.21631C73.0045 7.86203 72.7421 8.66919 72.7421 9.67812C72.7421 10.6871 73.0045 11.5144 73.5695 12.1601C74.1143 12.8058 74.8407 13.1085 75.769 13.1085C76.677 13.1085 77.4034 12.8058 77.9684 12.1601Z" fill="white"/>
<path d="M92.8169 0.71875V14.8439H90.9201L90.6577 13.2901C89.8304 14.4201 88.7004 14.965 87.2879 14.965C86.3395 14.965 85.492 14.7632 84.7655 14.3394C84.0189 13.9157 83.4337 13.3103 83.0302 12.5032C82.6064 11.696 82.4046 10.7678 82.4046 9.67812C82.4046 8.62883 82.6064 7.72078 83.0302 6.91363C83.4539 6.10648 84.0391 5.50112 84.7857 5.05719C85.5122 4.61325 86.3597 4.39129 87.2879 4.39129C88.0345 4.39129 88.7004 4.53254 89.2654 4.81504C89.8304 5.09755 90.2743 5.46076 90.6376 5.94505V0.71875H92.8169ZM89.8304 12.1803C90.3752 11.5548 90.6577 10.7274 90.6577 9.71848C90.6577 8.68936 90.3752 7.86203 89.8304 7.21631C89.2654 6.57059 88.539 6.24773 87.6511 6.24773C86.7431 6.24773 86.0166 6.57059 85.4718 7.21631C84.9068 7.86203 84.6445 8.66919 84.6445 9.67812C84.6445 10.7072 84.9068 11.5346 85.4718 12.1803C86.0166 12.826 86.7431 13.1287 87.6511 13.1287C88.539 13.1287 89.2654 12.826 89.8304 12.1803Z" fill="white"/>
<path d="M97.0653 14.3192C96.2581 13.8753 95.6528 13.2699 95.2088 12.4628C94.7649 11.6556 94.5631 10.7274 94.5631 9.67812C94.5631 8.64901 94.7649 7.74096 95.2088 6.93381C95.6528 6.12666 96.2581 5.50112 97.0653 5.05719C97.8724 4.61325 98.7805 4.39129 99.8298 4.39129C100.859 4.39129 101.767 4.61325 102.574 5.05719C103.381 5.50112 103.987 6.12666 104.431 6.93381C104.874 7.74096 105.096 8.64901 105.096 9.67812C105.096 10.7274 104.874 11.6556 104.431 12.4628C103.987 13.2699 103.381 13.8753 102.574 14.3192C101.767 14.7632 100.859 14.965 99.8298 14.965C98.7805 14.965 97.8724 14.7632 97.0653 14.3192ZM102.029 12.1601C102.594 11.5144 102.877 10.6871 102.877 9.67812C102.877 8.66919 102.594 7.86203 102.029 7.21631C101.464 6.57059 100.738 6.24773 99.8298 6.24773C98.9016 6.24773 98.1751 6.57059 97.6303 7.21631C97.0653 7.86203 96.803 8.66919 96.803 9.67812C96.803 10.6871 97.0653 11.5144 97.6303 12.1601C98.1751 12.8058 98.9016 13.1085 99.8298 13.1085C100.738 13.1085 101.464 12.8058 102.029 12.1601Z" fill="white"/>
</svg>
