<svg width="9" height="9" viewBox="0 0 9 9" fill="none" xmlns="http://www.w3.org/2000/svg">
<path d="M8.74662 2.18718L6.81331 0.253576C6.73295 0.173185 6.63753 0.109413 6.53251 0.0659036C6.4275 0.0223943 6.31493 0 6.20126 0C6.08758 0 5.97502 0.0223943 5.87 0.0659036C5.76498 0.109413 5.66957 0.173185 5.5892 0.253576L0.253566 5.58926C0.172912 5.66938 0.108967 5.76472 0.0654406 5.86974C0.0219141 5.97476 -0.00032812 6.08737 3.6577e-06 6.20106V8.13466C3.6577e-06 8.36416 0.0911797 8.58426 0.253474 8.74654C0.415768 8.90883 0.635887 9 0.865406 9H2.79915C2.91283 9.00031 3.02545 8.97805 3.13047 8.93453C3.2355 8.89101 3.33084 8.82708 3.41099 8.74645L8.74662 3.41077C8.90886 3.24849 9 3.02843 9 2.79897C9 2.56952 8.90886 2.34945 8.74662 2.18718ZM2.72602 7.96159H1.03849V6.27418L4.67317 2.63975L6.36071 4.32716L2.72602 7.96159ZM7.0963 3.59162L5.40877 1.90421L6.20234 1.1107L7.88987 2.79811L7.0963 3.59162Z" fill="#FF3333"/>
</svg>
