<svg width="47" height="34" viewBox="0 0 47 34" fill="none" xmlns="http://www.w3.org/2000/svg">
<path opacity="0.5" d="M28.484 29.164C28.396 29.164 28.748 28.592 29.54 27.448C30.244 26.392 31.124 25.072 32.18 23.488C33.148 21.904 33.984 20.364 34.688 18.868C33.456 18.604 32.268 17.944 31.124 16.888C29.892 15.92 28.88 14.82 28.088 13.588C27.296 12.356 26.9 11.168 26.9 10.024C26.9 7.208 27.824 4.92 29.672 3.16C31.52 1.488 33.896 0.652004 36.8 0.652004C39.44 0.652004 41.772 1.62 43.796 3.556C45.82 5.58 46.832 8 46.832 10.816C46.832 13.456 46.216 16.052 44.984 18.604C43.752 21.244 42.3 23.62 40.628 25.732C38.956 27.932 37.416 29.736 36.008 31.144C34.6 32.552 33.676 33.476 33.236 33.916L28.484 29.164ZM2.348 29.164C2.26 29.164 2.612 28.592 3.404 27.448C4.108 26.392 4.988 25.072 6.044 23.488C7.012 21.904 7.848 20.364 8.552 18.868C7.408 18.604 6.264 17.944 5.12 16.888C3.888 15.92 2.876 14.82 2.084 13.588C1.204 12.356 0.763997 11.168 0.763997 10.024C0.763997 7.208 1.688 4.92 3.536 3.16C5.384 1.488 7.76 0.652004 10.664 0.652004C13.216 0.652004 15.548 1.62 17.66 3.556C19.684 5.58 20.696 8 20.696 10.816C20.696 13.456 20.124 16.052 18.98 18.604C17.748 21.156 16.296 23.532 14.624 25.732C12.864 27.932 11.28 29.736 9.872 31.144C8.464 32.552 7.54 33.476 7.1 33.916L2.348 29.164Z" fill="#FF3333"/>
</svg>
