<svg width="20" height="15" viewBox="0 0 20 15" fill="none" xmlns="http://www.w3.org/2000/svg">
<path opacity="0.5" d="M8.128 2.688C8.16533 2.688 8.016 2.93067 7.68 3.416C7.38133 3.864 7.008 4.424 6.56 5.096C6.14933 5.768 5.79467 6.42133 5.496 7.056C6.01867 7.168 6.52267 7.448 7.008 7.896C7.53067 8.30667 7.96 8.77333 8.296 9.296C8.632 9.81867 8.8 10.3227 8.8 10.808C8.8 12.0027 8.408 12.9733 7.624 13.72C6.84 14.4293 5.832 14.784 4.6 14.784C3.48 14.784 2.49067 14.3733 1.632 13.552C0.773333 12.6933 0.344 11.6667 0.344 10.472C0.344 9.352 0.605333 8.25067 1.128 7.168C1.65067 6.048 2.26667 5.04 2.976 4.144C3.68533 3.21067 4.33867 2.44533 4.936 1.848C5.53333 1.25067 5.92533 0.858665 6.112 0.671998L8.128 2.688ZM19.216 2.688C19.2533 2.688 19.104 2.93067 18.768 3.416C18.4693 3.864 18.096 4.424 17.648 5.096C17.2373 5.768 16.8827 6.42133 16.584 7.056C17.0693 7.168 17.5547 7.448 18.04 7.896C18.5627 8.30667 18.992 8.77333 19.328 9.296C19.7013 9.81867 19.888 10.3227 19.888 10.808C19.888 12.0027 19.496 12.9733 18.712 13.72C17.928 14.4293 16.92 14.784 15.688 14.784C14.6053 14.784 13.616 14.3733 12.72 13.552C11.8613 12.6933 11.432 11.6667 11.432 10.472C11.432 9.352 11.6747 8.25067 12.16 7.168C12.6827 6.08533 13.2987 5.07733 14.008 4.144C14.7547 3.21067 15.4267 2.44533 16.024 1.848C16.6213 1.25067 17.0133 0.858665 17.2 0.671998L19.216 2.688Z" fill="#71717A"/>
</svg>
