<svg width="47" height="34" viewBox="0 0 47 34" fill="none" xmlns="http://www.w3.org/2000/svg">
<path opacity="0.5" d="M18.516 4.83794C18.604 4.83794 18.252 5.40994 17.46 6.55394C16.756 7.60994 15.876 8.92994 14.82 10.5139C13.852 12.0979 13.016 13.6379 12.312 15.1339C13.544 15.3979 14.732 16.0579 15.876 17.1139C17.108 18.0819 18.12 19.1819 18.912 20.4139C19.704 21.6459 20.1 22.8339 20.1 23.9779C20.1 26.7939 19.176 29.0819 17.328 30.8419C15.48 32.5139 13.104 33.3499 10.2 33.3499C7.55997 33.3499 5.22797 32.3819 3.20397 30.4459C1.17997 28.4219 0.167969 26.0019 0.167969 23.1859C0.167969 20.5459 0.783969 17.9499 2.01597 15.3979C3.24797 12.7579 4.69997 10.3819 6.37197 8.26994C8.04397 6.06994 9.58397 4.26594 10.992 2.85794C12.4 1.44994 13.324 0.525937 13.764 0.0859375L18.516 4.83794ZM44.652 4.83794C44.74 4.83794 44.388 5.40994 43.596 6.55394C42.892 7.60994 42.012 8.92994 40.956 10.5139C39.988 12.0979 39.152 13.6379 38.448 15.1339C39.592 15.3979 40.736 16.0579 41.88 17.1139C43.112 18.0819 44.124 19.1819 44.916 20.4139C45.796 21.6459 46.236 22.8339 46.236 23.9779C46.236 26.7939 45.312 29.0819 43.464 30.8419C41.616 32.5139 39.24 33.3499 36.336 33.3499C33.784 33.3499 31.452 32.3819 29.34 30.4459C27.316 28.4219 26.304 26.0019 26.304 23.1859C26.304 20.5459 26.876 17.9499 28.02 15.3979C29.252 12.8459 30.704 10.4699 32.376 8.26994C34.136 6.06994 35.72 4.26594 37.128 2.85794C38.536 1.44994 39.46 0.525937 39.9 0.0859375L44.652 4.83794Z" fill="#FF3333"/>
</svg>
