<svg width="8" height="9" viewBox="0 0 8 9" fill="none" xmlns="http://www.w3.org/2000/svg">
<path d="M7.52 1.63636H6.08V1.14545C6.08 0.841661 5.962 0.55031 5.75196 0.335496C5.54192 0.120681 5.25704 0 4.96 0H3.04C2.74296 0 2.45808 0.120681 2.24804 0.335496C2.038 0.55031 1.92 0.841661 1.92 1.14545V1.63636H0.48C0.352696 1.63636 0.230606 1.68808 0.140589 1.78015C0.0505713 1.87221 0 1.99708 0 2.12727C0 2.25747 0.0505713 2.38233 0.140589 2.4744C0.230606 2.56646 0.352696 2.61818 0.48 2.61818H0.64V8.18182C0.64 8.39881 0.724285 8.60692 0.874315 8.76036C1.02434 8.9138 1.22783 9 1.44 9H6.56C6.77217 9 6.97566 8.9138 7.12569 8.76036C7.27571 8.60692 7.36 8.39881 7.36 8.18182V2.61818H7.52C7.6473 2.61818 7.76939 2.56646 7.85941 2.4744C7.94943 2.38233 8 2.25747 8 2.12727C8 1.99708 7.94943 1.87221 7.85941 1.78015C7.76939 1.68808 7.6473 1.63636 7.52 1.63636ZM2.88 1.14545C2.88 1.10206 2.89686 1.06043 2.92686 1.02975C2.95687 0.999058 2.99757 0.981818 3.04 0.981818H4.96C5.00243 0.981818 5.04313 0.999058 5.07314 1.02975C5.10314 1.06043 5.12 1.10206 5.12 1.14545V1.63636H2.88V1.14545ZM6.4 8.01818H1.6V2.61818H6.4V8.01818ZM3.52 3.92727V6.54545C3.52 6.67565 3.46943 6.80052 3.37941 6.89258C3.28939 6.98464 3.1673 7.03636 3.04 7.03636C2.9127 7.03636 2.79061 6.98464 2.70059 6.89258C2.61057 6.80052 2.56 6.67565 2.56 6.54545V3.92727C2.56 3.79708 2.61057 3.67221 2.70059 3.58015C2.79061 3.48808 2.9127 3.43636 3.04 3.43636C3.1673 3.43636 3.28939 3.48808 3.37941 3.58015C3.46943 3.67221 3.52 3.79708 3.52 3.92727ZM5.44 3.92727V6.54545C5.44 6.67565 5.38943 6.80052 5.29941 6.89258C5.20939 6.98464 5.0873 7.03636 4.96 7.03636C4.8327 7.03636 4.71061 6.98464 4.62059 6.89258C4.53057 6.80052 4.48 6.67565 4.48 6.54545V3.92727C4.48 3.79708 4.53057 3.67221 4.62059 3.58015C4.71061 3.48808 4.8327 3.43636 4.96 3.43636C5.0873 3.43636 5.20939 3.48808 5.29941 3.58015C5.38943 3.67221 5.44 3.79708 5.44 3.92727Z" fill="#FF3333"/>
</svg>
