<svg width="128" height="100" viewBox="0 0 128 100" fill="none" xmlns="http://www.w3.org/2000/svg">
<path d="M91 30.3774H37C36.1049 30.3774 35.2464 30.733 34.6135 31.3659C33.9806 31.9989 33.625 32.8573 33.625 33.7524C33.6351 39.1926 35.101 44.531 37.8706 49.2135C40.6401 53.896 44.6123 57.7519 49.375 60.3812V60.7524C49.375 62.2443 49.9676 63.675 51.0225 64.7299C52.0774 65.7848 53.5082 66.3774 55 66.3774H73C74.4918 66.3774 75.9226 65.7848 76.9775 64.7299C78.0324 63.675 78.625 62.2443 78.625 60.7524V60.3812C83.3877 57.7519 87.3599 53.896 90.1294 49.2135C92.899 44.531 94.3649 39.1926 94.375 33.7524C94.375 32.8573 94.0194 31.9989 93.3865 31.3659C92.7535 30.733 91.8951 30.3774 91 30.3774ZM73.8438 55.2371C73.2567 55.5062 72.7591 55.9381 72.4102 56.4814C72.0612 57.0248 71.8755 57.6569 71.875 58.3027V59.6274H56.125V58.3027C56.1245 57.6569 55.9388 57.0248 55.5898 56.4814C55.2409 55.9381 54.7433 55.5062 54.1562 55.2371C50.5707 53.584 47.4547 51.0617 45.0909 47.8993C42.727 44.7369 41.1901 41.0343 40.6197 37.1274H87.3803C86.8099 41.0343 85.273 44.7369 82.9091 47.8993C80.5453 51.0617 77.4293 53.584 73.8438 55.2371ZM49.0741 14.1071C49.6186 13.5264 50.0659 12.8616 50.3988 12.1384C49.5934 11.8198 48.9413 11.2037 48.5775 10.4178C48.2137 9.63181 48.1659 8.73605 48.4441 7.91586C48.7223 7.09566 49.3052 6.41382 50.0722 6.01141C50.8391 5.609 51.7314 5.51684 52.5644 5.75399C54.1591 6.21524 56.2769 7.61868 56.9997 10.0571C57.7619 12.6277 56.8113 15.474 54.1872 18.5171C53.6426 19.0979 53.1953 19.7626 52.8625 20.4859C53.5947 20.7733 54.2034 21.3075 54.5836 21.996C54.9639 22.6846 55.0916 23.4843 54.9449 24.2571C54.7981 25.0298 54.3861 25.7271 53.7799 26.2283C53.1738 26.7296 52.4116 27.0034 51.625 27.0024C51.3081 27.0033 50.9927 26.9587 50.6884 26.8702C49.0937 26.409 46.9731 25.0056 46.2503 22.5671C45.4881 19.9965 46.4388 17.1587 49.0741 14.1071ZM61.4491 14.1071C61.9936 13.5264 62.4409 12.8616 62.7738 12.1384C61.9684 11.8198 61.3163 11.2037 60.9525 10.4178C60.5887 9.63181 60.5409 8.73605 60.8191 7.91586C61.0973 7.09566 61.6802 6.41382 62.4472 6.01141C63.2141 5.609 64.1064 5.51684 64.9394 5.75399C66.5341 6.21524 68.6519 7.61868 69.3747 10.0571C70.1369 12.6277 69.1862 15.474 66.5622 18.5171C66.0176 19.0979 65.5703 19.7626 65.2375 20.4859C65.9697 20.7733 66.5784 21.3075 66.9586 21.996C67.3389 22.6846 67.4666 23.4843 67.3199 24.2571C67.1731 25.0298 66.7611 25.7271 66.1549 26.2283C65.5488 26.7296 64.7866 27.0034 64 27.0024C63.6831 27.0033 63.3677 26.9587 63.0634 26.8702C61.4688 26.409 59.3481 25.0056 58.6253 22.5671C57.8631 19.9965 58.8137 17.1587 61.4491 14.1071ZM73.8241 14.1071C74.3686 13.5264 74.8159 12.8616 75.1488 12.1384C74.3434 11.8198 73.6913 11.2037 73.3275 10.4178C72.9637 9.63181 72.9159 8.73605 73.1941 7.91586C73.4723 7.09566 74.0552 6.41382 74.8222 6.01141C75.5891 5.609 76.4814 5.51684 77.3144 5.75399C78.9091 6.21524 81.0269 7.61868 81.7497 10.0571C82.5119 12.6277 81.5612 15.474 78.9372 18.5171C78.3926 19.0979 77.9453 19.7626 77.6125 20.4859C78.3447 20.7733 78.9534 21.3075 79.3336 21.996C79.7139 22.6846 79.8416 23.4843 79.6949 24.2571C79.5481 25.0298 79.1361 25.7271 78.5299 26.2283C77.9238 26.7296 77.1616 27.0034 76.375 27.0024C76.0581 27.0033 75.7427 26.9587 75.4384 26.8702C73.8438 26.409 71.7231 25.0056 71.0003 22.5671C70.2381 19.9965 71.1887 17.1587 73.8241 14.1071Z" fill="#3F3F46"/>
<ellipse opacity="0.23" cx="64" cy="96.1603" rx="64" ry="3.84" fill="#A0A0A9"/>
</svg>
